<?xml version="1.0" encoding="UTF-8" standalone="no"?>
<svg width="1364px" height="1769px" viewBox="0 0 1364 1769" version="1.1" xmlns="http://www.w3.org/2000/svg" xmlns:xlink="http://www.w3.org/1999/xlink" xmlns:sketch="http://www.bohemiancoding.com/sketch/ns">
    <!-- Generator: Sketch 3.2.2 (9983) - http://www.bohemiancoding.com/sketch -->
    <title>01_star-background</title>
    <desc>Created with Sketch.</desc>
    <defs></defs>
    <g id="Page-1" stroke="none" stroke-width="1" fill="none" fill-rule="evenodd" sketch:type="MSPage">
        <g id="01_star-background" sketch:type="MSLayerGroup" fill="#72869C" opacity="0.500058302">
            <circle id="Oval-49" sketch:type="MSShapeGroup" cx="61" cy="1140" r="5"></circle>
            <circle id="Oval-49" sketch:type="MSShapeGroup" cx="939" cy="869" r="5"></circle>
            <circle id="Oval-49" sketch:type="MSShapeGroup" cx="71" cy="1690" r="5"></circle>
            <circle id="Oval-49" sketch:type="MSShapeGroup" cx="1035" cy="1517" r="5"></circle>
            <circle id="Oval-49" sketch:type="MSShapeGroup" cx="404.5" cy="1530.5" r="2.5"></circle>
            <circle id="Oval-49" sketch:type="MSShapeGroup" cx="325" cy="979" r="5"></circle>
            <circle id="Oval-49" sketch:type="MSShapeGroup" cx="858" cy="1430" r="5"></circle>
            <circle id="Oval-49" sketch:type="MSShapeGroup" cx="1179" cy="1466" r="5"></circle>
            <circle id="Oval-49" sketch:type="MSShapeGroup" cx="145.5" cy="871.5" r="2.5"></circle>
            <circle id="Oval-49" sketch:type="MSShapeGroup" cx="564.5" cy="749.5" r="2.5"></circle>
            <circle id="Oval-49" sketch:type="MSShapeGroup" cx="781.5" cy="826.5" r="2.5"></circle>
            <circle id="Oval-49" sketch:type="MSShapeGroup" cx="607.5" cy="1053.5" r="2.5"></circle>
            <circle id="Oval-49" sketch:type="MSShapeGroup" cx="1202.5" cy="517.5" r="2.5"></circle>
            <circle id="Oval-49" sketch:type="MSShapeGroup" cx="1331.5" cy="174.5" r="2.5"></circle>
            <circle id="Oval-49" sketch:type="MSShapeGroup" cx="1232.5" cy="1135.5" r="2.5"></circle>
            <circle id="Oval-49" sketch:type="MSShapeGroup" cx="1080.5" cy="1002.5" r="2.5"></circle>
            <circle id="Oval-49" sketch:type="MSShapeGroup" cx="327.5" cy="1714.5" r="2.5"></circle>
            <circle id="Oval-49" sketch:type="MSShapeGroup" cx="561.5" cy="1207.5" r="2.5"></circle>
            <circle id="Oval-49" sketch:type="MSShapeGroup" cx="688.5" cy="1524.5" r="2.5"></circle>
            <circle id="Oval-49" sketch:type="MSShapeGroup" cx="1025" cy="1764" r="5"></circle>
            <circle id="Oval-49" sketch:type="MSShapeGroup" cx="119.5" cy="1469.5" r="2.5"></circle>
            <circle id="Oval-49" sketch:type="MSShapeGroup" cx="228" cy="1655" r="5"></circle>
            <circle id="Oval-49" sketch:type="MSShapeGroup" cx="1105.5" cy="1662.5" r="2.5"></circle>
            <circle id="Oval-49" sketch:type="MSShapeGroup" cx="1272" cy="995" r="5"></circle>
            <circle id="Oval-49" sketch:type="MSShapeGroup" cx="1186.5" cy="903.5" r="2.5"></circle>
            <circle id="Oval-49" sketch:type="MSShapeGroup" cx="1296.5" cy="1717.5" r="2.5"></circle>
            <circle id="Oval-49" sketch:type="MSShapeGroup" cx="1359" cy="660" r="5"></circle>
            <circle id="Oval-49" sketch:type="MSShapeGroup" cx="1349" cy="353" r="5"></circle>
            <circle id="Oval-49" sketch:type="MSShapeGroup" cx="350" cy="265" r="5"></circle>
            <circle id="Oval-49" sketch:type="MSShapeGroup" cx="141" cy="629" r="5"></circle>
            <circle id="Oval-49" sketch:type="MSShapeGroup" cx="197" cy="32" r="5"></circle>
            <circle id="Oval-49" sketch:type="MSShapeGroup" cx="1103" cy="109" r="5"></circle>
            <circle id="Oval-49" sketch:type="MSShapeGroup" cx="1299" cy="5" r="5"></circle>
            <circle id="Oval-49" sketch:type="MSShapeGroup" cx="417" cy="119" r="5"></circle>
            <circle id="Oval-49" sketch:type="MSShapeGroup" cx="5" cy="83" r="5"></circle>
            <circle id="Oval-49" sketch:type="MSShapeGroup" cx="784" cy="19" r="5"></circle>
            <circle id="Oval-49" sketch:type="MSShapeGroup" cx="300.5" cy="1207.5" r="2.5"></circle>
        </g>
    </g>
</svg>