<svg width="93" height="48" viewBox="0 0 93 48" xmlns="http://www.w3.org/2000/svg"><title>A001_dhuttle_xs</title><desc>Created with Sketch.</desc><g fill="none" fill-rule="evenodd"><g><g><g><g fill="#256FB7"><path d="M33.372 7.434s4.16.033 9.082-.837c4.922-.87 9.045-2.365 9.045-2.365S50.577-.96 41.404.662c-9.173 1.62-8.033 6.772-8.033 6.772z"/></g><g><path d="M20.74 24.562l23.76-4.197c17.105-3.02 25.115-4.436 25.115-4.436S63.845-.893 41.585 3.87C19.327 8.63 20.74 24.56 20.74 24.56z" fill="#E1E1E1"/><path d="M22.073 22.285l20.988-3.707 22.188-3.92s-4.73-12.77-24.41-8.66c-19.68 4.11-18.765 16.287-18.765 16.287z" opacity=".632" fill="#fff"/><path d="M.376 35.447l44.8-7.914 47.362-8.366s-7.25-11.147-49.39-3.125C1.005 24.065.375 35.447.375 35.447z" fill="#3E8FDF"/><path d="M.39 35.518l40.36-7.13 42.666-7.536s-6.087-7.53-44.072-.42C1.358 27.542.39 35.518.39 35.518z" fill="#256FB8"/><path d="M.376 35.447s13.577-3.843 45.834-9.54c32.256-5.7 46.328-6.74 46.328-6.74s-.75 14.776-43.572 22.34C6.143 49.072.376 35.447.376 35.447z" id="Path-130" fill="#144A80"/><path d="M24.795 43.373s6.68-2.7 22.947-5.575C63.855 34.952 71.054 35.2 71.054 35.2s-.474 6.862-21.89 10.645c-21.572 3.81-24.37-2.472-24.37-2.472z" fill="#062E55"/><path d="M25.565 43.212s5.15-2.406 18.193-4.71c12.918-2.282 18.314-2.668 18.314-2.668s.018 6.22-17.15 9.253c-17.294 3.055-19.357-1.875-19.357-1.875z" fill="#0B3966"/></g></g></g></g></g></svg>