<svg width="1881" height="956" viewBox="0 0 1881 956" xmlns="http://www.w3.org/2000/svg"><title>A002_melkweg</title><desc>Created with Sketch.</desc><defs><filter x="-50%" y="-50%" width="200%" height="200%" filterUnits="objectBoundingBox" id="a"><feMorphology radius="31" in="SourceAlpha" operator="dilate" result="shadowSpreadOuter1"/><feOffset dy="2" in="shadowSpreadOuter1" result="shadowOffsetOuter1"/><feGaussianBlur in="shadowOffsetOuter1" result="shadowBlurOuter1"/><feColorMatrix values="0 0 0 0 1 0 0 0 0 1 0 0 0 0 1 0 0 0 0.35 0" in="shadowBlurOuter1" result="shadowMatrixOuter1"/><feMerge><feMergeNode in="shadowMatrixOuter1"/><feMergeNode in="SourceGraphic"/></feMerge><feGaussianBlur stdDeviation="29.966" in="SourceGraphic" result="blur"/></filter><filter x="-50%" y="-50%" width="200%" height="200%" filterUnits="objectBoundingBox" id="b"><feGaussianBlur stdDeviation="50" in="SourceGraphic" result="blur"/></filter><filter x="-50%" y="-50%" width="200%" height="200%" filterUnits="objectBoundingBox" id="c"><feMorphology radius="31" in="SourceAlpha" operator="dilate" result="shadowSpreadOuter1"/><feOffset dy="2" in="shadowSpreadOuter1" result="shadowOffsetOuter1"/><feGaussianBlur in="shadowOffsetOuter1" result="shadowBlurOuter1"/><feColorMatrix values="0 0 0 0 0.0490266969 0 0 0 0 0.0626063738 0 0 0 0 0.592952806 0 0 0 0.35 0" in="shadowBlurOuter1" result="shadowMatrixOuter1"/><feMerge><feMergeNode in="shadowMatrixOuter1"/><feMergeNode in="SourceGraphic"/></feMerge><feGaussianBlur stdDeviation="29.966" in="SourceGraphic" result="blur"/></filter><filter x="-50%" y="-50%" width="200%" height="200%" filterUnits="objectBoundingBox" id="d"><feMorphology radius="31" in="SourceAlpha" operator="dilate" result="shadowSpreadOuter1"/><feOffset dy="2" in="shadowSpreadOuter1" result="shadowOffsetOuter1"/><feGaussianBlur in="shadowOffsetOuter1" result="shadowBlurOuter1"/><feColorMatrix values="0 0 0 0 0.145098039 0 0 0 0 0.435294118 0 0 0 0 0.717647059 0 0 0 0.7 0" in="shadowBlurOuter1" result="shadowMatrixOuter1"/><feMerge><feMergeNode in="shadowMatrixOuter1"/><feMergeNode in="SourceGraphic"/></feMerge><feGaussianBlur stdDeviation="29.966" in="SourceGraphic" result="blur"/></filter><filter x="-50%" y="-50%" width="200%" height="200%" filterUnits="objectBoundingBox" id="e"><feMorphology radius="31" in="SourceAlpha" operator="dilate" result="shadowSpreadOuter1"/><feOffset dy="2" in="shadowSpreadOuter1" result="shadowOffsetOuter1"/><feGaussianBlur in="shadowOffsetOuter1" result="shadowBlurOuter1"/><feColorMatrix values="0 0 0 0 1 0 0 0 0 1 0 0 0 0 1 0 0 0 0.35 0" in="shadowBlurOuter1" result="shadowMatrixOuter1"/><feMerge><feMergeNode in="shadowMatrixOuter1"/><feMergeNode in="SourceGraphic"/></feMerge><feGaussianBlur stdDeviation="29.966" in="SourceGraphic" result="blur"/></filter><filter x="-50%" y="-50%" width="200%" height="200%" filterUnits="objectBoundingBox" id="f"><feMorphology radius="38" in="SourceAlpha" operator="dilate" result="shadowSpreadOuter1"/><feOffset dy="-10" in="shadowSpreadOuter1" result="shadowOffsetOuter1"/><feGaussianBlur in="shadowOffsetOuter1" result="shadowBlurOuter1"/><feColorMatrix values="0 0 0 0 0.243137255 0 0 0 0 0.372457108 0 0 0 0 0.874509804 0 0 0 0.352595675 0" in="shadowBlurOuter1" result="shadowMatrixOuter1"/><feMerge><feMergeNode in="shadowMatrixOuter1"/><feMergeNode in="SourceGraphic"/></feMerge><feGaussianBlur stdDeviation="29.966" in="SourceGraphic" result="blur"/></filter><filter x="-50%" y="-50%" width="200%" height="200%" filterUnits="objectBoundingBox" id="g"><feGaussianBlur stdDeviation="50" in="SourceGraphic" result="blur"/></filter></defs><g fill="none" fill-rule="evenodd"><path d="M628.856 391.768c43.708-12.708 101.992-12.937 169.827-3.21 67.834 9.732 146.25 31.843 206.442 60.322 60.198 28.48 94.445 56.817 106.776 84.035 12.328 27.213-3.35 52.405-47.06 65.112-43.706 12.702-101.99 12.938-169.824 3.205-67.835-9.726-146.25-31.843-206.448-60.322-60.2-28.48-94.446-56.817-106.77-84.03-12.326-27.218 3.35-52.41 47.06-65.112" fill="#fff" filter="url(#a)" transform="matrix(.999 -.052 .052 .999 65.88 -9.306)"/><path d="M805.775 797.768c444.664 95.027 834.712 32.164 871.197-140.41 36.484-172.57-294.41-389.503-739.076-484.53C493.232 77.802 103.184 140.665 66.7 313.238 30.214 485.81 361.11 702.74 805.774 797.768z" fill-opacity=".72" fill="#005066" filter="url(#b)" transform="matrix(.999 -.052 .052 .999 65.88 -9.306)"/><path d="M396.42 166.644C105.844 186.6 26.693 337.696 239.62 491.646c43.267 31.36 98.316 62.72 155.858 91.23 41.458 19.96 94.7 39.913 142.05 59.873 49.84 17.1 92.89 28.506 139.33 42.76 67.523 17.106 131.64 31.36 198.254 42.763 57.324 8.555 113.746 11.406 173.562 17.11 50.53 2.845 88.372 0 132.104-2.852 31.955-2.85 54.614-8.554 77.278-14.257 39.43-11.405 69.572-25.657 96.32-42.765 9.973-11.4 19.953-22.807 24.036-34.213 7.264-28.51 2.746-57.017-26.246-91.23-51.18-62.72-161.278-125.44-307.41-173.91-124.156-39.907-263.27-62.72-371.814-59.867-181.728 5.704-225.277 102.635-39.968 193.864 38.065 17.11 85.408 37.063 136.846 45.618 106.264 19.954 195.32 5.703 226.15-22.806 8.383-2.85 28.555-5.703 18.357-14.257-20.414 57.015-205.764 39.912-355.29-11.408-78.615-31.36-111-68.424-118.918-99.784-9.51-22.807 8.852-37.06 23.816-54.167 24.25-14.253 61.19-22.807 104.92-25.66 55.516-2.85 111.938 0 175.153 8.556 87.69 14.252 173.78 37.064 258.287 68.424 25.374 11.4 53.24 19.954 72.724 31.36 93.11 48.463 160.16 99.784 182.57 148.247 21.505 42.768-.034 74.128-42.647 102.636-19.265 8.555-32.64 17.11-55.297 22.806-182.888 54.172-554.703-5.697-814.327-119.738-76.12-34.21-134.568-68.423-184.627-105.486-132.294-91.233-170.316-182.46-97.78-245.18 36.72-28.51 95.417-48.47 157.277-67.505 48.483-11.652 76.23-15.17 76.23-15.17" fill="#0023B6" filter="url(#c)" transform="matrix(.999 -.052 .052 .999 65.88 -9.306)"/><path d="M767.163 512.996c-80.23-61.265-6.57-98.322 135.044-78.368 69.107 8.555 141.83 39.915 190.99 71.275 39.866 28.51 64.55 54.166 65.677 79.823 2.71 17.11-13.156 28.515-29.028 39.915-30.14 14.26-67.08 22.814-116.703 25.66-105.145 5.703-234.974-14.25-355.73-51.315-133.448-42.766-236.75-99.783-290.42-159.652-14.5-17.107-25.592-31.36-30.8-45.616C278.468 272.124 520.27 217.96 819.58 266.422c251.27 42.766 504.784 136.846 630.502 242.332 74.744 62.72 123.43 128.293 120.686 185.31 57.612-119.738-229.85-316.453-612.074-404.836-48.94-11.4-97.874-22.806-145.913-28.51-53.922-5.702-111.245-14.25-167.67-17.102-44.64-2.85-88.37 0-126.21 2.85-52.122 5.704-94.952 14.253-130.984 28.51-41.023 19.954-66.868 42.766-76.625 74.126-4.772 25.658 8.137 51.315 30.33 79.823 17.89 19.955 39.178 42.766 68.853 62.72 55.95 37.064 123.69 74.127 210.69 102.636 55.733 17.11 105.574 34.214 160.406 45.62 70.007 14.25 123.937 19.954 186.25 22.806 56.417 2.85 93.357-5.703 133.695-11.406 20.167-2.847 27.65-11.4 41.924-14.25 93.826-39.917 25.44-136.85-163.736-196.718-65.024-19.96-131.638-31.36-188.06-34.21-23.566 0-46.23 5.703-57.27 14.44-43.02 52.746 32.79 92.436 32.79 92.436" fill="#256FB7" filter="url(#d)" transform="matrix(.999 -.052 .052 .999 65.88 -9.306)"/><path d="M804.486 437.527c60.098 19.907 139.397 37.016 184.254 59.822 71.134 39.91 51.397 82.67 1.992 105.483-10.882 5.703-37.847 2.85-55.52 2.85-55.516 2.853-128.022-8.553-201.43-25.662-58.225-14.25-111.466-34.204-156.323-57.016-156.545-76.97-175.99-162.504-79.67-205.264 88.84-34.21 239.52-31.36 409.907 2.847 48.94 11.406 88.59 19.96 135.032 34.21 189.18 59.876 340.735 142.55 394.624 222.38 36.003 59.87 38.247 111.183-23.63 148.246-104.49 65.572-321.567 71.275-566.952 28.51-197.345-37.064-384.033-99.785-543.067-173.91C587.33 733.977 1076.51 828.058 1323.295 768.19c59.6-14.26 100.62-34.214 128.96-59.87 27.43-31.36 33.792-65.57 12.282-108.34-30.112-59.867-113.246-119.736-228.33-176.76-82.91-39.91-179.2-71.274-280.48-96.93-39.65-8.55-73.407-17.103-109.657-22.806-190.55-31.36-353.703-19.954-412.87 34.21-47.38 54.167 4.02 136.848 171.44 208.123 69.326 28.508 143.634 51.314 216.14 62.72 26.965 2.85 51.433 8.548 74.998 8.548 68.205 2.852 129.61 0 162.25-17.103 18.363-14.257 24.938-28.508 18.83-48.468-4.302-8.55-14.494-17.103-29.594-25.964-136.687-77.73-242.78-88.022-242.78-88.022" fill="#9F00FF" filter="url(#e)" transform="matrix(.999 -.052 .052 .999 65.88 -9.306)"/><path d="M1641.783 598.68c-80.2-129.84-393.283-283.79-725.666-355.064-85.19-17.11-157.697-28.51-235.193-34.212C615.217 203.702 555.4 198 505.772 200.85 420.8 203.702 355.31 217.96 302.5 237.913c-38.525 17.103-61.873 37.063-81.827 59.87-63.716 99.782 129.046 256.583 438.076 347.812 52.34 14.257 101.28 25.663 156.11 37.063 66.61 11.406 123.93 19.96 186.245 22.812h82.48c148.877-8.555 220.73-57.018 198.1-125.447-19.92-51.314-105.546-108.332-224.712-153.95-156.323-57.016-355.26-85.525-418.728-39.914-46.006 25.66-26.995 71.272 39.148 116.89 19.483 11.4 38.966 22.805 58.45 34.21-92.426-62.72-112.562-133.994-16.02-156.8 45.323-11.405 120.322-2.85 199.62 14.252 33.758 8.554 61.625 17.11 98.782 28.51 40.557 14.256 78.616 31.36 116.674 48.467 41.46 19.955 74.533 42.76 95.825 65.572 45.976 48.463 46.406 88.378 7.193 119.738-47.6 34.213-140.06 45.62-258.79 39.916-44.64-2.85-92.672-8.554-134.813-14.257-81.797-14.25-167.895-37.065-245.603-62.72C480.45 580.022 387.34 531.56 320.29 480.245c-46.66-34.212-72.252-65.572-86.056-96.932-15.618-42.766-12.655-79.83 26.56-111.19 102.68-76.977 348.313-88.377 637.647-28.508 304.52 62.72 559.15 182.458 691.81 304.53 38.19 34.216 51.53 50.535 51.53 50.535" fill="#B6BEEB" filter="url(#f)" transform="matrix(.999 -.052 .052 .999 65.88 -9.306)"/><path d="M846.704 656.118c174.362 46.696 329.07 5.364 345.55-92.317 16.478-97.68-111.512-214.72-285.874-261.414-174.362-46.696-329.07-5.364-345.55 92.317-16.478 97.682 111.512 214.722 285.874 261.418z" fill-opacity=".41" fill="#C0DEE5" filter="url(#g)" transform="matrix(.999 -.052 .052 .999 65.88 -9.306)"/><g transform="matrix(.999 -.052 .052 .999 124.636 59.188)" fill="#fff" opacity=".606"><ellipse id="Oval-1185" cx="745.756" cy="672.294" rx="3.896" ry="3.896"/><ellipse id="Oval-1185" cx="601.057" cy="650.033" rx="3.896" ry="3.896"/><ellipse id="Oval-1185" cx="536.499" cy="585.474" rx="3.896" ry="3.896"/><ellipse id="Oval-1185" cx="628.328" cy="631.11" rx="3.896" ry="3.896"/><ellipse id="Oval-1185" cx="306.094" cy="421.853" rx="3.896" ry="3.896"/><ellipse id="Oval-1185" cx="856.507" cy="456.46" rx="3.896" ry="3.896"/><ellipse id="Oval-1185" cx="981.588" cy="443.382" rx="3.896" ry="3.896"/><ellipse id="Oval-1185" cx="136.351" cy="472.22" rx="3.896" ry="3.896"/><path d="M800.518 94.582c2.135.262 4.08-1.257 4.34-3.392.263-2.136-1.255-4.08-3.39-4.342-2.136-.262-4.08 1.257-4.342 3.392-.262 2.136 1.256 4.08 3.392 4.342z" id="Oval-1185"/><ellipse id="Oval-1185" cx="777.201" cy="646.693" rx="3.896" ry="3.896"/><ellipse id="Oval-1185" cx="777.201" cy="746.87" rx="3.896" ry="3.896"/><ellipse id="Oval-1185" cx="353.4" cy="546.517" rx="3.896" ry="3.896"/><ellipse id="Oval-1185" cx="447.454" cy="113.95" rx="3.896" ry="3.896"/><ellipse id="Oval-1185" cx="215.935" cy="404.879" rx="3.896" ry="3.896"/><ellipse id="Oval-1185" cx="525.925" cy="655.598" rx="3.896" ry="3.896"/><ellipse id="Oval-1185" cx="329.608" cy="98.507" rx="3.896" ry="3.896"/><ellipse id="Oval-1185" cx="817.549" cy="422.271" rx="3.896" ry="3.896"/><ellipse id="Oval-1185" cx="560.987" cy="569.335" rx="3.896" ry="3.896"/><ellipse id="Oval-1185" cx="894.63" cy="711.808" rx="3.896" ry="3.896"/><path d="M1202.656 592.43c2.134.263 4.077-1.254 4.34-3.386.26-2.133-1.257-4.074-3.39-4.336-2.135-.262-4.078 1.255-4.34 3.387-.262 2.133 1.256 4.074 3.39 4.336z" id="Oval-1185"/><ellipse id="Oval-1185" cx="920.926" cy="350.44" rx="3.896" ry="3.896"/><ellipse id="Oval-1185" cx="513.125" cy="528.43" rx="3.896" ry="3.896"/><ellipse id="Oval-1185" cx="210.509" cy="38.401" rx="3.896" ry="3.896"/><ellipse id="Oval-1185" cx="359.8" cy="209.535" rx="3.896" ry="3.896"/><ellipse id="Oval-1185" cx="198.683" cy="334.199" rx="3.896" ry="3.896"/><ellipse id="Oval-1185" cx="321.677" cy="614.971" rx="1.948" ry="1.948"/><ellipse id="Oval-1185" cx="246.127" cy="137.464" rx="1.948" ry="1.948"/><ellipse id="Oval-1185" cx="112.142" cy="279.102" rx="1.948" ry="1.948"/><ellipse id="Oval-1185" cx="410.723" cy="468.046" rx="1.948" ry="1.948"/><ellipse id="Oval-1185" cx="351.869" cy="106.298" rx="1.948" ry="1.948"/><ellipse id="Oval-1185" cx="217.883" cy="247.936" rx="1.948" ry="1.948"/><ellipse id="Oval-1185" cx="484.463" cy="585.474" rx="1.948" ry="1.948"/><ellipse id="Oval-1185" cx="655.041" cy="444.839" rx="1.948" ry="1.948"/><ellipse id="Oval-1185" cx="512.29" cy="424.743" rx="1.948" ry="1.948"/><ellipse id="Oval-1185" cx="1177.159" cy="344.597" rx="1.948" ry="1.948"/><ellipse id="Oval-1185" cx="1248.69" cy="406.827" rx="1.948" ry="1.948"/><ellipse id="Oval-1185" cx="1209.647" cy="425.471" rx="1.948" ry="1.948"/><ellipse id="Oval-1185" cx="941.061" cy="629.162" rx="1.948" ry="1.948"/><ellipse id="Oval-1185" cx="374.27" cy="376.217" rx="1.948" ry="1.948"/><ellipse id="Oval-1185" cx="699.871" cy="267.247" rx="1.948" ry="1.948"/><path d="M440.248 410.29c1.067.13 2.038-.628 2.17-1.695.13-1.066-.63-2.037-1.696-2.167-1.067-.13-2.038.627-2.17 1.693-.13 1.07.63 2.04 1.696 2.17z" id="Oval-1185"/><ellipse id="Oval-1185" cx="280.772" cy="437.436" rx="1.948" ry="1.948"/><ellipse id="Oval-1185" cx="900.751" cy="463.872" rx="1.948" ry="1.948"/><path d="M385.743 376.11c1.067.13 2.04-.63 2.17-1.695.13-1.066-.628-2.037-1.695-2.168-1.067-.13-2.038.628-2.17 1.694-.13 1.07.628 2.04 1.695 2.17z" id="Oval-1185"/><ellipse id="Oval-1185" cx="110.055" cy="96.281" rx="1.948" ry="1.948"/><ellipse id="Oval-1185" cx="628.328" cy="591.318" rx="1.948" ry="1.948"/><ellipse id="Oval-1185" cx="634.171" cy="699.286" rx="1.948" ry="1.948"/><ellipse id="Oval-1185" cx="422.688" cy="308.877" rx="1.948" ry="1.948"/><ellipse id="Oval-1185" cx="980.633" cy="774.969" rx="3.896" ry="3.896"/><path d="M595.877 99.455c2.134.262 4.076-1.254 4.338-3.387.262-2.133-1.255-4.074-3.39-4.336-2.133-.26-4.076 1.255-4.338 3.388-.262 2.132 1.256 4.074 3.39 4.335z" id="Oval-1185"/><ellipse id="Oval-1185" cx="1277.823" cy="630.827" rx="3.896" ry="3.896"/><ellipse id="Oval-1185" cx="210.927" cy="179.482" rx="3.896" ry="3.896"/><ellipse id="Oval-1185" cx="447.454" cy="577.126" rx="3.896" ry="3.896"/><ellipse id="Oval-1185" cx="824.506" cy="316.529" rx="3.896" ry="3.896"/><path d="M1101.72 499.233c-1.86 1.074-2.5 3.453-1.424 5.314 1.075 1.86 3.456 2.498 5.318 1.424 1.862-1.07 2.5-3.45 1.425-5.31-1.078-1.86-3.46-2.5-5.32-1.425zm321.437-25.08c-1.862 1.076-2.5 3.455-1.425 5.316 1.075 1.86 3.456 2.495 5.318 1.42 1.862-1.074 2.5-3.453 1.425-5.314-1.075-1.86-3.456-2.498-5.318-1.424zm-86.05 264.817c-1.86 1.075-2.5 3.454-1.424 5.315 1.076 1.86 3.457 2.498 5.32 1.424 1.86-1.078 2.5-3.457 1.424-5.318-1.075-1.86-3.456-2.498-5.32-1.424zm-973.12-461.398c-1.863 1.074-2.5 3.453-1.426 5.314 1.078 1.86 3.46 2.498 5.32 1.424 1.864-1.074 2.5-3.454 1.427-5.314-1.076-1.86-3.457-2.5-5.32-1.424zm284.53 41.924c-.93.537-1.25 1.727-.712 2.657.538.93 1.73 1.25 2.66.712.93-.537 1.25-1.727.712-2.657-.537-.93-1.728-1.25-2.66-.712zm861.248 69.537c-.93.537-1.25 1.726-.712 2.657.537.93 1.728 1.25 2.66.712.93-.537 1.25-1.727.71-2.657-.536-.93-1.727-1.25-2.658-.712zM1209.07 704.406c-.932.537-1.25 1.727-.713 2.657.537.93 1.728 1.25 2.66.712.93-.537 1.25-1.726.71-2.657-.536-.93-1.727-1.25-2.658-.712zM1499.883 482c-.93.538-1.25 1.728-.713 2.658.538.93 1.728 1.25 2.66.712.93-.537 1.25-1.726.712-2.657-.538-.93-1.728-1.25-2.66-.712zm50.367 125.965c-.93.538-1.25 1.727-.713 2.658.538.93 1.728 1.25 2.66.712.93-.537 1.25-1.727.712-2.658-.54-.93-1.73-1.25-2.66-.712zm-455.477 129.17c-1.862 1.073-2.5 3.452-1.425 5.313 1.075 1.86 3.456 2.498 5.318 1.424 1.862-1.074 2.5-3.454 1.425-5.314-1.072-1.86-3.453-2.5-5.315-1.424zM1365.42 512.94c-1.863 1.075-2.5 3.454-1.426 5.315 1.075 1.86 3.456 2.498 5.318 1.424 1.862-1.073 2.5-3.453 1.425-5.314-1.075-1.86-3.456-2.498-5.318-1.424zm-287.547-341.93c-2.15 0-3.893 1.74-3.893 3.89 0 2.15 1.743 3.89 3.893 3.89 2.15 0 3.893-1.74 3.893-3.89 0-2.15-1.743-3.89-3.893-3.89zM313.4 40.85c-1.074 0-1.946.87-1.946 1.945 0 1.074.872 1.945 1.947 1.945 1.078 0 1.95-.87 1.95-1.945 0-1.074-.87-1.945-1.947-1.945z" id="Oval-1185"/><ellipse id="Oval-1185" cx="500.603" cy="46.053" rx="1.948" ry="1.948"/><ellipse id="Oval-1185" cx="414.618" cy="567.387" rx="1.948" ry="1.948"/><ellipse id="Oval-1185" cx="716.538" cy="33.169" rx="1.948" ry="1.948"/><ellipse id="Oval-1185" cx="351.452" cy="579.074" rx="1.948" ry="1.948"/><path d="M832.485 147.545c1.067.13 2.04-.628 2.17-1.694.13-1.063-.628-2.034-1.695-2.165-1.067-.13-2.038.628-2.17 1.694-.13 1.065.628 2.036 1.695 2.167z" id="Oval-1185"/><ellipse id="Oval-1185" cx="875.986" cy="674.52" rx="1.948" ry="1.948"/><path d="M752.12 131.15c1.066.13 2.037-.628 2.168-1.694.13-1.067-.627-2.037-1.694-2.168-1.067-.13-2.04.627-2.17 1.693-.13 1.07.628 2.04 1.695 2.17z" id="Oval-1185"/><ellipse id="Oval-1185" cx="603.005" cy="450.654" rx="1.948" ry="1.948"/><ellipse id="Oval-1185" cx="405.714" cy="114.09" rx="1.948" ry="1.948"/><ellipse id="Oval-1185" cx="447.454" cy="240.145" rx="1.948" ry="1.948"/><ellipse id="Oval-1185" cx="1308.368" cy="585.78" rx="1.948" ry="1.948"/><ellipse id="Oval-1185" cx="1217.439" cy="546.517" rx="1.948" ry="1.948"/><ellipse id="Oval-1185" cx="1138.65" cy="636.045" rx="1.948" ry="1.948"/><ellipse id="Oval-1185" cx="636.119" cy="483.944" rx="1.948" ry="1.948"/><ellipse id="Oval-1185" cx="587.672" cy="492.533" rx="1.948" ry="1.948"/><ellipse id="Oval-1185" cx="591.29" cy="202.689" rx="1.948" ry="1.948"/><ellipse id="Oval-1185" cx="537.472" cy="278.308" rx="1.948" ry="1.948"/><ellipse id="Oval-1185" cx="1050.782" cy="348.493" rx="1.948" ry="1.948"/><ellipse id="Oval-1185" cx="795.566" cy="452.602" rx="1.948" ry="1.948"/><ellipse id="Oval-1185" cx="173.639" cy="270.476" rx="1.948" ry="1.948"/><ellipse id="Oval-1185" cx="160.56" cy="213.431" rx="1.948" ry="1.948"/><ellipse id="Oval-1185" cx="143.308" cy="295.798" rx="1.948" ry="1.948"/><path d="M877.813 56.12c1.067.13 2.038-.628 2.17-1.695.13-1.066-.628-2.036-1.695-2.167-1.068-.13-2.04.627-2.17 1.693-.13 1.07.628 2.04 1.695 2.17zM785.49 23.328c1.066.13 2.037-.627 2.17-1.693.13-1.067-.63-2.037-1.696-2.168-1.067-.13-2.04.627-2.17 1.693-.13 1.067.628 2.037 1.695 2.168z" id="Oval-1185"/><ellipse id="Oval-1185" cx="124.386" cy="325.573" rx="1.948" ry="1.948"/><ellipse id="Oval-1185" cx="249.606" cy="539.839" rx="1.948" ry="1.948"/><path d="M642.554 103.36c1.067.13 2.038-.627 2.17-1.693.13-1.067-.628-2.037-1.696-2.168-1.067-.134-2.038.624-2.17 1.69-.13 1.067.63 2.037 1.696 2.168z" id="Oval-1185"/><ellipse id="Oval-1185" cx="969.066" cy="406.929" rx="1.948" ry="1.948"/><ellipse id="Oval-1185" cx="562.657" cy="151.377" rx="1.948" ry="1.948"/><ellipse id="Oval-1185" cx="311.938" cy="456.358" rx="1.948" ry="1.948"/><ellipse id="Oval-1185" cx="174.474" cy="314.72" rx="1.948" ry="1.948"/><path d="M688.16 105.306c1.067.13 2.038-.628 2.17-1.694.13-1.066-.63-2.037-1.696-2.168-1.067-.13-2.038.627-2.17 1.694-.13 1.066.63 2.037 1.696 2.168z" id="Oval-1185"/><ellipse id="Oval-1185" cx="92.663" cy="172.804" rx="1.948" ry="1.948"/><ellipse id="Oval-1185" cx="709.025" cy="642.241" rx="1.948" ry="1.948"/><ellipse id="Oval-1185" cx="675.077" cy="740.469" rx="1.948" ry="1.948"/><ellipse id="Oval-1185" cx="527.873" cy="606.345" rx="1.948" ry="1.948"/><circle id="Oval-1185" cx="944.358" cy="504.925" r="1.948"/><ellipse id="Oval-1185" cx="662.555" cy="636.954" rx="1.948" ry="1.948"/><ellipse id="Oval-1185" cx="840.089" cy="682.312" rx="3.896" ry="3.896"/><path d="M788.31 127.244c2.135.262 4.077-1.254 4.34-3.387.262-2.133-1.256-4.074-3.39-4.336-2.134-.26-4.077 1.258-4.34 3.39-.26 2.13 1.257 4.074 3.39 4.336z" id="Oval-1185"/><ellipse id="Oval-1185" cx="764.4" cy="678.416" rx="3.896" ry="3.896"/><ellipse id="Oval-1185" cx="100.733" cy="366.478" rx="3.896" ry="3.896"/><path d="M925.17 103.79c2.134.263 4.076-1.254 4.338-3.386.262-2.133-1.255-4.074-3.39-4.336-2.134-.262-4.076 1.255-4.338 3.387-.262 2.133 1.255 4.074 3.39 4.336z" id="Oval-1185"/><ellipse id="Oval-1185" cx="274.928" cy="468.046" rx="3.896" ry="3.896"/><ellipse id="Oval-1185" cx="23.096" cy="196.735" rx="3.896" ry="3.896"/><ellipse id="Oval-1185" cx="250.997" cy="365.365" rx="3.896" ry="3.896"/><path d="M1571.575 579.357c-1.862 1.074-2.5 3.454-1.425 5.314 1.075 1.864 3.456 2.5 5.318 1.427 1.862-1.074 2.5-3.453 1.425-5.314-1.075-1.86-3.456-2.497-5.318-1.423zm-101.717-73.767c-1.862 1.075-2.5 3.454-1.425 5.315 1.075 1.86 3.456 2.498 5.318 1.424 1.865-1.077 2.5-3.457 1.428-5.318-1.075-1.86-3.456-2.498-5.318-1.424zm-278.39 252.034c-1.863 1.075-2.5 3.454-1.426 5.315 1.075 1.86 3.456 2.495 5.32 1.42 1.86-1.073 2.5-3.453 1.424-5.314-1.076-1.86-3.457-2.498-5.32-1.424zm12.758-92.11c-1.862 1.073-2.5 3.453-1.425 5.314 1.078 1.86 3.46 2.498 5.32 1.424 1.86-1.075 2.5-3.454 1.426-5.315-1.075-1.86-3.456-2.498-5.318-1.424zm133.07-409.84c-1.862 1.075-2.5 3.454-1.425 5.315 1.078 1.86 3.46 2.495 5.32 1.42 1.86-1.074 2.5-3.453 1.426-5.314-1.075-1.86-3.456-2.498-5.318-1.424zm-79.034 123.666c-1.862 1.075-2.5 3.454-1.425 5.315 1.075 1.86 3.457 2.5 5.32 1.424 1.86-1.077 2.5-3.456 1.424-5.317-1.072-1.86-3.454-2.5-5.316-1.424zm222.84 192.1c-1.862 1.075-2.5 3.454-1.425 5.315 1.075 1.86 3.456 2.498 5.318 1.424 1.862-1.078 2.5-3.457 1.425-5.318-1.075-1.86-3.456-2.498-5.318-1.424zm-410.31-286.487c-1.862 1.074-2.5 3.454-1.425 5.314 1.075 1.86 3.456 2.5 5.318 1.424 1.862-1.07 2.5-3.45 1.425-5.31-1.075-1.86-3.456-2.5-5.318-1.425zm-405.938 49.583c-1.862 1.075-2.5 3.454-1.425 5.315 1.072 1.864 3.453 2.5 5.316 1.427 1.862-1.075 2.5-3.454 1.425-5.315-1.075-1.86-3.456-2.497-5.32-1.423zm200.424-73.438c-1.862 1.075-2.5 3.454-1.425 5.315 1.075 1.86 3.456 2.498 5.318 1.424 1.865-1.075 2.5-3.454 1.428-5.315-1.075-1.86-3.456-2.498-5.318-1.424zm525.774 71.637c-.93.537-1.25 1.726-.713 2.657.535.93 1.725 1.25 2.656.712.93-.537 1.25-1.727.713-2.657-.538-.93-1.728-1.25-2.66-.712zm56.67 355.982c-.93.537-1.25 1.726-.71 2.657.537.93 1.73 1.25 2.66.712.93-.537 1.25-1.727.71-2.657-.536-.934-1.727-1.25-2.66-.715zM1413.73 379.35c-.93.538-1.25 1.727-.713 2.658.538.93 1.728 1.25 2.66.712.93-.537 1.25-1.727.712-2.658-.54-.93-1.73-1.25-2.66-.712zm-284.7 367.44c-.93.538-1.25 1.728-.712 2.658.537.93 1.728 1.25 2.66.712.93-.537 1.25-1.727.71-2.657-.536-.93-1.727-1.25-2.658-.712zm-185.79-18.62c-.932.536-1.25 1.726-.713 2.656.537.93 1.728 1.25 2.66.712.93-.537 1.25-1.726.712-2.657-.54-.93-1.73-1.246-2.66-.71zm669.785-151.05c-.93.537-1.25 1.727-.712 2.657.537.93 1.728 1.25 2.66.712.93-.54 1.25-1.73.71-2.66-.536-.93-1.727-1.25-2.658-.71zm-612.565-44.37c-.93.537-1.25 1.727-.712 2.657.538.93 1.728 1.25 2.66.712.93-.54 1.25-1.73.712-2.66-.538-.93-1.728-1.25-2.66-.71zm158.943 202.043c-.93.537-1.25 1.727-.713 2.657.538.93 1.728 1.25 2.66.712.93-.537 1.25-1.727.712-2.657-.538-.93-1.728-1.25-2.66-.712zm308.233-376.773c-.93.538-1.25 1.727-.712 2.658.537.93 1.728 1.25 2.66.712.93-.537 1.25-1.727.71-2.657-.536-.93-1.727-1.25-2.658-.712zm-118.492 322.916c-.93.537-1.25 1.727-.712 2.657.537.93 1.728 1.25 2.66.712.93-.537 1.25-1.726.71-2.657-.536-.93-1.727-1.25-2.658-.712zm104.266-157.4c-.932.537-1.25 1.726-.714 2.657.538.93 1.728 1.25 2.66.712.93-.538 1.25-1.727.712-2.658-.538-.93-1.728-1.25-2.66-.712zm-90.174-164.333c-.93.537-1.25 1.727-.712 2.657.537.93 1.728 1.25 2.66.712.93-.537 1.25-1.726.71-2.657-.536-.93-1.727-1.25-2.658-.712zm77.524 61.733c-.932.537-1.25 1.727-.714 2.657.538.93 1.728 1.25 2.66.712.93-.537 1.25-1.727.712-2.657-.538-.93-1.728-1.25-2.66-.712zm-41.95 229.614c-.93.536-1.25 1.726-.712 2.657.538.93 1.728 1.25 2.66.712.93-.54 1.25-1.73.712-2.66-.538-.93-1.728-1.25-2.66-.71zm126.958-83.02c-.93.536-1.25 1.726-.713 2.656.538.93 1.728 1.25 2.66.712.93-.537 1.25-1.727.712-2.657-.538-.93-1.728-1.246-2.66-.71zm-452.25-136.905c-.93.537-1.25 1.727-.713 2.657.538.93 1.728 1.25 2.66.712.93-.537 1.25-1.727.712-2.657-.538-.93-1.728-1.25-2.66-.712zm513.16 176.537c-.93.538-1.25 1.727-.713 2.658.537.93 1.728 1.25 2.66.712.93-.537 1.25-1.727.71-2.658-.536-.93-1.727-1.25-2.658-.712zm-11.036-112.898c-.93.537-1.25 1.727-.712 2.657.537.934 1.728 1.25 2.66.715.93-.537 1.25-1.726.712-2.657-.538-.93-1.73-1.25-2.66-.712zm-58.346 27.626c-.93.537-1.25 1.726-.712 2.657.537.93 1.728 1.25 2.66.712.93-.54 1.25-1.73.71-2.66-.536-.93-1.727-1.25-2.658-.71zm-249.103 243.58c-.93.538-1.25 1.728-.712 2.658.54.93 1.73 1.25 2.66.712.93-.537 1.25-1.726.714-2.657-.537-.93-1.728-1.25-2.66-.712zm417.027-131.864c-.93.537-1.25 1.726-.712 2.657.538.93 1.73 1.25 2.66.712.933-.537 1.252-1.727.714-2.657-.538-.93-1.73-1.25-2.66-.712zm-179.165-215.038c-.93.537-1.25 1.727-.713 2.657.538.93 1.73 1.25 2.66.712.933-.537 1.252-1.726.714-2.657-.538-.93-1.73-1.25-2.66-.712zm107.925 23.434c-.932.538-1.252 1.727-.714 2.658.538.93 1.73 1.25 2.66.712.933-.538 1.252-1.727.714-2.658-.538-.93-1.73-1.25-2.66-.712zm-56.723 263.432c-.932.537-1.25 1.727-.713 2.657.538.93 1.73 1.25 2.66.715.932-.537 1.25-1.727.714-2.657-.538-.93-1.73-1.25-2.66-.712zM944.632 691.23c-1.863 1.076-2.502 3.455-1.426 5.316 1.076 1.86 3.46 2.498 5.322 1.424 1.863-1.075 2.502-3.454 1.426-5.315-1.076-1.86-3.46-2.498-5.322-1.424zm-361.82-351.304c-1.863 1.074-2.502 3.453-1.426 5.314 1.076 1.86 3.458 2.5 5.322 1.424 1.863-1.074 2.5-3.453 1.426-5.314-1.076-1.86-3.46-2.5-5.322-1.424zm716.635 389.014c-1.864 1.075-2.502 3.455-1.426 5.315 1.08 1.86 3.46 2.5 5.324 1.424 1.864-1.077 2.502-3.456 1.426-5.317-1.076-1.86-3.46-2.498-5.32-1.424zm231.843-283.47c-1.864 1.075-2.503 3.455-1.427 5.315 1.076 1.86 3.46 2.5 5.322 1.424 1.863-1.077 2.502-3.456 1.426-5.317-1.073-1.86-3.456-2.498-5.32-1.424zm-41.977 229.614c-1.863 1.074-2.502 3.454-1.426 5.315 1.076 1.86 3.46 2.495 5.322 1.42 1.86-1.074 2.5-3.453 1.423-5.314-1.076-1.86-3.46-2.498-5.322-1.424zM909.58 718.512c-1.862 1.075-2.5 3.454-1.425 5.315 1.076 1.86 3.46 2.498 5.322 1.424 1.863-1.072 2.502-3.45 1.426-5.312-1.076-1.86-3.46-2.498-5.322-1.424zm86.152-31.19c-1.863 1.075-2.502 3.454-1.426 5.315 1.076 1.86 3.458 2.498 5.322 1.424 1.863-1.07 2.5-3.45 1.426-5.312-1.076-1.86-3.46-2.498-5.322-1.424zm375.78-35.235c-1.863 1.074-2.502 3.454-1.426 5.314 1.076 1.864 3.458 2.5 5.322 1.427 1.863-1.074 2.5-3.453 1.426-5.314-1.076-1.86-3.46-2.497-5.322-1.423zM961.154 129.885c-2.15 0-3.895 1.742-3.895 3.89 0 2.15 1.74 3.89 3.892 3.89s3.896-1.74 3.896-3.89c0-2.148-1.745-3.89-3.897-3.89zM403.35 529.935c-2.153 0-3.897 1.742-3.897 3.89 0 2.15 1.744 3.89 3.896 3.89 2.15 0 3.892-1.74 3.892-3.89 0-2.148-1.744-3.89-3.895-3.89zm793.22-347.807c-2.153 0-3.897 1.742-3.897 3.89 0 2.15 1.744 3.89 3.896 3.89 2.15 0 3.892-1.74 3.892-3.89 0-2.148-1.744-3.89-3.895-3.89zm66.783 115.602c-2.152 0-3.896 1.742-3.896 3.89 0 2.15 1.744 3.89 3.896 3.89 2.15 0 3.895-1.74 3.895-3.89 0-2.148-1.744-3.89-3.895-3.89zm-184.77-85.034c-1.076 0-1.948.87-1.948 1.945 0 1.077.872 1.948 1.948 1.948s1.948-.87 1.948-1.945c0-1.073-.87-1.944-1.945-1.944zM1047.14 54.3c-1.077 0-1.95.87-1.95 1.944 0 1.075.873 1.946 1.95 1.946 1.075 0 1.947-.87 1.947-1.946 0-1.074-.872-1.945-1.948-1.945z" id="Oval-1185"/><g transform="translate(90.159)" id="Oval-1185"><ellipse cx="779.983" cy="727.947" rx="3.896" ry="3.896"/><circle cx="64.001" cy="172.247" r="3.896"/><circle cx="420.184" cy="619.98" r="3.896"/><circle cx="353.4" cy="604.397" r="3.896"/><circle cx="204.387" cy="184.77" r="3.896"/><path d="M371.012 381.336c2.136.263 4.08-1.256 4.342-3.392.262-2.135-1.257-4.08-3.392-4.34-2.136-.263-4.08 1.255-4.342 3.39-.262 2.136 1.257 4.08 3.392 4.342z"/><circle cx="160.839" cy="318.616" r="3.896"/><circle cx="77.358" cy="392.913" r="3.896"/><circle cx="245.988" cy="475.837" r="3.896"/><path d="M436.266 52.563c2.135.263 4.08-1.256 4.34-3.39.264-2.137-1.255-4.08-3.39-4.343-2.136-.262-4.08 1.256-4.342 3.392-.262 2.136 1.256 4.08 3.392 4.34z"/><ellipse cx="53.149" cy="255.728" rx="3.896" ry="3.896"/><circle cx="304.703" cy="77.219" r="1.948"/><path d="M393.51 387.194c1.07.132 2.04-.628 2.172-1.695.13-1.07-.63-2.04-1.696-2.174-1.068-.13-2.04.628-2.17 1.696-.132 1.068.627 2.04 1.695 2.17zM346.345 21.412c1.067.13 2.04-.628 2.17-1.696.13-1.068-.628-2.04-1.696-2.17-1.07-.132-2.04.628-2.17 1.695-.134 1.07.625 2.04 1.693 2.174z"/><circle cx="615.527" cy="432.01" r="1.948"/><ellipse cx="975.624" cy="673.124" rx="1.948" ry="1.948"/><circle cx="204.526" cy="253.502" r="1.948"/><circle cx="1202.853" cy="488.637" r="1.948"/><circle cx="376.774" cy="327.521" r="1.948"/><circle cx="779.983" cy="293.85" r="1.948"/><circle cx="323.347" cy="665.059" r="1.948"/><circle cx="807.114" cy="379.659" r="1.948"/><path d="M516.644 128.267c1.068.13 2.04-.628 2.17-1.696.132-1.065-.627-2.04-1.695-2.17-1.07-.13-2.04.63-2.174 1.698-.13 1.068.628 2.04 1.696 2.17z"/><ellipse cx="28.94" cy="236.249" rx="1.948" ry="1.948"/><circle cx="661.441" cy="636.954" r="1.948"/><ellipse cx="804.768" cy="606.339" rx="3.896" ry="3.896"/><path d="M541.73 58.407c2.135.262 4.078-1.256 4.34-3.392.263-2.135-1.256-4.08-3.39-4.34-2.137-.264-4.08 1.255-4.343 3.39-.262 2.136 1.257 4.08 3.392 4.342zm113.532 38.958c2.136.262 4.08-1.257 4.342-3.392.262-2.136-1.257-4.08-3.392-4.342-2.136-.26-4.08 1.26-4.342 3.395-.262 2.136 1.257 4.08 3.392 4.342z"/><ellipse cx="105.463" cy="286.894" rx="3.896" ry="3.896"/><path d="M1345.59 381.45c-1.863 1.075-2.5 3.458-1.425 5.32 1.075 1.865 3.458 2.503 5.32 1.427 1.865-1.075 2.503-3.458 1.427-5.32-1.075-1.865-3.458-2.503-5.32-1.427zm-194.328 323.508c-1.863 1.076-2.502 3.458-1.426 5.322 1.076 1.863 3.46 2.5 5.322 1.425 1.863-1.075 2.502-3.458 1.426-5.32-1.076-1.865-3.458-2.503-5.322-1.427zm293.336-56.688c-.932.538-1.25 1.73-.713 2.66.538.932 1.73 1.252 2.66.714.932-.538 1.252-1.73.714-2.66-.54-.933-1.73-1.252-2.664-.714zm-442.426 41.14c-.932.537-1.25 1.728-.713 2.66.535.932 1.726 1.25 2.66.713.93-.538 1.25-1.73.71-2.66-.537-.932-1.73-1.252-2.66-.714zm156.27-28.02c-.93.536-1.25 1.728-.712 2.66.538.93 1.73 1.25 2.66.712.933-.538 1.252-1.73.714-2.66-.538-.932-1.73-1.25-2.66-.713zM1483.9 342.273c-.93.538-1.25 1.73-.712 2.66.538.933 1.73 1.252 2.66.714.933-.538 1.252-1.73.714-2.66-.538-.932-1.73-1.252-2.66-.714zm-254.76 313.502c-1.863 1.076-2.5 3.46-1.426 5.322 1.076 1.863 3.46 2.502 5.322 1.426 1.863-1.076 2.502-3.458 1.426-5.322-1.076-1.86-3.458-2.5-5.322-1.423zm-97.964-438.06c-1.076 0-1.948.873-1.948 1.95s.872 1.947 1.948 1.947 1.948-.872 1.948-1.948-.872-1.948-1.948-1.948z"/><circle cx="772.192" cy="399.972" r="1.948"/><circle cx="102.681" cy="456.358" r="1.948"/><circle cx="2.504" cy="421.853" r="1.948"/><ellipse cx="931.936" cy="741.577" rx="1.948" ry="1.948"/><ellipse cx="727.947" cy="727.947" rx="1.948" ry="1.948"/><circle cx="166.682" cy="400.148" r="1.948"/><circle cx="751.878" cy="207.977" r="1.948"/><circle cx="1105.297" cy="471.941" r="1.948"/><circle cx="731.287" cy="556.256" r="1.948"/><circle cx="235.553" cy="284.111" r="1.948"/><circle cx="595.631" cy="192.561" r="1.948"/><circle cx="138.855" cy="348.947" r="1.948"/><circle cx="122.716" cy="486.69" r="1.948"/><ellipse cx="388.461" cy="281.607" rx="1.948" ry="1.948"/><circle cx="650.867" cy="418.375" r="1.948"/><circle cx="510.899" cy="550.413" r="1.948"/><circle cx="607.179" cy="581.022" r="1.948"/><circle cx="609.127" cy="672.294" r="1.948"/><circle cx="456.915" cy="713.199" r="1.948"/><circle cx="516.742" cy="674.242" r="1.948"/><circle cx="832.437" cy="401.085" r="3.896"/><circle cx="684.538" cy="292.181" r="3.896"/><path d="M1394.147 619.303c-1.863 1.076-2.502 3.458-1.426 5.32 1.08 1.865 3.46 2.503 5.325 1.427 1.863-1.075 2.502-3.458 1.426-5.32-1.076-1.865-3.46-2.503-5.322-1.427zm-396.237-124.3c-1.863 1.076-2.502 3.458-1.426 5.322 1.076 1.863 3.46 2.5 5.322 1.426 1.863-1.073 2.502-3.456 1.426-5.32-1.076-1.862-3.46-2.5-5.322-1.425zm385.195-73.9c-1.864 1.075-2.502 3.457-1.426 5.32 1.072 1.864 3.455 2.5 5.32 1.427 1.862-1.076 2.5-3.46 1.424-5.322-1.075-1.863-3.458-2.502-5.32-1.426zM1167.54 742.47c-.932.538-1.25 1.73-.714 2.66.538.933 1.73 1.252 2.66.714.933-.537 1.252-1.73.714-2.66-.538-.932-1.73-1.25-2.66-.713zm113.874-133.79c-.932.537-1.25 1.728-.713 2.66.54.932 1.73 1.25 2.664.713.93-.538 1.25-1.73.713-2.66-.538-.933-1.73-1.252-2.66-.714zm-297.122-82.82c-.93.537-1.25 1.728-.713 2.66.535.932 1.73 1.25 2.66.713.93-.538 1.25-1.73.71-2.66-.537-.932-1.73-1.252-2.66-.714zm292.938 208.608c-.932.538-1.25 1.73-.713 2.66.538.933 1.73 1.252 2.66.714.932-.538 1.25-1.73.714-2.66-.535-.932-1.73-1.252-2.66-.714zm-344.55-48.863c-.93.538-1.25 1.73-.712 2.66.538.932 1.73 1.25 2.66.714.933-.54 1.252-1.73.714-2.664-.538-.932-1.73-1.25-2.66-.713zm478.08-3.212c-.933.538-1.252 1.73-.714 2.66.538.932 1.73 1.25 2.66.714.933-.538 1.252-1.73.714-2.66-.538-.933-1.73-1.252-2.66-.714zm-37.952-34.443c-.932.538-1.25 1.73-.713 2.66.538.933 1.73 1.252 2.66.714.932-.538 1.25-1.73.714-2.66-.54-.932-1.73-1.252-2.664-.714zm-45.68 42.388c-.932.538-1.25 1.73-.713 2.66.538.933 1.73 1.252 2.66.714.933-.538 1.252-1.73.714-2.66-.54-.932-1.73-1.25-2.664-.714zm-283.924-156.82c-.93.537-1.25 1.73-.713 2.66.54.93 1.73 1.25 2.664.713.932-.535 1.25-1.726.713-2.66-.538-.93-1.73-1.25-2.66-.71zm443.138 101.102c-1.865 1.075-2.504 3.457-1.427 5.32 1.076 1.864 3.46 2.502 5.325 1.427 1.865-1.076 2.504-3.46 1.427-5.322-1.076-1.863-3.46-2.502-5.325-1.426zm-163.14-212.685c-1.864 1.076-2.503 3.46-1.426 5.322 1.076 1.863 3.46 2.502 5.326 1.426 1.864-1.076 2.503-3.458 1.427-5.322-1.08-1.86-3.464-2.5-5.33-1.423z"/><circle cx="470.828" cy="616.084" r="3.896"/><path d="M1079.945 215.768c-2.153 0-3.9 1.744-3.9 3.896 0 2.15 1.747 3.895 3.9 3.895 2.153 0 3.9-1.747 3.9-3.898 0-2.152-1.747-3.896-3.9-3.896zM516.71 397.366c-1.076 0-1.95.872-1.95 1.948 0 1.075.874 1.948 1.95 1.948 1.077 0 1.95-.873 1.95-1.948 0-1.076-.873-1.948-1.95-1.948zM742.777 95.863c-1.077 0-1.95.872-1.95 1.948 0 1.08.873 1.95 1.95 1.95 1.076 0 1.95-.87 1.95-1.95 0-1.073-.874-1.945-1.95-1.945zM500.16.39c-1.076 0-1.95.87-1.95 1.947 0 1.076.874 1.948 1.95 1.948 1.077 0 1.95-.872 1.95-1.948S501.236.39 500.16.39z"/></g><path d="M1007.625 131.83c-1.076 0-1.948.87-1.948 1.945 0 1.075.872 1.946 1.948 1.946s1.948-.87 1.948-1.943c0-1.074-.872-1.945-1.948-1.945z" id="Oval-1185"/><g transform="translate(0 86.819)" id="Oval-1185"><ellipse cx="737.965" cy="525.369" rx="3.896" ry="3.896"/><ellipse cx="668.398" cy="525.369" rx="3.896" ry="3.896"/><path d="M543.287 8.43c2.135.262 4.08-1.257 4.34-3.392.263-2.136-1.255-4.08-3.39-4.342-2.136-.262-4.08 1.257-4.342 3.392-.262 2.136 1.256 4.08 3.392 4.342z"/><circle cx="1275.04" cy="424.353" r="3.896"/><path d="M710.36 50.06c2.135.26 4.078-1.257 4.34-3.393.263-2.135-1.256-4.08-3.39-4.34-2.137-.264-4.08 1.255-4.343 3.39-.262 2.136 1.257 4.08 3.392 4.342z"/><ellipse cx="388.461" cy="373.435" rx="3.896" ry="3.896"/><ellipse cx="195.622" cy="153.325" rx="3.896" ry="3.896"/><ellipse cx="662.555" cy="606.623" rx="3.896" ry="3.896"/><ellipse cx="409.331" cy="306.233" rx="3.896" ry="3.896"/><ellipse cx="765.235" cy="351.034" rx="3.896" ry="3.896"/><ellipse cx="378.165" cy="329.608" rx="1.948" ry="1.948"/><ellipse cx="491.42" cy="397.644" rx="1.948" ry="1.948"/><ellipse cx="273.259" cy="239.588" rx="1.948" ry="1.948"/><ellipse cx="748.261" cy="623.041" rx="1.948" ry="1.948"/><ellipse cx="823.393" cy="345.988" rx="1.948" ry="1.948"/><ellipse cx="808.367" cy="591.596" rx="1.948" ry="1.948"/><ellipse cx="269.641" cy="564.048" rx="1.948" ry="1.948"/><ellipse cx="245.293" cy="124.664" rx="1.948" ry="1.948"/><ellipse cx="366.478" cy="403.766" rx="1.948" ry="1.948"/><ellipse cx="1125.027" cy="312.216" rx="1.948" ry="1.948"/><ellipse cx="1323.195" cy="335.034" rx="1.948" ry="1.948"/><ellipse cx="717.123" cy="456.915" rx="1.948" ry="1.948"/><ellipse cx="441.61" cy="78.026" rx="1.948" ry="1.948"/><ellipse cx="973.401" cy="155.273" rx="1.948" ry="1.948"/><ellipse cx="307.625" cy="42.018" rx="1.948" ry="1.948"/><ellipse cx="215.935" cy="205.083" rx="1.948" ry="1.948"/><ellipse cx="87.932" cy="130.507" rx="1.948" ry="1.948"/><ellipse cx="946.248" cy="273.36" rx="1.948" ry="1.948"/><ellipse cx="934.004" cy="345.988" rx="1.948" ry="1.948"/><ellipse cx="207.866" cy="452.741" rx="1.948" ry="1.948"/><ellipse cx="2.504" cy="236.527" rx="1.948" ry="1.948"/><ellipse cx="253.084" cy="7.791" rx="1.948" ry="1.948"/><ellipse cx="330.303" cy="429.088" rx="1.948" ry="1.948"/><ellipse cx="420.184" cy="7.096" rx="1.948" ry="1.948"/><ellipse cx="595.214" cy="535.108" rx="1.948" ry="1.948"/><ellipse cx="699.286" cy="626.936" rx="1.948" ry="1.948"/><ellipse cx="745.756" cy="608.571" rx="1.948" ry="1.948"/><ellipse cx="473.889" cy="561.822" rx="1.948" ry="1.948"/><ellipse cx="601.057" cy="506.447" rx="1.948" ry="1.948"/><path d="M863.406 65.642c2.136.262 4.08-1.256 4.342-3.392.262-2.135-1.257-4.08-3.392-4.34-2.136-.264-4.08 1.255-4.342 3.39-.262 2.136 1.257 4.08 3.392 4.342z"/><ellipse cx="293.294" cy="307.485" rx="3.896" ry="3.896"/><ellipse cx="498.655" cy="104.072" rx="3.896" ry="3.896"/><ellipse cx="812.262" cy="548.187" rx="3.896" ry="3.896"/><ellipse cx="959.327" cy="274.195" rx="3.896" ry="3.896"/><ellipse cx="781.096" cy="632.78" rx="3.896" ry="3.896"/><ellipse cx="329.608" cy="58.436" rx="3.896" ry="3.896"/><path d="M969.423 213.535c-1.863 1.076-2.502 3.46-1.426 5.322 1.076 1.863 3.458 2.502 5.322 1.426 1.86-1.076 2.5-3.46 1.423-5.322-1.076-1.86-3.46-2.5-5.322-1.423zM1084.12 676.87c-1.863 1.077-2.5 3.463-1.426 5.33 1.076 1.866 3.46 2.505 5.322 1.428 1.863-1.078 2.502-3.464 1.426-5.33-1.076-1.867-3.458-2.506-5.322-1.43zm241.85-427.382c-1.864 1.077-2.502 3.464-1.426 5.33 1.075 1.866 3.458 2.506 5.32 1.428 1.865-1.077 2.503-3.464 1.427-5.33-1.073-1.866-3.455-2.506-5.32-1.428zm55.036 368.31c-1.863 1.077-2.502 3.463-1.426 5.33 1.076 1.866 3.46 2.505 5.322 1.43 1.863-1.08 2.502-3.466 1.426-5.333-1.076-1.866-3.46-2.505-5.322-1.428zM913.79 579.67c-1.864 1.077-2.502 3.463-1.426 5.33 1.076 1.866 3.458 2.506 5.322 1.428 1.863-1.078 2.5-3.464 1.425-5.33-1.072-1.867-3.455-2.506-5.32-1.43zm654.93-210.883c-1.864 1.078-2.502 3.464-1.427 5.33 1.076 1.867 3.46 2.506 5.322 1.43 1.863-1.08 2.502-3.465 1.426-5.332-1.073-1.866-3.455-2.505-5.32-1.428zM1374.578 208.08c-1.863 1.078-2.5 3.464-1.426 5.33 1.076 1.867 3.46 2.507 5.322 1.43 1.863-1.078 2.502-3.465 1.426-5.33-1.076-1.868-3.458-2.507-5.322-1.43zM1489.54 372.4c-.93.54-1.25 1.733-.713 2.666.538.933 1.73 1.253 2.66.714.933-.54 1.252-1.732.714-2.665-.535-.933-1.726-1.253-2.66-.714zm-174.676-206.737c-.932.54-1.25 1.732-.713 2.665.54.933 1.73 1.253 2.664.714.93-.54 1.25-1.732.712-2.665-.537-.933-1.73-1.253-2.66-.714zm143.9 316.71c-.93.54-1.25 1.733-.712 2.666.537.93 1.73 1.25 2.66.71.932-.54 1.25-1.73.713-2.664-.538-.934-1.73-1.253-2.66-.715zm136.89-39.595c-.93.538-1.25 1.732-.712 2.665s1.73 1.253 2.66.714c.933-.54 1.252-1.732.714-2.665-.538-.934-1.73-1.253-2.66-.714zm-165.61-208.254c-.93.54-1.25 1.732-.712 2.665.538.93 1.73 1.25 2.66.712.933-.54 1.252-1.732.714-2.666-.538-.933-1.73-1.253-2.66-.714zM1059.13 641.66c-.93.538-1.25 1.73-.713 2.664.538.934 1.73 1.253 2.66.714.933-.538 1.252-1.732.714-2.665-.535-.933-1.726-1.253-2.66-.714zm-85.99-11.422c-.93.54-1.25 1.732-.713 2.665.538.934 1.73 1.253 2.66.715.933-.54 1.252-1.732.714-2.666-.535-.933-1.726-1.253-2.66-.714zM682.868 223.993c-.932.54-1.25 1.732-.713 2.665.538.933 1.73 1.253 2.66.714.933-.54 1.252-1.732.714-2.665-.54-.933-1.73-1.253-2.664-.714zm659.042-16.62c-.93.54-1.25 1.732-.712 2.665s1.73 1.253 2.66.714c.932-.54 1.25-1.732.714-2.665-.538-.933-1.73-1.253-2.66-.714zm-590.724 223.06c-.932.54-1.25 1.732-.713 2.666.538.93 1.73 1.25 2.66.71.932-.54 1.252-1.73.714-2.664-.538-.934-1.73-1.253-2.66-.715zm687.282 91.054c-.93.54-1.25 1.732-.713 2.665.538.933 1.73 1.253 2.66.714.933-.54 1.252-1.732.714-2.665-.54-.93-1.73-1.25-2.664-.71zm-128.916 93.77c-.932.54-1.25 1.732-.713 2.665.534.934 1.726 1.253 2.66.715.93-.54 1.25-1.732.71-2.666-.538-.93-1.73-1.25-2.66-.71zM615.316 248.652c-.932.54-1.25 1.732-.713 2.665.538.933 1.73 1.253 2.66.714.932-.535 1.252-1.73.714-2.662-.538-.933-1.73-1.253-2.66-.714zM1311.05 650.56c-.93.54-1.25 1.733-.712 2.666.538.934 1.73 1.253 2.66.715.933-.536 1.252-1.73.714-2.663-.538-.933-1.73-1.252-2.66-.714zm331.598-195.807c-.933.54-1.252 1.732-.714 2.665.54.933 1.73 1.253 2.663.714.932-.54 1.252-1.732.713-2.665-.538-.933-1.73-1.253-2.662-.714zm-501.232-77.275c-.932.54-1.25 1.732-.713 2.665.538.933 1.73 1.253 2.663.714.932-.54 1.25-1.732.713-2.665-.54-.933-1.73-1.253-2.666-.714zm265.794-172.48c-.933.54-1.253 1.732-.715 2.665.54.933 1.73 1.253 2.663.714.932-.54 1.252-1.732.714-2.665-.54-.933-1.73-1.253-2.663-.714zM1228.25 658.52c-.932.54-1.25 1.732-.713 2.665.538.933 1.73 1.253 2.663.714.932-.54 1.252-1.735.713-2.668-.538-.933-1.73-1.253-2.662-.714zm133.248-411.065c-.932.54-1.25 1.732-.713 2.665.538.934 1.73 1.253 2.663.715.932-.54 1.25-1.732.713-2.666-.535-.936-1.73-1.256-2.66-.717zM1249.8 534.31c-.932.538-1.25 1.73-.713 2.664.538.933 1.73 1.253 2.662.714.93-.538 1.25-1.732.71-2.665s-1.73-1.253-2.662-.714zm-119.603 89.59c-1.865 1.078-2.504 3.465-1.427 5.33 1.076 1.867 3.46 2.507 5.325 1.43 1.865-1.078 2.503-3.465 1.427-5.33-1.077-1.868-3.46-2.507-5.325-1.43zm412.797-212.018c-1.864 1.077-2.503 3.464-1.427 5.33 1.077 1.867 3.46 2.506 5.326 1.428 1.864-1.077 2.503-3.464 1.427-5.33-1.077-1.866-3.46-2.506-5.326-1.428zM1181.33 619.98c-1.863 1.077-2.502 3.464-1.426 5.33 1.077 1.867 3.46 2.506 5.325 1.43 1.862-1.08 2.5-3.465 1.424-5.332-1.076-1.866-3.46-2.506-5.325-1.428zm133.25-411.065c-1.866 1.078-2.505 3.464-1.428 5.33 1.076 1.867 3.46 2.506 5.325 1.43 1.865-1.08 2.504-3.465 1.427-5.332-1.076-1.866-3.46-2.505-5.325-1.428zM1038.102 102.4c-2.153 0-3.9 1.748-3.9 3.904 0 2.155 1.747 3.902 3.9 3.902 2.153 0 3.898-1.747 3.898-3.902 0-2.156-1.745-3.903-3.898-3.903zm107.483 42.924c-2.153 0-3.898 1.747-3.898 3.902 0 2.156 1.745 3.903 3.898 3.903s3.9-1.75 3.9-3.906-1.747-3.902-3.9-3.902zm86.322 35.398c-1.077 0-1.95.873-1.95 1.95 0 1.078.873 1.952 1.95 1.952 1.076 0 1.95-.874 1.95-1.95 0-1.08-.874-1.952-1.95-1.952zm247.825 38.463c-1.076 0-1.95.874-1.95 1.95 0 1.08.874 1.952 1.95 1.952 1.077 0 1.95-.873 1.95-1.95 0-1.078-.873-1.952-1.95-1.952zm-568.7-172.36c-1.077 0-1.95.874-1.95 1.95 0 1.08.873 1.952 1.95 1.952 1.076 0 1.95-.873 1.95-1.95 0-1.078-.874-1.952-1.95-1.952z"/></g><path d="M1179.038 197.69c-1.076 0-1.948.87-1.948 1.945 0 1.074.872 1.945 1.948 1.945s1.948-.87 1.948-1.945c0-1.074-.872-1.945-1.948-1.945z" id="Oval-1185"/><g transform="translate(38.957 14.47)"><circle cx="258.232" cy="535.943" r="3.896"/><ellipse cx="6.762" cy="219.862" rx="1.029" ry=".866"/><circle cx="720.991" cy="342.547" r="1.948"/><circle cx="416.566" cy="493.09" r="1.948"/><ellipse cx="145.534" cy="96.837" rx="1.948" ry="1.948"/><ellipse cx=".515" cy="226.355" rx=".515" ry=".433"/><ellipse cx="73.184" cy="383.731" rx="1.948" ry="1.948"/><ellipse cx="26.157" cy="303.311" rx="1.948" ry="1.948"/><circle cx="331.416" cy="603.562" r="1.948"/><ellipse cx="6.4" cy="273.537" rx="3.896" ry="3.896"/><path d="M1198.914 774.55c-1.864 1.077-2.502 3.46-1.426 5.323 1.076 1.863 3.458 2.5 5.32 1.426 1.865-1.08 2.503-3.46 1.427-5.325-1.075-1.863-3.458-2.502-5.32-1.426zm190.038-53.93c-1.862 1.077-2.5 3.46-1.425 5.323 1.075 1.863 3.456 2.5 5.318 1.426 1.862-1.08 2.5-3.46 1.425-5.325-1.075-1.863-3.456-2.502-5.318-1.426zm186.072-90.428c-1.862 1.076-2.5 3.458-1.425 5.322 1.072 1.863 3.453 2.5 5.315 1.426 1.862-1.076 2.5-3.46 1.425-5.322-1.074-1.863-3.455-2.502-5.317-1.426zM1138.906 773.93c-.93.536-1.25 1.728-.713 2.66.538.93 1.728 1.25 2.66.712.93-.538 1.25-1.73.712-2.66-.538-.932-1.728-1.25-2.66-.713zm-74.393 6.5c-.93.54-1.25 1.73-.713 2.662.538.932 1.728 1.25 2.66.713.93-.538 1.25-1.73.712-2.66-.538-.933-1.728-1.252-2.66-.714zm118.253 12.09c-.93.538-1.25 1.73-.713 2.66.538.933 1.728 1.252 2.66.714.93-.538 1.25-1.73.712-2.66-.538-.932-1.728-1.25-2.66-.713zm309.744-66.545c-.93.538-1.25 1.73-.712 2.66.537.933 1.728 1.252 2.66.714.93-.54 1.25-1.73.71-2.664-.536-.93-1.727-1.25-2.658-.713zm147.196-251.753c-.93.538-1.25 1.73-.713 2.66.538.932 1.73 1.25 2.66.713.933-.537 1.252-1.73.714-2.66-.538-.932-1.73-1.25-2.66-.713zm-392.21 316.65c-.93.538-1.25 1.73-.712 2.66.537.933 1.73 1.252 2.66.714.932-.538 1.25-1.73.713-2.66-.538-.932-1.73-1.252-2.66-.714zm189.867-53.93c-.932.538-1.25 1.73-.713 2.66.538.933 1.73 1.252 2.66.714.932-.538 1.252-1.73.714-2.66-.538-.932-1.73-1.252-2.66-.714zM1419.938 697c-.932.538-1.25 1.73-.713 2.66.538.932 1.73 1.25 2.66.713.933-.537 1.252-1.73.714-2.66-.54-.932-1.73-1.25-2.664-.713zm-316.126 102.313c-.932.538-1.25 1.73-.713 2.664.535.933 1.726 1.253 2.66.714.93-.535 1.25-1.73.71-2.66-.537-.934-1.73-1.254-2.66-.715zm358.318-84.836c-1.863 1.077-2.5 3.463-1.425 5.33 1.075 1.865 3.458 2.504 5.32 1.427 1.865-1.077 2.503-3.463 1.427-5.33-1.075-1.865-3.458-2.504-5.32-1.427zm87.193-40.327c-1.864 1.078-2.502 3.464-1.426 5.33 1.076 1.865 3.458 2.505 5.32 1.427 1.865-1.077 2.503-3.463 1.427-5.33-1.075-1.865-3.458-2.504-5.32-1.427zm-482.427-537.22c-2.152 0-3.896 1.746-3.896 3.9 0 2.155 1.744 3.902 3.896 3.902s3.896-1.747 3.896-3.9c0-2.156-1.744-3.902-3.896-3.902zm157.5 45.7c-2.15 0-3.896 1.745-3.896 3.9s1.744 3.9 3.895 3.9c2.152 0 3.896-1.745 3.896-3.9s-1.74-3.9-3.893-3.9zm-82.368-51.273c-2.15 0-3.896 1.746-3.896 3.9 0 2.155 1.745 3.902 3.896 3.902 2.152 0 3.896-1.75 3.896-3.904 0-2.155-1.744-3.9-3.896-3.9zM945.293.947c-2.15 0-3.896 1.747-3.896 3.9 0 2.156 1.745 3.902 3.896 3.902 2.152 0 3.896-1.75 3.896-3.904s-1.747-3.9-3.9-3.9zm23.375 74.123c-1.076 0-1.948.872-1.948 1.95 0 1.077.872 1.95 1.948 1.95 1.075 0 1.947-.873 1.947-1.95 0-1.078-.872-1.95-1.947-1.95zm65.114 14.49c-1.076 0-1.948.872-1.948 1.95 0 1.077.872 1.95 1.948 1.95s1.948-.873 1.948-1.95c0-1.078-.872-1.95-1.948-1.95zm-111.585 3.9c-1.076 0-1.948.873-1.948 1.95 0 1.078.87 1.95 1.945 1.95s1.948-.872 1.948-1.95c0-1.077-.872-1.95-1.948-1.95zm278.823 62.418c-1.075 0-1.947.873-1.947 1.95 0 1.078.872 1.95 1.948 1.95 1.08 0 1.95-.872 1.95-1.95 0-1.077-.87-1.95-1.95-1.95zm89.88 21.178c-1.075 0-1.947.873-1.947 1.95 0 1.078.872 1.95 1.948 1.95 1.08 0 1.95-.872 1.95-1.95 0-1.077-.87-1.95-1.95-1.95zm-178.09-34.276c-1.076 0-1.948.875-1.948 1.952s.872 1.95 1.948 1.95 1.948-.873 1.948-1.95-.872-1.95-1.948-1.95z"/></g><path d="M1105.853 210.75c-1.075 0-1.947.872-1.947 1.946 0 1.074.872 1.945 1.947 1.945 1.076 0 1.948-.87 1.948-1.942 0-1.074-.87-1.945-1.945-1.945zm-61.497-43.628c-1.075 0-1.948.87-1.948 1.945 0 1.075.873 1.946 1.948 1.946 1.076 0 1.948-.87 1.948-1.946 0-1.074-.872-1.945-1.948-1.945zm81.784-77.225c-1.076 0-1.948.87-1.948 1.945 0 1.075.872 1.946 1.948 1.946s1.948-.87 1.948-1.946c0-1.074-.872-1.945-1.948-1.945zm74.324 172.263c-2.15 0-3.895 1.742-3.895 3.89 0 2.15 1.74 3.89 3.892 3.89s3.896-1.74 3.896-3.89c0-2.148-1.745-3.89-3.897-3.89zM946.07 159.897c-2.152 0-3.896 1.742-3.896 3.89 0 2.15 1.744 3.89 3.896 3.89s3.896-1.74 3.896-3.89c0-2.148-1.744-3.89-3.896-3.89zM1228.29 309.4c-2.15 0-3.895 1.743-3.895 3.892 0 2.148 1.745 3.89 3.896 3.89 2.155 0 3.9-1.742 3.9-3.89 0-2.15-1.745-3.89-3.897-3.89zm31.167-84.477c-2.152 0-3.896 1.742-3.896 3.89 0 2.15 1.747 3.89 3.9 3.89s3.895-1.74 3.895-3.89c0-2.148-1.744-3.89-3.896-3.89zm-113.533-38.903c-2.152 0-3.896 1.74-3.896 3.89 0 2.148 1.744 3.89 3.896 3.89 2.15 0 3.896-1.742 3.896-3.89 0-2.15-1.745-3.89-3.896-3.89z"/><circle cx="996.394" cy="502.421" r="3.896"/></g></g></svg>