<svg width="622" height="270" viewBox="0 0 622 270" xmlns="http://www.w3.org/2000/svg"><title>A004_ufo_L</title><desc>Created with Sketch.</desc><g fill="none" fill-rule="evenodd"><path d="M262.85 22.623S287.03 27.45 316.81 29c29.778 1.55 55.703-.67 55.703-.67s1.27-24.82-54.226-27.708c-55.496-2.888-55.438 22-55.438 22z" fill="#2D72B6"/><path d="M148.72 102.706s44.78 2.33 159.926 8.325l169.064 8.8S464.692 17.836 313.66 14.687c-151.03-3.15-164.94 88.022-164.94 88.022z" fill="#E1E1E1"/><path d="M157.135 91.953l141.276 7.354 149.35 7.774s-12.133-77.895-145.523-81.245c-133.39-3.35-145.1 66.12-145.1 66.12z" fill="#fff"/><path d="M.84 137.123l301.573 15.698 318.806 16.597S590.414 97.235 305.903 85.71C21.394 74.18.84 137.122.84 137.122z" fill="#3E8FDF"/><path d="M.815 137.598l271.682 14.142 287.207 14.95s-28.512-50.357-284.788-61.424C18.64 94.2.816 137.598.816 137.598z" fill="#256FB8"/><path d="M.855 136.83s93.483-3.34 310.615 7.962c217.133 11.303 309.764 24.33 309.764 24.33s-26.25 81.797-314.507 66.793C18.47 220.91.855 136.83.855 136.83z" fill="#144A80"/><path d="M190.313 224.098s35.58-6.788 117.945-2.5c81.58 4.246 116.264 14.69 116.264 14.69s-10.278 37.952-118.71 32.308c-109.216-5.685-115.5-44.498-115.5-44.498z" fill="#062E55"/><path d="M194.237 224.16s27.822-7.05 93.852-3.613c65.4 3.405 92.063 8.013 92.063 8.013s-7.14 34.973-94.068 30.448c-87.556-4.557-91.85-34.85-91.85-34.85z" fill="#0B3966"/></g></svg>