<svg width="166" height="83" viewBox="0 0 166 83" xmlns="http://www.w3.org/2000/svg"><title>A009_ufo_xs</title><desc>Created with Sketch.</desc><g fill="none" fill-rule="evenodd"><g><g><g><g><g fill="#256FB7"><path d="M62.54 11.762s7.372.573 16.207-.36c8.835-.93 16.33-3.074 16.33-3.074S94.087-.99 77.622.748c-16.465 1.737-15.08 11.014-15.08 11.014z"/></g><g><path d="M38.028 40.566l42.643-4.5 45.08-4.757S117.6.77 77.547 6.457c-40.053 5.687-39.518 34.108-39.518 34.108z" fill="#E1E1E1"/><path d="M40.67 36.694l37.67-3.976 39.824-4.202S111.36 5.29 75.96 10.14c-35.403 4.85-35.29 26.554-35.29 26.554z" opacity=".632" fill="#fff"/><path d="M.573 57.345l80.412-8.486 85.008-8.972S154.52 19.228 78.81 28.234C3.097 37.24.572 57.344.572 57.344z" fill="#3E8FDF"/><path d="M.587 57.472l72.442-7.645 76.58-8.08s-9.86-14.106-78.088-6.202C3.292 43.45.587 57.472.587 57.472z" fill="#256FB8"/><path d="M.573 57.345S25.12 52.21 83.018 46.1c57.896-6.11 82.975-6.212 82.975-6.212s-3.16 26.105-80.02 34.216C9.11 82.214.573 57.344.573 57.344z" id="Path-130" fill="#144A80"/><path d="M42.887 74.42s12.175-3.962 41.374-7.044c28.923-3.052 41.656-1.718 41.656-1.718s-1.69 12.105-40.13 16.16c-38.72 4.087-42.9-7.398-42.9-7.398z" fill="#062E55"/><path d="M44.27 74.23s9.433-3.63 32.84-6.1c23.187-2.446 32.803-2.462 32.803-2.462s-.738 11.03-31.554 14.282c-31.04 3.276-34.09-5.72-34.09-5.72z" fill="#0B3966"/></g></g></g></g></g></g></svg>