<svg width="1013" height="1020" viewBox="0 0 1013 1020" xmlns="http://www.w3.org/2000/svg" xmlns:xlink="http://www.w3.org/1999/xlink"><title>B002_journey_m</title><desc>Created with Sketch.</desc><defs><path id="a" d="M746.65 230.3c6.917 8.977 52.35 138.414 123.35 61.335 71-77.078 196.835 38.166 113 145.456C813 654.653 702.313 366.06 561 624s-351 69-366-52"/><ellipse id="b" cx="64.325" cy="64.229" rx="64.097" ry="64.001"/><ellipse id="d" cx="64.325" cy="64.229" rx="64.097" ry="64.001"/><ellipse id="f" cx="64.325" cy="64.229" rx="64.097" ry="64.001"/><path id="h" d="M210 207s116 203 266 103 127.13-220.135 270.65-79.7c6.917 8.977 52.35 138.414 123.35 61.335"/><ellipse id="i" cx="160.563" cy="160.323" rx="159.993" ry="159.755"/></defs><g fill="none" fill-rule="evenodd"><g><g transform="translate(-487 -363.247) translate(487 364)"><path d="M519 816s15 108-106 169-251-33-251-33" stroke="#fff" stroke-width="3" stroke-dasharray="10,10" opacity=".25"/><g opacity=".25"><use stroke="#fff" stroke-width="3" stroke-dasharray="10,10" xlink:href="#a"/><use xlink:href="#a"/></g><g id="Group-+-Oval-94-+-Group-+-Group" transform="translate(64 890)"><g id="Group"><ellipse id="Oval-93" fill="#C99D59" transform="matrix(-1 0 0 1 128.71 0)" cx="64.355" cy="64.259" rx="64.355" ry="64.259"/><path id="Path-324" stroke="#979797" stroke-width=".5"/></g><ellipse id="Oval-94" fill="#E2B26A" transform="matrix(-1 0 0 1 130.156 0)" cx="65.078" cy="61.61" rx="58.809" ry="58.722"/><g id="Group-+-Group"><mask id="c"><use xlink:href="#b"/></mask><use id="Mask" transform="matrix(-1 0 0 1 128.65 0)" xlink:href="#b"/><g mask="url(#c)" id="Group"><path d="M46.266 103.577c17.125 6.573 34.483 2.85 38.77-8.32 4.287-11.168-6.12-25.55-23.245-32.124-17.123-6.573-34.48-2.848-38.768 8.32-4.287 11.168 6.12 25.55 23.244 32.124zM68.188 28.722c7.408 5.788 16.926 5.983 21.26.436 4.334-5.547 1.842-14.736-5.566-20.523-7.408-5.788-16.927-5.983-21.26-.436-4.334 5.546-1.842 14.734 5.566 20.522z" id="Oval-1499" opacity=".65" fill="#E3BD83"/><path d="M35.51 27.814c2.543 1.987 5.583 2.346 6.79.8 1.206-1.543.122-4.405-2.42-6.392-2.544-1.987-5.584-2.346-6.79-.802-1.207 1.544-.123 4.407 2.42 6.394zM26.364 30.28c-.548 1.59.054 3.24 1.345 3.684 1.29.444 2.78-.485 3.326-2.075.548-1.59-.054-3.24-1.345-3.684-1.29-.445-2.78.484-3.326 2.074zM64.304 113.866c.57 2.13 3.963 3.07 7.578 2.1 3.614-.968 6.082-3.48 5.512-5.608-.57-2.13-3.963-3.07-7.578-2.1-3.615.968-6.083 3.48-5.512 5.608zM103.584 72.41c-.42 2.164 2.216 4.497 5.89 5.21 3.674.715 6.992-.46 7.413-2.624.42-2.164-2.216-4.496-5.89-5.21-3.674-.715-6.992.46-7.413 2.624z" id="Oval-1499" fill="#BF924E"/><g stroke="#D5A65E" stroke-width=".972"><path d="M11.004 99.815c3.25-12.87 9.776-20.702 22.58-22.526 2.746-.393 6.704.12 9.264-1.157 6.256-3.12 3.25-13.64 7.527-17.906 1.597-1.593 3.965-1.796 5.79-2.888 2.46-1.473 4.932-3.103 8.105-2.31 1.858.462 10.4 2.288 11.58 3.465 2.44 2.436 5.63 7.43 9.263 9.24 1.823.91 6.283 1.07 7.527 2.312 2.507 2.5.958 6.098 6.37 5.198 21.784-3.622 19.43-17.328 30.684-17.328" id="Path-705"/><path d="M85.692 66.892c-9.026 10.603.906 16.275-1.158 26.57-.675 3.368-4.205 5.137-5.79 7.51-3.317 4.964-16.883 9.725-20.264 6.352-.28-.28-.916-2.404-1.158-2.888-2.614-5.216-12.09-8.64-17.37-10.397-2.786-.927-3.667-6.548-5.21-8.087-2.502-2.496-7.67-4.187-9.842-6.354-1.996-1.99-.197-6.55-1.737-8.088-1.916-1.91-4.602-2.798-5.79-6.353-1.588-4.754-3.087-11.167-6.37-14.442-.138-.14-15.02-2.005-16.79-2.888" id="Path-706"/><path d="M85.692 67.47c0-2.31-.154-4.627 0-6.932.152-2.277 3.317-3.574 4.053-5.776 2.818-8.433 3.075-15.378 7.527-24.26.212-.423 1.196-2.272.58-2.888-3.272-3.263-17.826-3.982-22.58-6.354-2.804-1.398-6.266-6.25-8.107-8.086-.55-.55 12.823-13.457 13.316-14.44" id="Path-707"/><path d="M12.162 52.45c6.45-8.848 17.92-11.523 24.896-18.482 1.906-1.902 2.723-4.45 4.632-6.354 7.616-7.598 21.373-1.058 27.79-13.863" id="Path-708"/><path d="M84.534 95.195c10.097 1.536 9.304 4.7 12.16 10.397 1.233 2.462 4.757 1.984 5.788 4.043 1.166 2.325-.578 6.286-.578 8.086" id="Path-709"/><path d="M61.375 108.48c-6.633 5.436-17.904 6.886-22.58 11.552-1.492 1.488-1.493 3.557-2.316 5.198" id="Path-710"/></g></g></g></g><g id="Group-+-Oval-94-+-Group-+-Group" transform="translate(151.086 535)"><g id="Group"><ellipse id="Oval-93" fill="#C99D59" transform="matrix(-1 0 0 1 128.71 0)" cx="64.355" cy="64.259" rx="64.355" ry="64.259"/><path id="Path-324" stroke="#979797" stroke-width=".5"/></g><ellipse id="Oval-94" fill="#E2B26A" transform="matrix(-1 0 0 1 130.156 0)" cx="65.078" cy="61.61" rx="58.809" ry="58.722"/><g id="Group-+-Group"><mask id="e"><use xlink:href="#d"/></mask><use id="Mask" transform="matrix(-1 0 0 1 128.65 0)" xlink:href="#d"/><g mask="url(#e)" id="Group"><path d="M46.266 103.577c17.125 6.573 34.483 2.85 38.77-8.32 4.287-11.168-6.12-25.55-23.245-32.124-17.123-6.573-34.48-2.848-38.768 8.32-4.287 11.168 6.12 25.55 23.244 32.124zM68.188 28.722c7.408 5.788 16.926 5.983 21.26.436 4.334-5.547 1.842-14.736-5.566-20.523-7.408-5.788-16.927-5.983-21.26-.436-4.334 5.546-1.842 14.734 5.566 20.522z" id="Oval-1499" opacity=".65" fill="#E3BD83"/><path d="M35.51 27.814c2.543 1.987 5.583 2.346 6.79.8 1.206-1.543.122-4.405-2.42-6.392-2.544-1.987-5.584-2.346-6.79-.802-1.207 1.544-.123 4.407 2.42 6.394zM26.364 30.28c-.548 1.59.054 3.24 1.345 3.684 1.29.444 2.78-.485 3.326-2.075.548-1.59-.054-3.24-1.345-3.684-1.29-.445-2.78.484-3.326 2.074zM64.304 113.866c.57 2.13 3.963 3.07 7.578 2.1 3.614-.968 6.082-3.48 5.512-5.608-.57-2.13-3.963-3.07-7.578-2.1-3.615.968-6.083 3.48-5.512 5.608zM103.584 72.41c-.42 2.164 2.216 4.497 5.89 5.21 3.674.715 6.992-.46 7.413-2.624.42-2.164-2.216-4.496-5.89-5.21-3.674-.715-6.992.46-7.413 2.624z" id="Oval-1499" fill="#BF924E"/><g stroke="#D5A65E" stroke-width=".972"><path d="M11.004 99.815c3.25-12.87 9.776-20.702 22.58-22.526 2.746-.393 6.704.12 9.264-1.157 6.256-3.12 3.25-13.64 7.527-17.906 1.597-1.593 3.965-1.796 5.79-2.888 2.46-1.473 4.932-3.103 8.105-2.31 1.858.462 10.4 2.288 11.58 3.465 2.44 2.436 5.63 7.43 9.263 9.24 1.823.91 6.283 1.07 7.527 2.312 2.507 2.5.958 6.098 6.37 5.198 21.784-3.622 19.43-17.328 30.684-17.328" id="Path-705"/><path d="M85.692 66.892c-9.026 10.603.906 16.275-1.158 26.57-.675 3.368-4.205 5.137-5.79 7.51-3.317 4.964-16.883 9.725-20.264 6.352-.28-.28-.916-2.404-1.158-2.888-2.614-5.216-12.09-8.64-17.37-10.397-2.786-.927-3.667-6.548-5.21-8.087-2.502-2.496-7.67-4.187-9.842-6.354-1.996-1.99-.197-6.55-1.737-8.088-1.916-1.91-4.602-2.798-5.79-6.353-1.588-4.754-3.087-11.167-6.37-14.442-.138-.14-15.02-2.005-16.79-2.888" id="Path-706"/><path d="M85.692 67.47c0-2.31-.154-4.627 0-6.932.152-2.277 3.317-3.574 4.053-5.776 2.818-8.433 3.075-15.378 7.527-24.26.212-.423 1.196-2.272.58-2.888-3.272-3.263-17.826-3.982-22.58-6.354-2.804-1.398-6.266-6.25-8.107-8.086-.55-.55 12.823-13.457 13.316-14.44" id="Path-707"/><path d="M12.162 52.45c6.45-8.848 17.92-11.523 24.896-18.482 1.906-1.902 2.723-4.45 4.632-6.354 7.616-7.598 21.373-1.058 27.79-13.863" id="Path-708"/><path d="M84.534 95.195c10.097 1.536 9.304 4.7 12.16 10.397 1.233 2.462 4.757 1.984 5.788 4.043 1.166 2.325-.578 6.286-.578 8.086" id="Path-709"/><path d="M61.375 108.48c-6.633 5.436-17.904 6.886-22.58 11.552-1.492 1.488-1.493 3.557-2.316 5.198" id="Path-710"/></g></g></g></g><g transform="translate(748 863)"><g id="Group"><ellipse id="Oval-93" fill="#C99D59" transform="matrix(-1 0 0 1 128.71 0)" cx="64.355" cy="64.259" rx="64.355" ry="64.259"/><path id="Path-324" stroke="#979797" stroke-width=".5"/></g><ellipse id="Oval-94" fill="#E2B26A" transform="matrix(-1 0 0 1 130.156 0)" cx="65.078" cy="61.61" rx="58.809" ry="58.722"/><g id="Group-+-Group"><mask id="g"><use xlink:href="#f"/></mask><use id="Mask" transform="matrix(-1 0 0 1 128.65 0)" xlink:href="#f"/><g mask="url(#g)" id="Group"><path d="M46.266 103.577c17.125 6.573 34.483 2.85 38.77-8.32 4.287-11.168-6.12-25.55-23.245-32.124-17.123-6.573-34.48-2.848-38.768 8.32-4.287 11.168 6.12 25.55 23.244 32.124zM68.188 28.722c7.408 5.788 16.926 5.983 21.26.436 4.334-5.547 1.842-14.736-5.566-20.523-7.408-5.788-16.927-5.983-21.26-.436-4.334 5.546-1.842 14.734 5.566 20.522z" id="Oval-1499" opacity=".65" fill="#E3BD83"/><path d="M35.51 27.814c2.543 1.987 5.583 2.346 6.79.8 1.206-1.543.122-4.405-2.42-6.392-2.544-1.987-5.584-2.346-6.79-.802-1.207 1.544-.123 4.407 2.42 6.394zM26.364 30.28c-.548 1.59.054 3.24 1.345 3.684 1.29.444 2.78-.485 3.326-2.075.548-1.59-.054-3.24-1.345-3.684-1.29-.445-2.78.484-3.326 2.074zM64.304 113.866c.57 2.13 3.963 3.07 7.578 2.1 3.614-.968 6.082-3.48 5.512-5.608-.57-2.13-3.963-3.07-7.578-2.1-3.615.968-6.083 3.48-5.512 5.608zM103.584 72.41c-.42 2.164 2.216 4.497 5.89 5.21 3.674.715 6.992-.46 7.413-2.624.42-2.164-2.216-4.496-5.89-5.21-3.674-.715-6.992.46-7.413 2.624z" id="Oval-1499" fill="#BF924E"/><g stroke="#D5A65E" stroke-width=".972"><path d="M11.004 99.815c3.25-12.87 9.776-20.702 22.58-22.526 2.746-.393 6.704.12 9.264-1.157 6.256-3.12 3.25-13.64 7.527-17.906 1.597-1.593 3.965-1.796 5.79-2.888 2.46-1.473 4.932-3.103 8.105-2.31 1.858.462 10.4 2.288 11.58 3.465 2.44 2.436 5.63 7.43 9.263 9.24 1.823.91 6.283 1.07 7.527 2.312 2.507 2.5.958 6.098 6.37 5.198 21.784-3.622 19.43-17.328 30.684-17.328" id="Path-705"/><path d="M85.692 66.892c-9.026 10.603.906 16.275-1.158 26.57-.675 3.368-4.205 5.137-5.79 7.51-3.317 4.964-16.883 9.725-20.264 6.352-.28-.28-.916-2.404-1.158-2.888-2.614-5.216-12.09-8.64-17.37-10.397-2.786-.927-3.667-6.548-5.21-8.087-2.502-2.496-7.67-4.187-9.842-6.354-1.996-1.99-.197-6.55-1.737-8.088-1.916-1.91-4.602-2.798-5.79-6.353-1.588-4.754-3.087-11.167-6.37-14.442-.138-.14-15.02-2.005-16.79-2.888" id="Path-706"/><path d="M85.692 67.47c0-2.31-.154-4.627 0-6.932.152-2.277 3.317-3.574 4.053-5.776 2.818-8.433 3.075-15.378 7.527-24.26.212-.423 1.196-2.272.58-2.888-3.272-3.263-17.826-3.982-22.58-6.354-2.804-1.398-6.266-6.25-8.107-8.086-.55-.55 12.823-13.457 13.316-14.44" id="Path-707"/><path d="M12.162 52.45c6.45-8.848 17.92-11.523 24.896-18.482 1.906-1.902 2.723-4.45 4.632-6.354 7.616-7.598 21.373-1.058 27.79-13.863" id="Path-708"/><path d="M84.534 95.195c10.097 1.536 9.304 4.7 12.16 10.397 1.233 2.462 4.757 1.984 5.788 4.043 1.166 2.325-.578 6.286-.578 8.086" id="Path-709"/><path d="M61.375 108.48c-6.633 5.436-17.904 6.886-22.58 11.552-1.492 1.488-1.493 3.557-2.316 5.198" id="Path-710"/></g></g></g></g><g><use stroke="#fff" stroke-width="3" stroke-dasharray="10,10" xlink:href="#h"/><use xlink:href="#h"/></g><path d="M669 803c101-17 137 98 137 98" stroke="#fff" stroke-width="3" stroke-dasharray="10,10" opacity=".25"/><g><g fill="#256FB7"><path d="M504.415 263.01s3.01-1.707 6.194-4.38c3.183-2.672 5.53-5.464 5.53-5.464s-2.82-3.356-8.754 1.625c-5.934 4.98-2.97 8.22-2.97 8.22z"/></g><g id="Group"><path d="M502.438 280.595l15.367-12.9 16.246-13.637s-11.15-9.716-25.2 2.967c-14.054 12.684-6.412 23.57-6.412 23.57z" fill="#E1E1E1"/><path d="M502.45 278.4l13.576-11.394 14.35-12.047s-8.714-7.232-21.18 3.91c-12.467 11.14-6.746 19.53-6.746 19.53z" opacity=".632" fill="#fff"/><path d="M492.295 296.902s8.114-6.81 28.978-24.326l30.635-25.715s-9.855-5.014-36.874 18.284c-27.018 23.298-22.74 31.758-22.74 31.758z" fill="#3E8FDF"/><path d="M492.333 296.948l26.107-21.915 27.598-23.166s-7.515-2.894-31.92 18.02c-24.402 20.913-21.785 27.06-21.785 27.06z" fill="#256FB8"/><path d="M492.295 296.902s8.18-8.413 29.046-25.927c20.865-17.514 30.568-24.114 30.568-24.114s5.603 10.955-22.096 34.206c-27.7 23.252-37.517 15.836-37.517 15.836z" id="Path-130" fill="#144A80"/><path d="M513.178 292.46s3.687-4.723 14.21-13.556c10.423-8.75 15.712-11.562 15.712-11.562s2.51 5.138-11.343 16.767c-13.953 11.71-18.58 8.35-18.58 8.35z" fill="#062E55"/><path d="M513.665 292.023s2.71-3.875 11.146-10.956c8.357-7.014 12.083-9.536 12.083-9.536s2.6 4.474-8.506 13.796c-11.186 9.39-14.722 6.697-14.722 6.697z" fill="#0B3966"/></g></g><g id="Group" transform="translate(685 118)"><g transform="translate(.149 2)"><circle id="Oval-93" fill="#8B293F" transform="matrix(-1 0 0 1 222.5 0)" cx="111.25" cy="111.25" r="111.25"/><circle id="Oval-94" fill="#AC3852" transform="matrix(-1 0 0 1 231.202 0)" cx="115.601" cy="105.793" r="101.663"/><path id="Path-324" stroke="#979797" stroke-width=".6"/></g><ellipse id="Oval-1490" opacity=".321" fill="#E4D4BA" cx="141.149" cy="65.5" rx="41" ry="29.5"/><path d="M63.688 103.064c18.95-10.503 28.577-29.36 21.506-42.117-7.07-12.757-28.165-14.584-47.113-4.08C19.133 67.37 9.504 86.227 16.576 98.984c7.07 12.757 28.165 14.584 47.113 4.08z" opacity=".321" fill="#D47D87"/><ellipse opacity=".321" fill="#D47D87" cx="112.649" cy="177" rx="30.5" ry="19"/><ellipse opacity=".321" fill="#FEDEA6" cx="179.691" cy="131" rx="15.077" ry="37.402"/><path d="M92.252 137.937c9.68-4.72 15.466-12.773 12.923-17.985-2.542-5.212-12.45-5.61-22.13-.89-9.68 4.722-15.465 12.774-12.923 17.986 2.543 5.212 12.45 5.61 22.13.89zM98.068 33.99c5.24-.276 9.3-4.075 9.068-8.487-.23-4.412-4.666-7.767-9.906-7.492-5.24.276-9.3 4.075-9.068 8.487.23 4.412 4.666 7.767 9.906 7.492zM142.068 138.99c5.24-.276 9.3-4.075 9.068-8.487-.23-4.412-4.666-7.767-9.906-7.492-5.24.276-9.3 4.075-9.068 8.487.23 4.412 4.666 7.767 9.906 7.492z" opacity=".321" fill="#FEDEA6"/><path stroke="#979797" fill="#D8D8D8"/></g><g id="Group" transform="translate(50)"><circle id="Oval-93" fill="#153F90" transform="matrix(-1 0 0 1 269 0)" cx="134.5" cy="134.5" r="134.5"/><circle id="Oval-94" fill="#08569E" transform="matrix(-1 0 0 1 279.624 0)" cx="139.812" cy="134.017" r="129.188"/><path d="M137.575 216.36c9.66-9.66 27.045-.967 22.215-29.46-4.83-28.494-22.215-46.846-31.874-41.05-9.66 5.795-13.737 5.352-22.698 9.175-8.962 3.824-.966 6.76-16.42 9.66-15.455 2.897-36.22 9.175-28.494 26.078 7.727 16.903 13.522 37.187 24.147 48.294 10.626 11.108 48.295 28.494 53.125 23.182 4.83-5.314-9.66-36.222 0-45.88z" fill="#86B34D"/><path id="Path-324" stroke="#979797" stroke-width=".6"/><path d="M198.49 188.83s7.727-14.97 16.903-21.248c9.176-6.28 30.426-14.49 30.426-28.494 0-14.005 10.14-64.715-10.143-84.515-20.284-19.8-31.874-42.016-48.778-42.016s-10.625 17.868-18.352 21.25c-7.728 3.38-36.704 37.67-36.704 28.01s-7.727-23.664-19.8-9.176c-12.075 14.49-26.08 33.807-13.04 33.807s13.04 9.66 29.46 18.352 51.19 18.35 48.294 28.01c-2.898 9.66-4.83 23.18-11.108 28.01 2.415 0 15.454-21.732 20.767-21.732 5.312 0 29.942 1.45 27.527 9.66-2.414 8.21-17.87 20.765-17.87 26.56 0 5.796-15.555-1.448-20.282.967-4.728 2.414 5.795 22.215 1.932 27.528-3.864 5.312 19.317-10.142 19.317-10.142" fill="#86B34D"/><path d="M37.28 52.538s13.04 32.1 10.624 41.898c-2.415 9.798-.483 33.112-.483 33.112S45.49 144.78 30.52 144.78c-14.97 0-31.967-38.05-12.65-75.72C37.19 31.39 37.28 52.54 37.28 52.54z" fill="#86B34E"/></g><g transform="translate(290 544)"><path d="M279.35 237.09C417.31 194.91 516.682 119.937 501.3 69.63c-15.38-50.308-139.69-56.898-277.65-14.72C85.688 97.09-13.684 172.065 1.697 222.373c15.38 50.308 139.69 56.898 277.65 14.72zm-3.743-13.436C376.252 190.952 448.15 134.61 436.19 97.81c-11.956-36.8-103.238-40.124-203.884-7.422C131.66 123.09 59.766 179.432 71.722 216.233c11.957 36.8 103.24 40.122 203.885 7.42z" fill="#D0EBB5"/><g id="Group" transform="translate(96)"><ellipse fill="#759653" transform="matrix(-1 0 0 1 321.278 0)" cx="160.639" cy="160.399" rx="160.639" ry="160.399"/><path stroke="#979797" stroke-width=".5"/></g><ellipse fill="#91B170" transform="matrix(-1 0 0 1 516.888 0)" cx="258.444" cy="153.786" rx="146.796" ry="146.577"/><g transform="translate(96)"><mask id="j"><use xlink:href="#i"/></mask><use transform="matrix(-1 0 0 1 321.126 0)" xlink:href="#i"/><g mask="url(#j)"><path d="M115.488 258.542c42.745 16.408 86.072 7.11 96.773-20.766 10.702-27.877-15.275-63.778-58.02-80.186-42.745-16.408-86.072-7.11-96.773 20.766-10.7 27.877 15.276 63.778 58.02 80.186zM170.207 71.695c18.49 14.447 42.25 14.934 53.068 1.088C234.092 58.937 227.872 36 209.38 21.555c-18.49-14.447-42.25-14.934-53.067-1.09-10.818 13.847-4.597 36.783 13.894 51.23z" id="Oval-1499" opacity=".65" fill="#ADC297"/><path d="M88.64 69.428c6.347 4.96 13.935 5.856 16.946 2 3.012-3.853.307-11-6.04-15.96-6.35-4.958-13.937-5.854-16.95-2-3.01 3.855-.305 11 6.043 15.96zM65.808 75.585c-1.366 3.97.137 8.086 3.357 9.195 3.22 1.11 6.94-1.21 8.307-5.18 1.366-3.968-.137-8.085-3.357-9.194-3.22-1.11-6.94 1.21-8.307 5.18zM160.51 284.225c1.425 5.314 9.894 7.662 18.917 5.244 9.023-2.418 15.183-8.686 13.76-14-1.425-5.315-9.894-7.663-18.917-5.245-9.023 2.417-15.183 8.685-13.76 14zM258.56 180.746c-1.05 5.4 5.532 11.224 14.702 13.006 9.17 1.783 17.454-1.15 18.504-6.55 1.05-5.402-5.533-11.225-14.703-13.007-9.17-1.783-17.454 1.15-18.503 6.55z" fill="#759653"/><g stroke="#B3CC99" stroke-width="2.43"><path d="M27.467 249.152c8.115-32.127 24.403-51.675 56.363-56.23 6.854-.977 16.733.304 23.123-2.884 15.617-7.79 8.116-34.048 18.788-44.695 3.99-3.98 9.9-4.483 14.453-7.21 6.14-3.674 12.312-7.742 20.233-5.766 4.637 1.156 25.96 5.715 28.904 8.65 6.095 6.08 14.052 18.544 23.123 23.07 4.55 2.268 15.682 2.668 18.787 5.766 6.26 6.244 2.393 15.222 15.898 12.976 54.38-9.043 48.506-43.255 76.595-43.255"/><path d="M213.898 166.97c-22.53 26.468 2.26 40.624-2.89 66.322-1.686 8.408-10.496 12.823-14.452 18.743-8.282 12.394-42.144 24.278-50.582 15.86-.7-.7-2.286-6.003-2.89-7.21-6.526-13.02-30.18-21.57-43.357-25.95-6.956-2.315-9.155-16.344-13.006-20.186-6.244-6.23-19.146-10.452-24.568-15.86-4.98-4.97-.49-16.35-4.335-20.186-4.78-4.77-11.488-6.986-14.452-15.86C39.4 150.78 35.66 134.772 27.467 126.6c-.348-.348-37.49-5.005-41.91-7.21"/><path d="M213.898 168.41c0-5.766-.384-11.546 0-17.3.38-5.684 8.28-8.92 10.116-14.418 7.033-21.05 7.677-38.386 18.788-60.555.53-1.057 2.987-5.67 1.445-7.21-8.163-8.144-44.492-9.938-56.363-15.86-6.995-3.49-15.635-15.598-20.232-20.184-1.375-1.372 32.01-33.59 33.24-36.045"/><path d="M30.358 130.925c16.098-22.09 44.73-28.765 62.143-46.138 4.758-4.745 6.798-11.106 11.563-15.86 19.01-18.965 53.35-2.64 69.37-34.602"/><path d="M211.008 237.617c25.202 3.835 23.223 11.734 30.35 25.953 3.08 6.146 11.876 4.954 14.45 10.092 2.91 5.804-1.444 15.692-1.444 20.185"/><path d="M153.2 270.778c-16.558 13.57-44.69 17.19-56.363 28.836-3.723 3.715-3.727 8.878-5.78 12.976"/></g></g></g><path d="M79.502 227.66c-44.094 6.656-74.414 6.08-78.012-5.69-15.322-50.115 84.17-124.956 222.22-167.163C361.76 12.6 486.093 19.013 501.415 69.13c3.755 12.28-23.435 30.732-66.853 50.853 3.408-8.076 4.17-15.74 1.91-22.7-11.912-36.66-103.21-39.852-203.92-7.13-100.71 32.723-172.696 88.97-160.784 125.63 1.447 4.454 4.067 8.415 7.734 11.877z" opacity=".769" fill="#D0EBB5"/><path d="M56 250.5s-89-19 8-102 294-126 362-104c92 32 23 100.144 23 100.144S510 79.5 423 53.5c-62-13-215 0-352 101-87 73-15 96-15 96z" fill-opacity=".48" fill="#fff"/></g><text opacity=".255" font-family="Proxima Nova" font-size="24" font-weight="526" fill="#fff"><tspan x="603" y="122">Planet Beta</tspan></text><ellipse id="Oval-2143" stroke="#fff" stroke-width="3" cx="532.5" cy="186.5" rx="26.5" ry="26.5"/><ellipse id="Oval-2143" stroke="#fff" stroke-width="3" cx="853" cy="472.5" rx="26.5" ry="26.5"/><text opacity=".25" font-family="Proxima Nova" font-size="24" font-weight="526" fill="#fff"><tspan x="755" y="750">Planet Mindspace</tspan></text><text opacity=".25" font-family="Proxima Nova" font-size="24" font-weight="526" fill="#fff"><tspan x="0" y="613.373">iPhone app</tspan></text><text opacity=".25" font-family="Proxima Nova" font-size="24" font-weight="526" fill="#fff"><tspan x="200" y="894">Connecting</tspan><tspan x="200" y="923">other software</tspan></text><text opacity=".255" font-family="Proxima Nova" font-size="24" font-weight="526" fill="#fff"><tspan x="322.756" y="71">Planet Earth</tspan></text><text opacity=".25" font-family="Proxima Nova" font-size="24" font-weight="526" fill="#fff"><tspan x="604" y="953">Android app</tspan></text><text font-family="Proxima Nova" font-size="34" font-weight="526" fill="#fff"><tspan x="525.04" y="197">1</tspan></text><text font-family="Proxima Nova" font-size="34" font-weight="526" fill="#fff"><tspan x="843.885" y="483">2</tspan></text><g transform="translate(369.5 472)"><ellipse stroke="#fff" stroke-width="3" cx="27.5" cy="26.5" rx="26.5" ry="26.5"/><text font-family="Proxima Nova" font-size="34" font-weight="526" fill="#fff"><tspan x="18.742" y="37">3</tspan></text></g><g id="Line-+-Oval-2529" transform="rotate(-270 704 965) translate(696.5 866)" opacity=".5"><path d="M7 16.5V198" id="Line" stroke="#fff" stroke-width="2" stroke-linecap="square"/><circle id="Oval-2529" fill="#fff" cx="7.5" cy="8.5" r="7.5"/></g><g id="Line-+-Oval-2529" transform="rotate(-270 703 135) translate(695.5 36)" opacity=".5"><path d="M7 16.5V198" id="Line" stroke="#fff" stroke-width="2" stroke-linecap="square"/><circle id="Oval-2529" fill="#fff" cx="7.5" cy="8.5" r="7.5"/></g><g id="Line-+-Oval-2529" transform="rotate(-270 100 623.921) translate(92.5 524.921)" opacity=".5"><path d="M7 16.5V198" id="Line" stroke="#fff" stroke-width="2" stroke-linecap="square"/><circle id="Oval-2529" fill="#fff" cx="7.5" cy="8.5" r="7.5"/></g><g id="Line-+-Oval-2529" transform="matrix(0 1 1 0 626.5 752.873)" opacity=".5"><path d="M7 16.5v301" id="Line" stroke="#fff" stroke-width="2" stroke-linecap="square"/><circle id="Oval-2529" fill="#fff" cx="7.5" cy="8.5" r="7.5"/></g><g id="Line-+-Oval-2529" transform="matrix(0 1 1 0 124 927.363)" opacity=".5"><path d="M7 15.5V229" id="Line" stroke="#fff" stroke-width="2" stroke-linecap="square"/><circle id="Oval-2529" fill="#fff" cx="7.5" cy="7.5" r="7.5"/></g><g transform="matrix(0 1 1 0 270 77)" opacity=".5"><path d="M7 15.5V182" stroke="#fff" stroke-width="2" stroke-linecap="square"/><circle fill="#fff" cx="7.5" cy="7.5" r="7.5"/></g></g></g></g></svg>