<svg width="558" height="366" viewBox="0 0 558 366" xmlns="http://www.w3.org/2000/svg"><title>B004_earth_xs</title><desc>Created with Sketch.</desc><g fill="none" fill-rule="evenodd"><g><g><g transform="translate(0 .547)"><circle fill="#153F90" transform="matrix(-1 0 0 1 365 0)" cx="182.5" cy="182.5" r="182.5"/><circle fill="#08569E" transform="matrix(-1 0 0 1 379.416 0)" cx="189.708" cy="181.845" r="175.292"/><path d="M186.672 293.573c13.106-13.106 36.697-1.31 30.144-39.973-6.553-38.663-30.144-63.564-43.25-55.7-13.106 7.863-18.64 7.262-30.8 12.45-12.158 5.188-1.31 9.174-22.28 13.106-20.968 3.932-49.146 12.45-38.66 35.386 10.483 22.935 18.347 50.458 32.764 65.53 14.416 15.07 65.53 38.662 72.082 31.454 6.553-7.208-13.106-49.147 0-62.253z" fill="#86B34D"/><path stroke="#979797" stroke-width=".525"/><path d="M269.327 256.22s10.484-20.313 22.935-28.832c12.45-8.52 41.284-19.66 41.284-38.663 0-19.003 13.76-87.81-13.76-114.677-27.524-26.867-43.25-57.01-66.186-57.01-22.936 0-14.417 24.246-24.902 28.833-10.484 4.588-49.802 51.114-49.802 38.008 0-13.106-10.485-32.11-26.867-12.45-16.384 19.658-35.387 45.87-17.694 45.87s17.693 13.106 39.973 24.9c22.28 11.797 69.46 24.903 65.528 38.008-3.93 13.106-6.553 31.455-15.07 38.008 3.275 0 20.968-29.49 28.176-29.49 7.21 0 40.63 1.967 37.352 13.107-3.276 11.14-24.246 28.18-24.246 36.043 0 7.863-21.107-1.966-27.522 1.31-6.415 3.277 7.863 30.144 2.62 37.352-5.24 7.208 26.213-13.76 26.213-13.76" fill="#86B34D"/><path d="M50.583 71.288S68.276 114.842 65 128.138c-3.277 13.295-.656 44.93-.656 44.93s-2.62 23.38-22.935 23.38c-20.315 0-43.376-51.628-17.164-102.74 26.212-51.114 26.337-22.42 26.337-22.42z" fill="#86B34E"/></g><text opacity=".255" font-family="Proxima Nova" font-size="24" font-weight="526" fill="#fff" transform="translate(-124 -407) translate(124 407)"><tspan x="428.756" y="264.928">Planet Earth</tspan></text><g transform="matrix(0 1 1 0 286 267.428)" opacity=".5"><path d="M7 15v256" stroke="#fff" stroke-width="2" stroke-linecap="square"/><circle fill="#fff" cx="7.5" cy="7.5" r="7.5"/></g></g></g></g></svg>