<svg width="314" height="409" viewBox="0 0 314 409" xmlns="http://www.w3.org/2000/svg"><title>B005_beta_xs</title><desc>Created with Sketch.</desc><g fill="none" fill-rule="evenodd"><g><g transform="translate(-1180 -328) translate(1180 326)"><text opacity=".255" font-family="Proxima Nova" font-size="24" font-weight="526" fill="#fff"><tspan x="105.188" y="398">Planet Beta</tspan></text><g transform="translate(.75 .165)"><g transform="translate(.209 2.808)"><ellipse fill="#8B293F" transform="matrix(-1 0 0 1 312.394 0)" cx="156.197" cy="156.197" rx="156.197" ry="156.197"/><ellipse fill="#AC3852" transform="matrix(-1 0 0 1 324.612 0)" cx="162.306" cy="148.535" rx="142.737" ry="142.737"/><path stroke="#979797" stroke-width=".6"/></g><ellipse id="Oval-1490" opacity=".321" fill="#E4D4BA" cx="198.176" cy="91.963" rx="57.565" ry="41.419"/><path d="M89.42 144.704c26.604-14.747 40.122-41.222 30.194-59.133-9.928-17.91-39.544-20.475-66.148-5.728-26.604 14.747-40.123 41.222-30.195 59.133 9.93 17.91 39.545 20.476 66.15 5.73z" opacity=".321" fill="#D47D87"/><ellipse opacity=".321" fill="#D47D87" cx="158.161" cy="248.511" rx="42.823" ry="26.676"/><ellipse opacity=".321" fill="#FEDEA6" cx="252.29" cy="183.926" rx="21.168" ry="52.513"/><path d="M129.523 193.666c13.59-6.628 21.714-17.934 18.145-25.252-3.57-7.317-17.48-7.876-31.07-1.248-13.59 6.63-21.714 17.934-18.145 25.252 3.57 7.318 17.48 7.877 31.07 1.248zM137.69 47.72c7.355-.384 13.055-5.72 12.73-11.914-.324-6.194-6.55-10.904-13.907-10.518-7.356.385-13.057 5.72-12.732 11.915.326 6.194 6.552 10.904 13.91 10.518zM199.465 195.143c7.357-.385 13.057-5.72 12.733-11.915-.325-6.195-6.552-10.904-13.908-10.518-7.357.385-13.057 5.72-12.732 11.914.324 6.195 6.55 10.905 13.907 10.52z" opacity=".321" fill="#FEDEA6"/></g><circle opacity=".5" fill="#fff" transform="matrix(-1 0 0 1 152.5 0)" cx="76.25" cy="221.236" r="7.5"/><path d="M76.373 228.576v180.54h151.61" stroke="#fff" stroke-width="2" opacity=".5"/></g></g></g></svg>