<svg width="503" height="484" viewBox="0 0 503 484" xmlns="http://www.w3.org/2000/svg" xmlns:xlink="http://www.w3.org/1999/xlink"><title>B006_mindspace_xs</title><desc>Created with Sketch.</desc><defs><ellipse id="a" cx="54.352" cy="54.271" rx="54.159" ry="54.078"/><ellipse id="c" cx="54.352" cy="54.271" rx="54.159" ry="54.078"/><ellipse id="e" cx="36.65" cy="36.595" rx="36.52" ry="36.466"/><ellipse id="g" cx="36.65" cy="36.595" rx="36.52" ry="36.466"/><ellipse id="i" cx="36.65" cy="36.595" rx="36.52" ry="36.466"/><ellipse id="k" cx="160.563" cy="160.323" rx="159.993" ry="159.755"/><ellipse id="m" cx="59.645" cy="59.556" rx="59.433" ry="59.344"/></defs><g fill="none" fill-rule="evenodd"><g><g transform="translate(-1788 -135) translate(1788 135)"><g id="Group-+-Oval-94-+-Group-+-Group" transform="translate(0 1)"><g id="Group"><ellipse id="Oval-93" fill="#C99D59" transform="matrix(-1 0 0 1 108.756 0)" cx="54.378" cy="54.297" rx="54.378" ry="54.297"/><path id="Path-324" stroke="#979797" stroke-width=".5"/></g><ellipse id="Oval-94" fill="#E2B26A" transform="matrix(-1 0 0 1 109.978 0)" cx="54.989" cy="52.058" rx="49.692" ry="49.618"/><g id="Group-+-Group"><mask id="b"><use xlink:href="#a"/></mask><use id="Mask" transform="matrix(-1 0 0 1 108.704 0)" xlink:href="#a"/><g mask="url(#b)" id="Group"><path d="M39.093 87.52c14.47 5.554 29.136 2.406 32.76-7.03 3.62-9.437-5.172-21.59-19.642-27.144-14.468-5.554-29.135-2.407-32.757 7.03-3.623 9.436 5.17 21.59 19.64 27.143zM57.616 24.27c6.26 4.89 14.302 5.055 17.964.368 3.662-4.687 1.556-12.45-4.703-17.34-6.26-4.892-14.302-5.057-17.964-.37-3.662 4.687-1.556 12.45 4.703 17.342z" id="Oval-1499" opacity=".65" fill="#E3BD83"/><path d="M30.005 23.502c2.148 1.68 4.717 1.982 5.736.678 1.02-1.305.105-3.724-2.044-5.403-2.15-1.68-4.717-1.982-5.737-.677-1.02 1.305-.104 3.723 2.045 5.402zM22.276 25.586c-.463 1.344.046 2.738 1.137 3.113 1.09.374 2.35-.41 2.81-1.754.464-1.344-.045-2.737-1.135-3.113-1.09-.375-2.35.41-2.812 1.753zM54.334 96.213c.482 1.8 3.35 2.594 6.403 1.775 3.054-.818 5.14-2.94 4.658-4.74-.482-1.798-3.35-2.593-6.404-1.774-3.053.818-5.138 2.94-4.656 4.74zM87.524 61.185c-.355 1.828 1.873 3.8 4.977 4.402 3.105.604 5.91-.39 6.265-2.218.355-1.83-1.873-3.8-4.977-4.403-3.104-.604-5.908.39-6.264 2.218z" id="Oval-1499" fill="#BF924E"/><g stroke="#D5A65E" stroke-width=".972"><path d="M9.297 84.34c2.747-10.876 8.26-17.493 19.08-19.035 2.32-.33 5.664.103 7.827-.976 5.287-2.638 2.747-11.527 6.36-15.13 1.35-1.347 3.35-1.518 4.892-2.44 2.078-1.245 4.168-2.622 6.85-1.953 1.57.39 8.787 1.934 9.783 2.928 2.063 2.058 4.756 6.277 7.827 7.81 1.54.767 5.308.902 6.36 1.95 2.118 2.115.81 5.154 5.38 4.394 18.41-3.062 16.42-14.643 25.93-14.643" id="Path-705"/><path d="M72.406 56.52c-7.626 8.96.765 13.752-.978 22.45-.57 2.847-3.553 4.342-4.893 6.346-2.803 4.195-14.266 8.218-17.122 5.368-.237-.236-.774-2.032-.978-2.44-2.21-4.407-10.216-7.302-14.677-8.785-2.355-.784-3.1-5.533-4.403-6.834-2.114-2.11-6.48-3.538-8.316-5.368-1.687-1.682-.167-5.535-1.47-6.833-1.617-1.615-3.888-2.365-4.89-5.37-1.343-4.015-2.61-9.434-5.383-12.2-.117-.118-12.69-1.695-14.187-2.44" id="Path-706"/><path d="M72.406 57.008c0-1.952-.13-3.91 0-5.856.13-1.924 2.803-3.02 3.425-4.88 2.38-7.126 2.6-12.995 6.36-20.5.18-.357 1.01-1.92.49-2.44-2.764-2.757-15.06-3.364-19.08-5.37-2.368-1.18-5.293-5.28-6.85-6.83-.464-.466 10.837-11.372 11.253-12.203" id="Path-707"/><path d="M10.276 44.32c5.45-7.48 15.14-9.738 21.036-15.62 1.61-1.606 2.3-3.76 3.914-5.368 6.435-6.42 18.06-.894 23.482-11.713" id="Path-708"/><path d="M71.428 80.435c8.53 1.298 7.86 3.972 10.273 8.785 1.044 2.08 4.022 1.677 4.893 3.417.985 1.964-.49 5.31-.49 6.832" id="Path-709"/><path d="M51.86 91.66c-5.606 4.594-15.13 5.82-19.08 9.762-1.26 1.257-1.262 3.005-1.957 4.392" id="Path-710"/></g></g></g></g><g transform="translate(0 .886)"><g id="Group"><ellipse id="Oval-93" fill="#C99D59" transform="matrix(-1 0 0 1 108.756 0)" cx="54.378" cy="54.297" rx="54.378" ry="54.297"/><path id="Path-324" stroke="#979797" stroke-width=".5"/></g><ellipse id="Oval-94" fill="#E2B26A" transform="matrix(-1 0 0 1 109.978 0)" cx="54.989" cy="52.058" rx="49.692" ry="49.618"/><g id="Group-+-Group"><mask id="d"><use xlink:href="#c"/></mask><use id="Mask" transform="matrix(-1 0 0 1 108.704 0)" xlink:href="#c"/><g mask="url(#d)" id="Group"><path d="M39.093 87.52c14.47 5.554 29.136 2.406 32.76-7.03 3.62-9.437-5.172-21.59-19.642-27.144-14.468-5.554-29.135-2.407-32.757 7.03-3.623 9.436 5.17 21.59 19.64 27.143zM57.616 24.27c6.26 4.89 14.302 5.055 17.964.368 3.662-4.687 1.556-12.45-4.703-17.34-6.26-4.892-14.302-5.057-17.964-.37-3.662 4.687-1.556 12.45 4.703 17.342z" id="Oval-1499" opacity=".65" fill="#E3BD83"/><path d="M30.005 23.502c2.148 1.68 4.717 1.982 5.736.678 1.02-1.305.105-3.724-2.044-5.403-2.15-1.68-4.717-1.982-5.737-.677-1.02 1.305-.104 3.723 2.045 5.402zM22.276 25.586c-.463 1.344.046 2.738 1.137 3.113 1.09.374 2.35-.41 2.81-1.754.464-1.344-.045-2.737-1.135-3.113-1.09-.375-2.35.41-2.812 1.753zM54.334 96.213c.482 1.8 3.35 2.594 6.403 1.775 3.054-.818 5.14-2.94 4.658-4.74-.482-1.798-3.35-2.593-6.404-1.774-3.053.818-5.138 2.94-4.656 4.74zM87.524 61.185c-.355 1.828 1.873 3.8 4.977 4.402 3.105.604 5.91-.39 6.265-2.218.355-1.83-1.873-3.8-4.977-4.403-3.104-.604-5.908.39-6.264 2.218z" id="Oval-1499" fill="#BF924E"/><g stroke="#D5A65E" stroke-width=".972"><path d="M9.297 84.34c2.747-10.876 8.26-17.493 19.08-19.035 2.32-.33 5.664.103 7.827-.976 5.287-2.638 2.747-11.527 6.36-15.13 1.35-1.347 3.35-1.518 4.892-2.44 2.078-1.245 4.168-2.622 6.85-1.953 1.57.39 8.787 1.934 9.783 2.928 2.063 2.058 4.756 6.277 7.827 7.81 1.54.767 5.308.902 6.36 1.95 2.118 2.115.81 5.154 5.38 4.394 18.41-3.062 16.42-14.643 25.93-14.643" id="Path-705"/><path d="M72.406 56.52c-7.626 8.96.765 13.752-.978 22.45-.57 2.847-3.553 4.342-4.893 6.346-2.803 4.195-14.266 8.218-17.122 5.368-.237-.236-.774-2.032-.978-2.44-2.21-4.407-10.216-7.302-14.677-8.785-2.355-.784-3.1-5.533-4.403-6.834-2.114-2.11-6.48-3.538-8.316-5.368-1.687-1.682-.167-5.535-1.47-6.833-1.617-1.615-3.888-2.365-4.89-5.37-1.343-4.015-2.61-9.434-5.383-12.2-.117-.118-12.69-1.695-14.187-2.44" id="Path-706"/><path d="M72.406 57.008c0-1.952-.13-3.91 0-5.856.13-1.924 2.803-3.02 3.425-4.88 2.38-7.126 2.6-12.995 6.36-20.5.18-.357 1.01-1.92.49-2.44-2.764-2.757-15.06-3.364-19.08-5.37-2.368-1.18-5.293-5.28-6.85-6.83-.464-.466 10.837-11.372 11.253-12.203" id="Path-707"/><path d="M10.276 44.32c5.45-7.48 15.14-9.738 21.036-15.62 1.61-1.606 2.3-3.76 3.914-5.368 6.435-6.42 18.06-.894 23.482-11.713" id="Path-708"/><path d="M71.428 80.435c8.53 1.298 7.86 3.972 10.273 8.785 1.044 2.08 4.022 1.677 4.893 3.417.985 1.964-.49 5.31-.49 6.832" id="Path-709"/><path d="M51.86 91.66c-5.606 4.594-15.13 5.82-19.08 9.762-1.26 1.257-1.262 3.005-1.957 4.392" id="Path-710"/></g></g></g></g><circle id="Oval-2529" opacity=".5" fill="#fff" transform="matrix(-1 0 0 1 410.5 0)" cx="205.25" cy="234.005" r="6.5"/><g id="Group-+-Oval-94-+-Group-+-Group" transform="translate(24.75 350.653)"><g id="Group"><ellipse id="Oval-93" fill="#C99D59" transform="matrix(-1 0 0 1 73.336 0)" cx="36.668" cy="36.613" rx="36.668" ry="36.613"/><path id="Path-324" stroke="#979797" stroke-width=".5"/></g><ellipse id="Oval-94" fill="#E2B26A" transform="matrix(-1 0 0 1 74.16 0)" cx="37.08" cy="35.103" rx="33.508" ry="33.458"/><g id="Group-+-Group"><mask id="f"><use xlink:href="#e"/></mask><use id="Mask" transform="matrix(-1 0 0 1 73.3 0)" xlink:href="#e"/><g mask="url(#f)" id="Group"><path d="M26.36 59.015c9.758 3.745 19.648 1.623 22.09-4.74 2.443-6.364-3.486-14.558-13.243-18.304-9.757-3.744-19.647-1.622-22.09 4.74-2.442 6.365 3.487 14.56 13.244 18.305zM38.85 16.365c4.222 3.297 9.645 3.41 12.115.248 2.47-3.16 1.05-8.396-3.172-11.693-4.22-3.298-9.644-3.41-12.113-.25-2.47 3.162-1.05 8.397 3.17 11.695z" id="Oval-1499" opacity=".65" fill="#E3BD83"/><path d="M20.232 15.847c1.45 1.132 3.18 1.337 3.87.457.686-.88.07-2.51-1.38-3.643-1.45-1.13-3.18-1.335-3.87-.456-.686.88-.07 2.51 1.38 3.643zM15.02 17.253c-.31.906.032 1.845.767 2.1.736.252 1.584-.278 1.896-1.184.312-.907-.03-1.846-.766-2.1-.735-.253-1.584.277-1.896 1.183zM36.638 64.877c.325 1.213 2.258 1.75 4.318 1.197 2.06-.552 3.465-1.982 3.14-3.195-.325-1.215-2.258-1.75-4.317-1.2-2.06.553-3.467 1.984-3.142 3.197zM59.02 41.257c-.24 1.233 1.262 2.562 3.355 2.97 2.093.406 3.984-.264 4.223-1.497.24-1.232-1.263-2.562-3.356-2.97-2.093-.405-3.984.264-4.223 1.497z" id="Oval-1499" fill="#BF924E"/><g stroke="#D5A65E" stroke-width=".972"><path d="M6.27 56.87c1.85-7.332 5.57-11.794 12.865-12.834 1.564-.223 3.82.07 5.278-.658 3.564-1.778 1.852-7.772 4.288-10.202.91-.91 2.26-1.024 3.3-1.646 1.4-.84 2.81-1.767 4.618-1.316 1.06.264 5.926 1.304 6.598 1.974 1.39 1.388 3.208 4.233 5.278 5.266 1.04.518 3.58.61 4.29 1.316 1.427 1.426.545 3.475 3.627 2.962 12.414-2.064 11.074-9.873 17.485-9.873" id="Path-705"/><path d="M48.824 38.112c-5.143 6.042.516 9.273-.66 15.14-.385 1.918-2.396 2.926-3.3 4.277-1.89 2.828-9.618 5.54-11.544 3.62-.16-.16-.522-1.37-.66-1.646-1.49-2.972-6.89-4.924-9.897-5.924-1.588-.528-2.09-3.73-2.97-4.607-1.424-1.422-4.37-2.386-5.607-3.62-1.136-1.135-.112-3.732-.99-4.608-1.09-1.09-2.62-1.595-3.298-3.62-.905-2.708-1.76-6.362-3.63-8.228-.078-.08-8.557-1.142-9.565-1.645" id="Path-706"/><path d="M48.824 38.44c0-1.315-.088-2.634 0-3.948.087-1.297 1.89-2.036 2.31-3.29 1.605-4.806 1.75-8.763 4.288-13.823.12-.243.68-1.296.33-1.647-1.864-1.86-10.156-2.268-12.866-3.62-1.597-.797-3.57-3.56-4.618-4.608-.314-.313 7.306-7.667 7.587-8.227" id="Path-707"/><path d="M6.93 29.885c3.674-5.042 10.21-6.566 14.184-10.532 1.086-1.083 1.55-2.535 2.64-3.62 4.338-4.33 12.177-.603 15.833-7.898" id="Path-708"/><path d="M48.164 54.238c5.753.876 5.3 2.68 6.928 5.924.703 1.403 2.71 1.13 3.3 2.304.663 1.325-.33 3.582-.33 4.607" id="Path-709"/><path d="M34.97 61.808c-3.78 3.097-10.202 3.924-12.866 6.582-.85.848-.85 2.026-1.32 2.962" id="Path-710"/></g></g></g></g><g transform="translate(24.75 350.653)"><g id="Group"><ellipse id="Oval-93" fill="#C99D59" transform="matrix(-1 0 0 1 73.336 0)" cx="36.668" cy="36.613" rx="36.668" ry="36.613"/><path id="Path-324" stroke="#979797" stroke-width=".5"/></g><ellipse id="Oval-94" fill="#E2B26A" transform="matrix(-1 0 0 1 74.16 0)" cx="37.08" cy="35.103" rx="33.508" ry="33.458"/><g id="Group-+-Group"><mask id="h"><use xlink:href="#g"/></mask><use id="Mask" transform="matrix(-1 0 0 1 73.3 0)" xlink:href="#g"/><g mask="url(#h)" id="Group"><path d="M26.36 59.015c9.758 3.745 19.648 1.623 22.09-4.74 2.443-6.364-3.486-14.558-13.243-18.304-9.757-3.744-19.647-1.622-22.09 4.74-2.442 6.365 3.487 14.56 13.244 18.305zM38.85 16.365c4.222 3.297 9.645 3.41 12.115.248 2.47-3.16 1.05-8.396-3.172-11.693-4.22-3.298-9.644-3.41-12.113-.25-2.47 3.162-1.05 8.397 3.17 11.695z" id="Oval-1499" opacity=".65" fill="#E3BD83"/><path d="M20.232 15.847c1.45 1.132 3.18 1.337 3.87.457.686-.88.07-2.51-1.38-3.643-1.45-1.13-3.18-1.335-3.87-.456-.686.88-.07 2.51 1.38 3.643zM15.02 17.253c-.31.906.032 1.845.767 2.1.736.252 1.584-.278 1.896-1.184.312-.907-.03-1.846-.766-2.1-.735-.253-1.584.277-1.896 1.183zM36.638 64.877c.325 1.213 2.258 1.75 4.318 1.197 2.06-.552 3.465-1.982 3.14-3.195-.325-1.215-2.258-1.75-4.317-1.2-2.06.553-3.467 1.984-3.142 3.197zM59.02 41.257c-.24 1.233 1.262 2.562 3.355 2.97 2.093.406 3.984-.264 4.223-1.497.24-1.232-1.263-2.562-3.356-2.97-2.093-.405-3.984.264-4.223 1.497z" id="Oval-1499" fill="#BF924E"/><g stroke="#D5A65E" stroke-width=".972"><path d="M6.27 56.87c1.85-7.332 5.57-11.794 12.865-12.834 1.564-.223 3.82.07 5.278-.658 3.564-1.778 1.852-7.772 4.288-10.202.91-.91 2.26-1.024 3.3-1.646 1.4-.84 2.81-1.767 4.618-1.316 1.06.264 5.926 1.304 6.598 1.974 1.39 1.388 3.208 4.233 5.278 5.266 1.04.518 3.58.61 4.29 1.316 1.427 1.426.545 3.475 3.627 2.962 12.414-2.064 11.074-9.873 17.485-9.873" id="Path-705"/><path d="M48.824 38.112c-5.143 6.042.516 9.273-.66 15.14-.385 1.918-2.396 2.926-3.3 4.277-1.89 2.828-9.618 5.54-11.544 3.62-.16-.16-.522-1.37-.66-1.646-1.49-2.972-6.89-4.924-9.897-5.924-1.588-.528-2.09-3.73-2.97-4.607-1.424-1.422-4.37-2.386-5.607-3.62-1.136-1.135-.112-3.732-.99-4.608-1.09-1.09-2.62-1.595-3.298-3.62-.905-2.708-1.76-6.362-3.63-8.228-.078-.08-8.557-1.142-9.565-1.645" id="Path-706"/><path d="M48.824 38.44c0-1.315-.088-2.634 0-3.948.087-1.297 1.89-2.036 2.31-3.29 1.605-4.806 1.75-8.763 4.288-13.823.12-.243.68-1.296.33-1.647-1.864-1.86-10.156-2.268-12.866-3.62-1.597-.797-3.57-3.56-4.618-4.608-.314-.313 7.306-7.667 7.587-8.227" id="Path-707"/><path d="M6.93 29.885c3.674-5.042 10.21-6.566 14.184-10.532 1.086-1.083 1.55-2.535 2.64-3.62 4.338-4.33 12.177-.603 15.833-7.898" id="Path-708"/><path d="M48.164 54.238c5.753.876 5.3 2.68 6.928 5.924.703 1.403 2.71 1.13 3.3 2.304.663 1.325-.33 3.582-.33 4.607" id="Path-709"/><path d="M34.97 61.808c-3.78 3.097-10.202 3.924-12.866 6.582-.85.848-.85 2.026-1.32 2.962" id="Path-710"/></g></g></g></g><g transform="translate(24.75 350.653)"><g id="Group"><ellipse id="Oval-93" fill="#C99D59" transform="matrix(-1 0 0 1 73.336 0)" cx="36.668" cy="36.613" rx="36.668" ry="36.613"/><path id="Path-324" stroke="#979797" stroke-width=".5"/></g><ellipse id="Oval-94" fill="#E2B26A" transform="matrix(-1 0 0 1 74.16 0)" cx="37.08" cy="35.103" rx="33.508" ry="33.458"/><g id="Group-+-Group"><mask id="j"><use xlink:href="#i"/></mask><use id="Mask" transform="matrix(-1 0 0 1 73.3 0)" xlink:href="#i"/><g mask="url(#j)" id="Group"><path d="M26.36 59.015c9.758 3.745 19.648 1.623 22.09-4.74 2.443-6.364-3.486-14.558-13.243-18.304-9.757-3.744-19.647-1.622-22.09 4.74-2.442 6.365 3.487 14.56 13.244 18.305zM38.85 16.365c4.222 3.297 9.645 3.41 12.115.248 2.47-3.16 1.05-8.396-3.172-11.693-4.22-3.298-9.644-3.41-12.113-.25-2.47 3.162-1.05 8.397 3.17 11.695z" id="Oval-1499" opacity=".65" fill="#E3BD83"/><path d="M20.232 15.847c1.45 1.132 3.18 1.337 3.87.457.686-.88.07-2.51-1.38-3.643-1.45-1.13-3.18-1.335-3.87-.456-.686.88-.07 2.51 1.38 3.643zM15.02 17.253c-.31.906.032 1.845.767 2.1.736.252 1.584-.278 1.896-1.184.312-.907-.03-1.846-.766-2.1-.735-.253-1.584.277-1.896 1.183zM36.638 64.877c.325 1.213 2.258 1.75 4.318 1.197 2.06-.552 3.465-1.982 3.14-3.195-.325-1.215-2.258-1.75-4.317-1.2-2.06.553-3.467 1.984-3.142 3.197zM59.02 41.257c-.24 1.233 1.262 2.562 3.355 2.97 2.093.406 3.984-.264 4.223-1.497.24-1.232-1.263-2.562-3.356-2.97-2.093-.405-3.984.264-4.223 1.497z" id="Oval-1499" fill="#BF924E"/><g stroke="#D5A65E" stroke-width=".972"><path d="M6.27 56.87c1.85-7.332 5.57-11.794 12.865-12.834 1.564-.223 3.82.07 5.278-.658 3.564-1.778 1.852-7.772 4.288-10.202.91-.91 2.26-1.024 3.3-1.646 1.4-.84 2.81-1.767 4.618-1.316 1.06.264 5.926 1.304 6.598 1.974 1.39 1.388 3.208 4.233 5.278 5.266 1.04.518 3.58.61 4.29 1.316 1.427 1.426.545 3.475 3.627 2.962 12.414-2.064 11.074-9.873 17.485-9.873" id="Path-705"/><path d="M48.824 38.112c-5.143 6.042.516 9.273-.66 15.14-.385 1.918-2.396 2.926-3.3 4.277-1.89 2.828-9.618 5.54-11.544 3.62-.16-.16-.522-1.37-.66-1.646-1.49-2.972-6.89-4.924-9.897-5.924-1.588-.528-2.09-3.73-2.97-4.607-1.424-1.422-4.37-2.386-5.607-3.62-1.136-1.135-.112-3.732-.99-4.608-1.09-1.09-2.62-1.595-3.298-3.62-.905-2.708-1.76-6.362-3.63-8.228-.078-.08-8.557-1.142-9.565-1.645" id="Path-706"/><path d="M48.824 38.44c0-1.315-.088-2.634 0-3.948.087-1.297 1.89-2.036 2.31-3.29 1.605-4.806 1.75-8.763 4.288-13.823.12-.243.68-1.296.33-1.647-1.864-1.86-10.156-2.268-12.866-3.62-1.597-.797-3.57-3.56-4.618-4.608-.314-.313 7.306-7.667 7.587-8.227" id="Path-707"/><path d="M6.93 29.885c3.674-5.042 10.21-6.566 14.184-10.532 1.086-1.083 1.55-2.535 2.64-3.62 4.338-4.33 12.177-.603 15.833-7.898" id="Path-708"/><path d="M48.164 54.238c5.753.876 5.3 2.68 6.928 5.924.703 1.403 2.71 1.13 3.3 2.304.663 1.325-.33 3.582-.33 4.607" id="Path-709"/><path d="M34.97 61.808c-3.78 3.097-10.202 3.924-12.866 6.582-.85.848-.85 2.026-1.32 2.962" id="Path-710"/></g></g></g></g><g transform="translate(0 114.886)"><path d="M279.35 237.09C417.31 194.91 516.682 119.937 501.3 69.63c-15.38-50.308-139.69-56.898-277.65-14.72C85.688 97.09-13.684 172.065 1.697 222.373c15.38 50.308 139.69 56.898 277.65 14.72zm-3.743-13.436C376.252 190.952 448.15 134.61 436.19 97.81c-11.956-36.8-103.238-40.124-203.884-7.422C131.66 123.09 59.766 179.432 71.722 216.233c11.957 36.8 103.24 40.122 203.885 7.42z" fill="#D0EBB5"/><g id="Group" transform="translate(96)"><ellipse id="Oval-93" fill="#759653" transform="matrix(-1 0 0 1 321.278 0)" cx="160.639" cy="160.399" rx="160.639" ry="160.399"/><path id="Path-324" stroke="#979797" stroke-width=".5"/></g><ellipse id="Oval-94" fill="#91B170" transform="matrix(-1 0 0 1 516.888 0)" cx="258.444" cy="153.786" rx="146.796" ry="146.577"/><g id="Group-+-Group" transform="translate(96)"><mask id="l"><use xlink:href="#k"/></mask><use id="Mask" transform="matrix(-1 0 0 1 321.126 0)" xlink:href="#k"/><g mask="url(#l)" id="Group"><path d="M115.488 258.542c42.745 16.408 86.072 7.11 96.773-20.766 10.702-27.877-15.275-63.778-58.02-80.186-42.745-16.408-86.072-7.11-96.773 20.766-10.7 27.877 15.276 63.778 58.02 80.186zM170.207 71.695c18.49 14.447 42.25 14.934 53.068 1.088C234.092 58.937 227.872 36 209.38 21.555c-18.49-14.447-42.25-14.934-53.067-1.09-10.818 13.847-4.597 36.783 13.894 51.23z" id="Oval-1499" opacity=".65" fill="#ADC297"/><path d="M88.64 69.428c6.347 4.96 13.935 5.856 16.946 2 3.012-3.853.307-11-6.04-15.96-6.35-4.958-13.937-5.854-16.95-2-3.01 3.855-.305 11 6.043 15.96zM65.808 75.585c-1.366 3.97.137 8.086 3.357 9.195 3.22 1.11 6.94-1.21 8.307-5.18 1.366-3.968-.137-8.085-3.357-9.194-3.22-1.11-6.94 1.21-8.307 5.18zM160.51 284.225c1.425 5.314 9.894 7.662 18.917 5.244 9.023-2.418 15.183-8.686 13.76-14-1.425-5.315-9.894-7.663-18.917-5.245-9.023 2.417-15.183 8.685-13.76 14zM258.56 180.746c-1.05 5.4 5.532 11.224 14.702 13.006 9.17 1.783 17.454-1.15 18.504-6.55 1.05-5.402-5.533-11.225-14.703-13.007-9.17-1.783-17.454 1.15-18.503 6.55z" id="Oval-1499" fill="#759653"/><g stroke="#B3CC99" stroke-width="2.43"><path d="M27.467 249.152c8.115-32.127 24.403-51.675 56.363-56.23 6.854-.977 16.733.304 23.123-2.884 15.617-7.79 8.116-34.048 18.788-44.695 3.99-3.98 9.9-4.483 14.453-7.21 6.14-3.674 12.312-7.742 20.233-5.766 4.637 1.156 25.96 5.715 28.904 8.65 6.095 6.08 14.052 18.544 23.123 23.07 4.55 2.268 15.682 2.668 18.787 5.766 6.26 6.244 2.393 15.222 15.898 12.976 54.38-9.043 48.506-43.255 76.595-43.255" id="Path-705"/><path d="M213.898 166.97c-22.53 26.468 2.26 40.624-2.89 66.322-1.686 8.408-10.496 12.823-14.452 18.743-8.282 12.394-42.144 24.278-50.582 15.86-.7-.7-2.286-6.003-2.89-7.21-6.526-13.02-30.18-21.57-43.357-25.95-6.956-2.315-9.155-16.344-13.006-20.186-6.244-6.23-19.146-10.452-24.568-15.86-4.98-4.97-.49-16.35-4.335-20.186-4.78-4.77-11.488-6.986-14.452-15.86C39.4 150.78 35.66 134.772 27.467 126.6c-.348-.348-37.49-5.005-41.91-7.21" id="Path-706"/><path d="M213.898 168.41c0-5.766-.384-11.546 0-17.3.38-5.684 8.28-8.92 10.116-14.418 7.033-21.05 7.677-38.386 18.788-60.555.53-1.057 2.987-5.67 1.445-7.21-8.163-8.144-44.492-9.938-56.363-15.86-6.995-3.49-15.635-15.598-20.232-20.184-1.375-1.372 32.01-33.59 33.24-36.045" id="Path-707"/><path d="M30.358 130.925c16.098-22.09 44.73-28.765 62.143-46.138 4.758-4.745 6.798-11.106 11.563-15.86 19.01-18.965 53.35-2.64 69.37-34.602" id="Path-708"/><path d="M211.008 237.617c25.202 3.835 23.223 11.734 30.35 25.953 3.08 6.146 11.876 4.954 14.45 10.092 2.91 5.804-1.444 15.692-1.444 20.185" id="Path-709"/><path d="M153.2 270.778c-16.558 13.57-44.69 17.19-56.363 28.836-3.723 3.715-3.727 8.878-5.78 12.976" id="Path-710"/></g></g></g><path d="M79.502 227.66c-44.094 6.656-74.414 6.08-78.012-5.69-15.322-50.115 84.17-124.956 222.22-167.163C361.76 12.6 486.093 19.013 501.415 69.13c3.755 12.28-23.435 30.732-66.853 50.853 3.408-8.076 4.17-15.74 1.91-22.7-11.912-36.66-103.21-39.852-203.92-7.13-100.71 32.723-172.696 88.97-160.784 125.63 1.447 4.454 4.067 8.415 7.734 11.877z" opacity=".769" fill="#D0EBB5"/><path d="M56 250.5s-89-19 8-102 294-126 362-104c92 32 23 100.144 23 100.144S510 79.5 423 53.5c-62-13-215 0-352 101-87 73-15 96-15 96z" fill-opacity=".48" fill="#fff"/></g><text opacity=".25" font-family="Proxima Nova" font-size="24" font-weight="526" fill="#fff"><tspan x="203" y="44.886">Planet Mindspace</tspan></text><path d="M203 237.886V54.964h189.027" stroke="#fff" stroke-width="2" opacity=".5"/><g transform="matrix(-1 0 0 1 210.5 237.345)" fill="#fff" opacity=".5"><circle cx="7.5" cy="7.5" r="7.5"/></g><g transform="translate(332.22 363.886)"><g id="Group"><ellipse fill="#C99D59" transform="matrix(-1 0 0 1 119.346 0)" cx="59.673" cy="59.584" rx="59.673" ry="59.584"/><path stroke="#979797" stroke-width=".5"/></g><ellipse fill="#E2B26A" transform="matrix(-1 0 0 1 120.686 0)" cx="60.343" cy="57.127" rx="54.531" ry="54.449"/><g><mask id="n"><use xlink:href="#m"/></mask><use transform="matrix(-1 0 0 1 119.29 0)" xlink:href="#m"/><g mask="url(#n)"><path d="M42.9 96.04c15.88 6.097 31.974 2.643 35.95-7.713 3.974-10.355-5.676-23.69-21.554-29.786-15.88-6.095-31.973-2.64-35.95 7.715C17.373 76.61 27.023 89.945 42.9 96.04zM63.227 26.633c6.87 5.367 15.695 5.548 19.713.404 4.02-5.143 1.708-13.663-5.16-19.03-6.87-5.366-15.696-5.547-19.714-.404-4.02 5.143-1.708 13.663 5.16 19.03z" id="Oval-1499" opacity=".65" fill="#E3BD83"/><path d="M32.927 25.79c2.358 1.843 5.176 2.176 6.295.744 1.12-1.432.114-4.086-2.244-5.928-2.358-1.843-5.177-2.176-6.296-.744-1.118 1.432-.113 4.086 2.245 5.93zM24.446 28.078c-.508 1.474.05 3.004 1.247 3.416 1.196.412 2.578-.45 3.085-1.924.508-1.475-.05-3.004-1.247-3.416-1.195-.412-2.577.45-3.084 1.924zM59.625 105.582c.53 1.974 3.675 2.846 7.027 1.948 3.352-.898 5.64-3.226 5.11-5.2-.528-1.975-3.674-2.847-7.026-1.95-3.35.9-5.64 3.228-5.11 5.202zM96.048 67.142c-.39 2.007 2.055 4.17 5.46 4.832 3.407.662 6.485-.428 6.875-2.434.39-2.006-2.056-4.17-5.462-4.83-3.405-.663-6.483.426-6.872 2.432z" fill="#BF924E"/><g stroke="#D5A65E" stroke-width=".972"><path d="M10.203 92.553c3.015-11.934 9.065-19.196 20.938-20.888 2.547-.363 6.216.113 8.59-1.07 5.8-2.895 3.015-12.65 6.98-16.604 1.48-1.477 3.676-1.665 5.368-2.677 2.28-1.365 4.573-2.876 7.516-2.143 1.722.43 9.644 2.123 10.737 3.214 2.265 2.26 5.22 6.888 8.59 8.57 1.69.842 5.826.99 6.98 2.142 2.324 2.32.888 5.654 5.905 4.82 20.2-3.36 18.02-16.068 28.453-16.068"/><path d="M79.457 62.025c-8.37 9.832.84 15.09-1.073 24.636-.627 3.125-3.9 4.765-5.37 6.964-3.075 4.604-15.654 9.02-18.79 5.89-.26-.258-.848-2.228-1.072-2.676-2.424-4.837-11.21-8.013-16.106-9.64-2.584-.86-3.4-6.072-4.832-7.5-2.32-2.313-7.112-3.88-9.126-5.89-1.85-1.846-.182-6.074-1.61-7.5-1.777-1.77-4.268-2.594-5.37-5.89-1.472-4.407-2.86-10.354-5.905-13.39-.13-.13-13.927-1.86-15.568-2.678"/><path d="M79.457 62.56c0-2.142-.143-4.29 0-6.427.14-2.11 3.076-3.313 3.758-5.356 2.613-7.82 2.852-14.26 6.98-22.494.196-.393 1.11-2.107.536-2.678-3.03-3.026-16.526-3.692-20.936-5.892-2.6-1.296-5.808-5.794-7.516-7.498-.51-.51 11.89-12.478 12.348-13.39"/><path d="M11.277 48.635c5.98-8.205 16.616-10.685 23.085-17.14 1.767-1.762 2.525-4.124 4.295-5.89 7.06-7.045 19.818-.98 25.768-12.854"/><path d="M78.384 88.268c9.36 1.425 8.626 4.36 11.273 9.64 1.145 2.284 4.412 1.84 5.37 3.75 1.08 2.156-.538 5.83-.538 7.498"/><path d="M56.91 100.587c-6.15 5.04-16.6 6.385-20.938 10.71-1.383 1.38-1.384 3.3-2.147 4.822"/></g></g></g></g></g></g></g></svg>