<svg width="99" height="52" viewBox="0 0 99 52" xmlns="http://www.w3.org/2000/svg"><title>B007_ufo_xs</title><desc>Created with Sketch.</desc><g fill="none" fill-rule="evenodd"><g><g><g fill="#256FB7"><path d="M46.63 3.782s4.01 2.083 9.2 3.668c5.19 1.585 9.915 2.17 9.915 2.17s1.668-5.475-8.004-8.43C48.07-1.764 46.63 3.782 46.63 3.782z"/></g><g><path d="M25.97 14.125l25.052 7.652 26.482 8.09s2.71-19.118-21.17-25.484c-23.88-6.366-30.364 9.742-30.364 9.742z" fill="#E1E1E1"/><path d="M28.38 12.58l22.13 6.758 23.396 7.146s1.72-14.684-19.343-20.41C33.5.348 28.38 12.58 28.38 12.58z" opacity=".632" fill="#fff"/><path d="M.904 14.616l47.24 14.43 49.94 15.252s-1.52-14.356-46.24-27.37C7.125 3.916.905 14.617.905 14.617z" fill="#3E8FDF"/><path d="M.882 14.69l42.557 13c30.64 9.36 44.988 13.74 44.988 13.74S86.252 31.147 46.002 19.3C5.752 7.453.882 14.69.882 14.69z" fill="#256FB8"/><path d="M.904 14.616s15.028 2.975 49.04 13.364c34.014 10.388 48.14 16.318 48.14 16.318s-8.01 13.924-53.164.132C-.233 30.638.904 14.616.904 14.616z" id="Path-130" fill="#144A80"/><path d="M20.62 34.32s7.79.68 24.944 5.92c16.99 5.188 23.832 8.98 23.832 8.98s-3.84 6.4-26.423-.496C20.227 41.776 20.62 34.32 20.62 34.32z" fill="#062E55"/><path d="M21.443 34.544s6.17.212 19.92 4.412c13.622 4.16 19.033 6.447 19.033 6.447s-3.05 6.026-21.153.496c-18.234-5.57-17.8-11.356-17.8-11.356z" fill="#0B3966"/></g></g></g></g></svg>