<svg width="146" height="78" viewBox="0 0 146 78" xmlns="http://www.w3.org/2000/svg"><title>B011_ufo</title><desc>Created with Sketch.</desc><g fill="none" fill-rule="evenodd"><path d="M68.597 5.434s5.96 3.097 13.68 5.455c7.72 2.356 14.75 3.226 14.75 3.226s2.48-8.144-11.907-12.54c-14.386-4.39-16.523 3.86-16.523 3.86z" fill="#256FB7"/><path d="M37.866 20.817l37.26 11.38 39.39 12.032s4.028-28.436-31.488-37.904c-35.517-9.47-45.162 14.49-45.162 14.49z" fill="#E1E1E1"/><path d="M41.45 18.517L74.368 28.57l34.796 10.63s2.558-21.842-28.77-30.358C49.064.325 41.45 18.517 41.45 18.517z" opacity=".632" fill="#fff"/><path d="M.583 21.547s19.674 6.01 70.263 21.46l74.277 22.688s-2.257-21.353-68.773-40.708C9.834 5.63.583 21.547.583 21.547z" fill="#3E8FDF"/><path d="M.55 21.658l63.298 19.334c45.574 13.92 66.915 20.44 66.915 20.44s-3.237-15.3-63.104-32.92C7.79 10.892.55 21.66.55 21.66z" fill="#256FB8"/><path d="M.583 21.547s22.353 4.424 72.94 19.876c50.59 15.452 71.6 24.272 71.6 24.272s-11.912 20.71-79.072.196C-1.11 45.38.585 21.55.585 21.55z" fill="#144A80"/><path d="M29.907 50.854s11.59 1.01 37.102 8.803c25.27 7.72 35.444 13.357 35.444 13.357s-5.712 9.522-39.3-.737c-33.83-10.333-33.248-21.423-33.248-21.423z" fill="#062E55"/><path d="M31.132 51.187s9.176.315 29.63 6.562c20.258 6.186 28.306 9.587 28.306 9.587s-4.534 8.963-31.46.74c-27.122-8.285-26.476-16.89-26.476-16.89z" fill="#0B3966"/></g></svg>