<svg width="359" height="235" viewBox="0 0 359 235" xmlns="http://www.w3.org/2000/svg"><title>C001_ufo</title><desc>Created with Sketch.</desc><g fill="none" fill-rule="evenodd"><g><g><g transform="translate(-32 -102)"><ellipse fill="#D8D8D8" cx="210.588" cy="311.822" rx="171.349" ry="25.178"/><g id="Line-+-Rectangle-68" transform="matrix(-1 0 0 1 230.561 223.699)"><path d="M55.752 1.05L23.315 27.275V68.19" id="Line" stroke="#062E55" stroke-width="12.6" stroke-linecap="round" stroke-linejoin="round"/><rect id="Rectangle-68" fill="#001D39" y="62.421" width="44.602" height="14.986" rx="21"/></g><g id="Line-+-Rectangle-68" transform="translate(32.932 236.288)"><path d="M57.817 1.05l-33.64 26.226V68.19" id="Line" stroke="#062E55" stroke-width="12.6" stroke-linecap="round" stroke-linejoin="round"/><rect id="Rectangle-68" fill="#001D39" y="61.072" width="46.254" height="14.986" rx="21"/></g><g transform="matrix(-1 0 0 1 390.346 236.288)"><path d="M57.817 1.05l-33.64 26.226V68.19" stroke="#062E55" stroke-width="12.6" stroke-linecap="round" stroke-linejoin="round"/><rect fill="#001D39" y="61.072" width="46.254" height="14.986" rx="21"/></g><g><g><path d="M118.424 179.41h185.358s-10.298-65.48-95.254-62.433c-84.957 3.045-90.106 62.434-90.106 62.434z" fill="#E1E1E1"/><path d="M124.802 171.917h163.742s-9.097-49.935-84.146-47.612c-75.05 2.322-79.598 47.612-79.598 47.612z" opacity=".632" fill="#fff"/><path d="M36.454 206.16H385.986s-19.418-45.613-179.62-43.49c-160.203 2.12-169.912 43.49-169.912 43.49z" fill="#3E8FDF"/><path d="M36.454 206.428H351.342s-17.494-31.585-161.818-30.116c-144.323 1.47-153.07 30.116-153.07 30.116z" fill="#256FB8"/><path d="M36.454 206.16s52.43-5.304 174.766-5.304c122.336 0 174.766 5.304 174.766 5.304s-12.357 53.745-174.766 53.745c-162.41 0-174.766-53.745-174.766-53.745z" id="Path-130" fill="#144A80"/><path d="M121.114 251.082s26.316-5.583 88.013-5.583c61.11 0 87.427 5.582 87.427 5.582s-6.202 24.873-87.427 24.873c-81.81 0-88.013-24.873-88.013-24.873z" fill="#062E55"/><path d="M124.048 250.99s20.51-5.49 69.97-5.49c48.992 0 69.09 2.08 69.09 2.08s-3.973 22.842-69.09 22.842c-65.585 0-69.97-19.432-69.97-19.432z" fill="#0B3966"/></g></g></g></g></g></g></svg>