<svg width="69" height="69" viewBox="0 0 69 69" xmlns="http://www.w3.org/2000/svg"><title>C009_Twitter</title><desc>Created with Sketch.</desc><g fill="none" fill-rule="evenodd"><path d="M34.114 68.23c18.786 0 34.016-15.228 34.016-34.016C68.13 15.43 52.9.2 34.114.2 15.328.2.098 15.43.098 34.214c0 18.788 15.23 34.016 34.016 34.016" fill="#68C6E1"/><path d="M51.18 25.304c-1.254.556-2.602.932-4.014 1.1 1.444-.864 2.552-2.234 3.072-3.866-1.352.8-2.846 1.382-4.44 1.694-1.272-1.358-3.092-2.206-5.102-2.206-3.858 0-6.99 3.13-6.99 6.99 0 .548.06 1.08.18 1.592-5.808-.292-10.958-3.072-14.408-7.306-.602 1.036-.946 2.238-.946 3.518 0 2.424 1.234 4.564 3.11 5.818-1.146-.034-2.226-.352-3.168-.872v.086c0 3.388 2.408 6.214 5.608 6.854-.586.164-1.204.246-1.842.246-.45 0-.89-.042-1.314-.124.888 2.776 3.47 4.8 6.528 4.852-2.392 1.876-5.406 2.994-8.68 2.994-.566 0-1.122-.032-1.668-.096 3.094 1.98 6.768 3.138 10.716 3.138 12.86 0 19.888-10.65 19.888-19.888 0-.304-.006-.608-.018-.906 1.366-.986 2.554-2.218 3.488-3.618" fill="#fff"/></g></svg>