<svg width="69" height="69" viewBox="0 0 69 69" xmlns="http://www.w3.org/2000/svg"><title>C009_Facebook</title><desc>Created with Sketch.</desc><g fill="none" fill-rule="evenodd"><path d="M68.226 34.214C68.226 15.43 52.996.2 34.21.2 15.424.2.194 15.43.194 34.214c0 18.788 15.23 34.016 34.016 34.016 18.786 0 34.016-15.228 34.016-34.016z" fill="#5071AA"/><path d="M26.004 28.454h3.516v-3.416c0-1.508.038-3.832 1.134-5.272 1.152-1.524 2.736-2.56 5.458-2.56 4.436 0 6.304.632 6.304.632l-.878 5.21s-1.466-.422-2.834-.422c-1.366 0-2.592.49-2.592 1.856v3.972h5.608l-.39 5.09h-5.218v17.678H29.52V33.544h-3.516v-5.09" fill="#fff"/></g></svg>