<?xml version="1.0" encoding="UTF-8" standalone="no"?>
<svg width="93px" height="48px" viewBox="0 0 93 48" version="1.1" xmlns="http://www.w3.org/2000/svg" xmlns:xlink="http://www.w3.org/1999/xlink" xmlns:sketch="http://www.bohemiancoding.com/sketch/ns">
    <!-- Generator: Sketch 3.2.2 (9983) - http://www.bohemiancoding.com/sketch -->
    <title>A001_dhuttle_xs</title>
    <desc>Created with Sketch.</desc>
    <defs></defs>
    <g id="Page-3" stroke="none" stroke-width="1" fill="none" fill-rule="evenodd" sketch:type="MSPage">
        <g id="L" sketch:type="MSArtboardGroup" transform="translate(-914.000000, -29.000000)">
            <g id="Header" sketch:type="MSLayerGroup">
                <g id="A001_dhuttle_xs" transform="translate(959.270520, 52.432235) rotate(-10.000000) translate(-959.270520, -52.432235) translate(911.270520, 28.932235)" sketch:type="MSShapeGroup">
                    <g id="Path-131-+-Oval-54" transform="translate(39.067386, 0.411170)" fill="#256FB7">
                        <g id="Path-131">
                            <path d="M1.71472669e-10,5.26977475 C1.71472669e-10,5.26977475 4.08925213,6.02579934 9.08646712,6.02579934 C14.0836821,6.02579934 18.4032636,5.26977462 18.4032636,5.26977462 C18.4032636,5.26977462 18.3994584,-0.00127330364 9.08646712,-0.00127330363 C-0.226524201,-0.00127330363 1.71472669e-10,5.26977475 1.71472669e-10,5.26977475 Z"></path>
                        </g>
                    </g>
                    <g id="Group" transform="translate(0.769370, 3.572038)">
                        <path d="M22.8847815,16.7746922 C22.8847815,16.7746922 29.6383504,16.7746922 47.0046703,16.7746922 C64.3709901,16.7746922 72.5028383,16.7746922 72.5028383,16.7746922 C72.5028383,16.7746922 69.7462796,-0.789290547 47.0046703,0.0276388831 C24.2630609,0.844568313 22.8847815,16.7746922 22.8847815,16.7746922 Z" id="Path-136" fill="#E1E1E1"></path>
                        <path d="M24.5919308,14.7645804 C24.5919308,14.7645804 30.55796,14.7645804 45.8991781,14.7645804 C61.2403962,14.7645804 68.4239825,14.7645804 68.4239825,14.7645804 C68.4239825,14.7645804 65.9888685,1.37033713 45.8991781,1.99332519 C25.8094878,2.61631324 24.5919308,14.7645804 24.5919308,14.7645804 Z" id="Path-140" opacity="0.63176306" fill="#FFFFFF"></path>
                        <path d="M0.942224406,23.9495708 C0.942224406,23.9495708 13.6775256,23.9495708 46.4254431,23.9495708 C79.1733606,23.9495708 94.5077029,23.9495708 94.5077029,23.9495708 C94.5077029,23.9495708 89.3096208,11.7147182 46.4254431,12.2837811 C3.54126548,12.852844 0.942224406,23.9495708 0.942224406,23.9495708 Z" id="Path-135" fill="#3E8FDF"></path>
                        <path d="M0.942224406,24.0215903 C0.942224406,24.0215903 12.4152515,24.0215903 41.9173211,24.0215903 C71.4193907,24.0215903 85.2338518,24.0215903 85.2338518,24.0215903 C85.2338518,24.0215903 80.5509836,15.5494005 41.9173211,15.9434558 C3.2836585,16.3375112 0.942224406,24.0215903 0.942224406,24.0215903 Z" id="Path-139" fill="#256FB8"></path>
                        <path d="M0.942224406,23.9495708 C0.942224406,23.9495708 14.9770462,22.5269135 47.7249637,22.5269135 C80.4728811,22.5269135 94.5077029,23.9495708 94.5077029,23.9495708 C94.5077029,23.9495708 91.1998325,38.3658316 47.7249637,38.3658313 C4.25009486,38.3658311 0.942224406,23.9495708 0.942224406,23.9495708 Z" id="Path-130" fill="#144A80"></path>
                        <path d="M23.6046757,35.9992799 C23.6046757,35.9992799 30.6491669,34.501576 47.1648472,34.501576 C63.5234596,34.501576 70.5679509,35.9992799 70.5679509,35.9992799 C70.5679509,35.9992799 68.9076331,42.6708704 47.1648472,42.6708703 C25.2649935,42.6708702 23.6046757,35.9992799 23.6046757,35.9992799 Z" id="Path-130" fill="#062E55"></path>
                        <path d="M24.3900147,35.9745592 C24.3900147,35.9745592 29.8803471,34.501576 43.120573,34.501576 C56.2348814,34.501576 61.6150857,35.059888 61.6150857,35.059888 C61.6150857,35.059888 60.5512445,41.1868588 43.120573,41.1868587 C25.563984,41.1868587 24.3900147,35.9745592 24.3900147,35.9745592 Z" id="Path-141" fill="#0B3966"></path>
                    </g>
                </g>
            </g>
        </g>
    </g>
</svg>