<?xml version="1.0" encoding="UTF-8" standalone="no"?>
<svg width="622px" height="270px" viewBox="0 0 622 270" version="1.1" xmlns="http://www.w3.org/2000/svg" xmlns:xlink="http://www.w3.org/1999/xlink" xmlns:sketch="http://www.bohemiancoding.com/sketch/ns">
    <!-- Generator: Sketch 3.2.2 (9983) - http://www.bohemiancoding.com/sketch -->
    <title>A004_ufo_L</title>
    <desc>Created with Sketch.</desc>
    <defs></defs>
    <g id="Page-3" stroke="none" stroke-width="1" fill="none" fill-rule="evenodd" sketch:type="MSPage">
        <g id="L" sketch:type="MSArtboardGroup" transform="translate(-648.000000, -1157.000000)">
            <g id="What-is-Mindspace?" sketch:type="MSLayerGroup" transform="translate(-209.000000, 1141.000000)">
                <g id="Ufo-met-schaduw" transform="translate(851.000000, 0.000000)" sketch:type="MSShapeGroup">
                    <g id="A004_ufo_L" transform="translate(318.000000, 150.609060) rotate(3.000000) translate(-318.000000, -150.609060) translate(7.500000, 16.529514)">
                        <g id="Path-131-+-Oval-54" transform="translate(255.613636, 0.000000)" fill="#2D72B6">
                            <g transform="translate(0.000000, 0.000000)" id="Path-131">
                                <path d="M1.03197754e-09,24.837378 C1.03197754e-09,24.837378 24.3919813,28.4006553 54.1998707,28.4006553 C84.00776,28.4006553 109.773633,24.8373774 109.773633,24.8373774 C109.773633,24.8373774 109.750936,-0.00600130465 54.1998707,-0.00600130463 C-1.35119428,-0.00600130461 1.03197754e-09,24.837378 1.03197754e-09,24.837378 Z"></path>
                            </g>
                        </g>
                        <path d="M145.840909,14.1136364 C145.840909,14.1136364 190.664773,14.1136364 305.926136,14.1136364 C421.1875,14.1136364 475.159091,14.1136364 475.159091,14.1136364 C475.159091,14.1136364 456.863636,115.261364 305.926136,110.556818 C154.988636,105.852273 145.840909,14.1136364 145.840909,14.1136364 Z" id="Path-136" fill="#E1E1E1" transform="translate(310.500000, 62.414811) scale(1, -1) translate(-310.500000, -62.414811) "></path>
                        <path d="M153.681818,25.875 C153.681818,25.875 193.278732,25.875 295.099367,25.875 C396.920002,25.875 444.597918,25.875 444.597918,25.875 C444.597918,25.875 428.435913,103.009969 295.099367,99.422296 C161.762821,95.834623 153.681818,25.875 153.681818,25.875 Z" id="Path-140" fill="#FFFFFF" transform="translate(299.139868, 62.709338) scale(1, -1) translate(-299.139868, -62.709338) "></path>
                        <path d="M0,152.757908 C0,152.757908 84.525,152.757908 301.875,152.757908 C519.225,152.757908 621,152.757908 621,152.757908 C621,152.757908 586.5,82.2996549 301.875,85.576783 C17.25,88.8539111 0,152.757908 0,152.757908 Z" id="Path-135" fill="#3E8FDF"></path>
                        <path d="M0,153.233622 C0,153.233622 76.1472064,153.233622 271.954309,153.233622 C467.761411,153.233622 559.448864,153.233622 559.448864,153.233622 C559.448864,153.233622 528.368371,104.443848 271.954309,106.71314 C15.5402462,108.982432 0,153.233622 0,153.233622 Z" id="Path-139" fill="#256FB8"></path>
                        <path d="M0,152.465547 C0,152.465547 93.15,144.272727 310.5,144.272727 C527.85,144.272727 621,152.465547 621,152.465547 C621,152.465547 599.045455,235.486126 310.5,235.486125 C21.9545455,235.486123 0,152.465547 0,152.465547 Z" id="Path-130" fill="#144A80"></path>
                        <path d="M193.670455,229.738636 C193.670455,229.738636 228.836932,221.113636 311.284091,221.113636 C392.947159,221.113636 428.113636,229.738636 428.113636,229.738636 C428.113636,229.738636 419.825241,268.159091 311.284091,268.159091 C201.95885,268.15909 193.670455,229.738636 193.670455,229.738636 Z" id="Path-130" fill="#062E55"></path>
                        <path d="M197.590909,229.596274 C197.590909,229.596274 224.998942,221.113636 291.094858,221.113636 C356.562187,221.113636 383.420455,224.328852 383.420455,224.328852 C383.420455,224.328852 378.109702,259.612944 291.094858,259.612943 C203.451426,259.612943 197.590909,229.596274 197.590909,229.596274 Z" id="Path-141" fill="#0B3966"></path>
                    </g>
                </g>
            </g>
        </g>
    </g>
</svg>