<?xml version="1.0" encoding="UTF-8" standalone="no"?>
<svg width="166px" height="83px" viewBox="0 0 166 83" version="1.1" xmlns="http://www.w3.org/2000/svg" xmlns:xlink="http://www.w3.org/1999/xlink" xmlns:sketch="http://www.bohemiancoding.com/sketch/ns">
    <!-- Generator: Sketch 3.2.2 (9983) - http://www.bohemiancoding.com/sketch -->
    <title>A009_ufo_xs</title>
    <desc>Created with Sketch.</desc>
    <defs></defs>
    <g id="Page-3" stroke="none" stroke-width="1" fill="none" fill-rule="evenodd" sketch:type="MSPage">
        <g id="L" sketch:type="MSArtboardGroup" transform="translate(-1100.000000, -2885.000000)">
            <g id="What-is-Mindspace?" sketch:type="MSLayerGroup" transform="translate(-209.000000, 1141.000000)">
                <g id="Quote" transform="translate(689.000000, 1735.000000)" sketch:type="MSShapeGroup">
                    <g id="A009_ufo_xs" transform="translate(703.000000, 50.000000) rotate(-6.000000) translate(-703.000000, -50.000000) translate(619.868925, 8.699211)">
                        <g id="Path-131-+-Oval-54" transform="translate(65.862851, 0.730583)" fill="#256FB7">
                            <g id="Path-131">
                                <path d="M3.046818e-10,9.36355175 C3.046818e-10,9.36355175 7.26595077,10.7068872 16.1452072,10.7068872 C25.0244636,10.7068872 32.699673,9.36355152 32.699673,9.36355152 C32.699673,9.36355152 32.6929118,-0.00226245809 16.1452072,-0.00226245808 C-0.402497484,-0.00226245807 3.046818e-10,9.36355175 3.046818e-10,9.36355175 Z"></path>
                            </g>
                        </g>
                        <g id="Group" transform="translate(-0.409793, 6.346943)">
                            <path d="M38.8857768,29.8059606 C38.8857768,29.8059606 50.8857947,29.8059606 81.7429836,29.8059606 C112.600172,29.8059606 127.049174,29.8059606 127.049174,29.8059606 C127.049174,29.8059606 122.151207,-1.40244379 81.7429836,0.0491099002 C41.33476,1.50066359 38.8857768,29.8059606 38.8857768,29.8059606 Z" id="Path-136" fill="#E1E1E1"></path>
                            <path d="M41.9191095,26.2343115 C41.9191095,26.2343115 52.5197948,26.2343115 79.7786998,26.2343115 C107.037605,26.2343115 119.801695,26.2343115 119.801695,26.2343115 C119.801695,26.2343115 115.474885,2.43487117 79.7786998,3.54182188 C44.0825146,4.6487726 41.9191095,26.2343115 41.9191095,26.2343115 Z" id="Path-140" opacity="0.63176306" fill="#FFFFFF"></path>
                            <path d="M-0.102658044,42.554579 C-0.102658044,42.554579 22.5259471,42.554579 80.7137891,42.554579 C138.901631,42.554579 166.148319,42.554579 166.148319,42.554579 C166.148319,42.554579 156.912153,20.8151913 80.7137891,21.8263256 C4.51542465,22.83746 -0.102658044,42.554579 -0.102658044,42.554579 Z" id="Path-135" fill="#3E8FDF"></path>
                            <path d="M-0.102658044,42.6825462 C-0.102658044,42.6825462 20.2830867,42.6825462 72.703573,42.6825462 C125.124059,42.6825462 149.67016,42.6825462 149.67016,42.6825462 C149.67016,42.6825462 141.349448,27.628812 72.703573,28.3289857 C4.05769802,29.0291594 -0.102658044,42.6825462 -0.102658044,42.6825462 Z" id="Path-139" fill="#256FB8"></path>
                            <path d="M-0.102658044,42.554579 C-0.102658044,42.554579 24.8349885,40.0267432 83.0228304,40.0267432 C141.210672,40.0267432 166.148319,42.554579 166.148319,42.554579 C166.148319,42.554579 160.270759,68.1699819 83.0228304,68.1699815 C5.77490175,68.1699811 -0.102658044,42.554579 -0.102658044,42.554579 Z" id="Path-130" fill="#144A80"></path>
                            <path d="M40.1649141,63.9649959 C40.1649141,63.9649959 52.681855,61.3038142 82.0275925,61.3038142 C111.094245,61.3038142 123.611186,63.9649959 123.611186,63.9649959 C123.611186,63.9649959 120.661066,75.8193513 82.0275925,75.8193511 C43.1150349,75.8193509 40.1649141,63.9649959 40.1649141,63.9649959 Z" id="Path-130" fill="#062E55"></path>
                            <path d="M41.5603368,63.9210712 C41.5603368,63.9210712 51.3157844,61.3038142 74.8415603,61.3038142 C98.1436009,61.3038142 107.703369,62.2958459 107.703369,62.2958459 C107.703369,62.2958459 105.813092,73.1824988 74.8415603,73.1824986 C43.6462935,73.1824985 41.5603368,63.9210712 41.5603368,63.9210712 Z" id="Path-141" fill="#0B3966"></path>
                        </g>
                    </g>
                </g>
            </g>
        </g>
    </g>
</svg>