<?xml version="1.0" encoding="UTF-8" standalone="no"?>
<svg width="1391px" height="1051px" viewBox="0 0 1391 1051" version="1.1" xmlns="http://www.w3.org/2000/svg" xmlns:xlink="http://www.w3.org/1999/xlink" xmlns:sketch="http://www.bohemiancoding.com/sketch/ns">
    <!-- Generator: Sketch 3.2.2 (9983) - http://www.bohemiancoding.com/sketch -->
    <title>B003_journey_l</title>
    <desc>Created with Sketch.</desc>
    <defs>
        <path id="path-1" d="M1118,291.635476 C1189,214.556555 1314.83501,329.801039 1231,437.090853 C1061,654.652324 928.351562,404.262451 770.226562,659.5 C577.359375,543.348389 540.796875,539.973397 354,584.79371"></path>
        <ellipse id="path-2" cx="64.3248082" cy="64.2288011" rx="64.0967164" ry="64.0010497"></ellipse>
        <ellipse id="path-4" cx="64.3248082" cy="64.2288011" rx="64.0967164" ry="64.0010497"></ellipse>
        <ellipse id="path-6" cx="64.3248082" cy="64.2288011" rx="64.0967164" ry="64.0010497"></ellipse>
        <path id="path-8" d="M241,160.278076 C241,160.278076 455.507813,404.897045 608.476562,253.236164 C761.445313,101.575282 926.260148,71.6161728 1069.78125,212.051517 C1076.69719,221.02848 1100.875,289.130435 1171.875,212.051514"></path>
        <ellipse id="path-9" cx="160.5627" cy="160.323054" rx="159.993354" ry="159.754558"></ellipse>
    </defs>
    <g id="Page-3" stroke="none" stroke-width="1" fill="none" fill-rule="evenodd" sketch:type="MSPage">
        <g id="Flightplan-XL" sketch:type="MSArtboardGroup" transform="translate(-239.000000, -363.246826)">
            <g id="B003_journey_l" sketch:type="MSLayerGroup" transform="translate(239.000000, 364.000000)">
                <path d="M744.367191,806.520264 C744.367191,806.520264 692.492191,964.000001 545.929691,1015.19995 C399.367191,1066.3999 203.170414,982.818272 203.170414,982.818272" id="Path-544" stroke="#FFFFFF" stroke-width="3" stroke-dasharray="10,10" opacity="0.25" sketch:type="MSShapeGroup"></path>
                <g id="Path-400" opacity="0.25">
                    <use stroke="#FFFFFF" stroke-width="3" stroke-dasharray="10,10" sketch:type="MSShapeGroup" xlink:href="#path-1"></use>
                    <use stroke="none" xlink:href="#path-1"></use>
                </g>
                <g id="Group-+-Oval-94-+-Group-+-Group" transform="translate(105.170414, 920.818272)">
                    <g id="Group" sketch:type="MSShapeGroup">
                        <ellipse id="Oval-93" fill="#C99D59" transform="translate(64.355381, 64.259328) scale(-1, 1) translate(-64.355381, -64.259328) " cx="64.3553812" cy="64.2593284" rx="64.3553812" ry="64.2593284"></ellipse>
                        <path id="Path-324" stroke="#979797" stroke-width="0.5" d=""></path>
                    </g>
                    <ellipse id="Oval-94" fill="#E2B26A" sketch:type="MSShapeGroup" transform="translate(65.078475, 61.609780) scale(-1, 1) translate(-65.078475, -61.609780) " cx="65.0784753" cy="61.6097799" rx="58.8094955" ry="58.7217202"></ellipse>
                    <g id="Group-+-Group">
                        <mask id="mask-3" sketch:name="Mask" fill="white">
                            <use xlink:href="#path-2"></use>
                        </mask>
                        <use id="Mask" sketch:type="MSShapeGroup" transform="translate(64.324808, 64.228801) scale(-1, 1) translate(-64.324808, -64.228801) " xlink:href="#path-2"></use>
                        <g mask="url(#mask-3)" id="Group">
                            <g transform="translate(-6.363229, -2.310448)">
                                <g transform="translate(27.821498, 6.417910)">
                                    <path d="M24.8084853,99.4698639 C41.9330206,106.043357 59.2905488,102.318631 63.5776096,91.1504563 C67.8646704,79.982281 57.4578411,65.5998171 40.3333058,59.0263238 C23.2087704,52.4528306 5.85124223,56.1775563 1.56418143,67.3457315 C-2.72287937,78.5139067 7.68394994,92.8963707 24.8084853,99.4698639 L24.8084853,99.4698639 Z" id="Oval-1499" opacity="0.649545243" fill="#E3BD83" sketch:type="MSShapeGroup"></path>
                                    <path d="M46.7299472,24.6149646 C54.1378913,30.4026849 63.6564188,30.5978653 67.9901735,25.0509123 C72.3239281,19.5039593 69.8318051,10.3153912 62.423861,4.52767094 C55.0159169,-1.26004932 45.4973894,-1.45522975 41.1636348,4.09172324 C36.8298801,9.63867622 39.3220031,18.8272444 46.7299472,24.6149646 L46.7299472,24.6149646 Z" id="Oval-1499" opacity="0.649545243" fill="#E3BD83" sketch:type="MSShapeGroup"></path>
                                    <path d="M14.0521891,23.7067395 C16.595387,25.6937034 19.6350913,26.0526282 20.8415587,24.5084203 C22.0480261,22.9642124 20.964392,20.1016321 18.4211941,18.1146681 C15.8779962,16.1277042 12.8382919,15.7687795 11.6318245,17.3129873 C10.4253571,18.8571952 11.5089912,21.7197755 14.0521891,23.7067395 L14.0521891,23.7067395 Z" id="Oval-1499" fill="#BF924E" sketch:type="MSShapeGroup"></path>
                                    <path d="M4.90569629,26.1733668 C4.35817404,27.7634869 4.96031842,29.4127002 6.2506234,29.8569878 C7.54092839,30.3012754 9.03078172,29.3723947 9.57830397,27.7822747 C10.1258262,26.1921546 9.52368184,24.5429413 8.23337685,24.0986537 C6.94307187,23.654366 5.45321853,24.5832467 4.90569629,26.1733668 L4.90569629,26.1733668 Z" id="Oval-1499" fill="#BF924E" sketch:type="MSShapeGroup"></path>
                                    <path d="M42.8456122,109.758817 C43.4160813,111.887837 46.8088946,112.828561 50.4236728,111.859984 C54.038451,110.891408 56.5063511,108.380309 55.935882,106.25129 C55.3654129,104.12227 51.9725996,103.181545 48.3578214,104.150122 C44.7430433,105.118699 42.2751431,107.629797 42.8456122,109.758817 L42.8456122,109.758817 Z" id="Oval-1499" fill="#BF924E" sketch:type="MSShapeGroup"></path>
                                    <path d="M82.1259809,68.3031896 C81.7054143,70.466817 84.3424681,72.7996462 88.0160054,73.5137095 C91.6895426,74.2277728 95.0084695,73.052669 95.4290361,70.8890416 C95.8496027,68.7254142 93.2125489,66.392585 89.5390116,65.6785217 C85.8654743,64.9644584 82.5465474,66.1395623 82.1259809,68.3031896 L82.1259809,68.3031896 Z" id="Oval-1499" fill="#BF924E" sketch:type="MSShapeGroup"></path>
                                </g>
                                <g transform="translate(0.000000, 0.468243)">
                                    <path d="M17.367062,101.657445 C20.6178413,88.7867652 27.1433817,80.95538 39.9471826,79.1305795 C42.6931425,78.7392247 46.6506486,79.2524232 49.2108219,77.9753556 C55.4671712,74.8545588 52.462037,64.3347936 56.7375288,60.0693855 C58.3351397,58.4755426 60.7028004,58.2734457 62.5273033,57.1813258 C64.9867015,55.7091672 67.4598023,54.0794527 70.6329877,54.870878 C72.4908878,55.3342576 81.0336736,57.1604669 82.2125367,58.3365497 C84.6543032,60.7725573 87.8420491,65.7655628 91.476176,67.5783407 C93.2989111,68.4875589 97.7586543,68.6474944 99.0028829,69.8887885 C101.510163,72.3901554 99.9613453,75.9868842 105.371635,75.0872959 C127.157499,71.4648822 124.80444,57.7589377 136.05744,57.7589377" id="Path-705" stroke="#D5A65E" stroke-width="0.972" sketch:type="MSShapeGroup"></path>
                                    <path d="M92.0551534,68.7335646 C83.0294363,79.337422 92.9610538,85.0087753 90.8971985,95.3037139 C90.2218851,98.6723174 86.6922898,100.440977 85.107424,102.812669 C81.789516,107.777793 68.2237735,112.538988 64.8432131,109.1664 C64.5626253,108.886474 63.927494,106.76167 63.6852582,106.278341 C61.071114,101.062383 51.5953907,97.636994 46.3159346,95.8813258 C43.5289692,94.9545283 42.6480113,89.3339935 41.1051375,87.7947586 C38.6034201,85.2989414 33.4345474,83.6079311 31.2625208,81.4410273 C29.2673731,79.450585 31.0661501,74.8913884 29.5255885,73.3544601 C27.6104108,71.4437994 24.9235825,70.5556303 23.7358139,67.0007288 C22.1478219,62.2479883 20.6490008,55.8346287 17.367062,52.5604303 C17.2276623,52.4213594 2.34709089,50.5554704 0.576715822,49.6723706" id="Path-706" stroke="#D5A65E" stroke-width="0.972" sketch:type="MSShapeGroup"></path>
                                    <path d="M92.0551534,69.3111765 C92.0551534,67.0007288 91.9011014,64.6851637 92.0551534,62.3798333 C92.2073086,60.102889 95.3720143,58.8064503 96.1079956,56.6037139 C98.9255598,48.1709567 99.183357,41.2257064 103.634702,32.3440124 C103.846856,31.9207062 104.831247,30.0720628 104.21368,29.4559527 C100.943219,26.1932055 86.3893128,25.4744899 81.6335593,23.1022213 C78.8309368,21.7042151 75.3694535,16.8528894 73.5278749,15.0156542 C72.9769738,14.4660524 86.3514136,1.55891593 86.8443563,0.575355644" id="Path-707" stroke="#D5A65E" stroke-width="0.972" sketch:type="MSShapeGroup"></path>
                                    <path d="M18.5250169,54.2932661 C24.9743922,45.443992 36.4448286,42.7694494 43.4210474,35.809684 C45.3267315,33.9084944 46.143937,31.3603804 48.052867,29.4559527 C55.6688133,21.8579685 69.4262123,28.3981393 75.8437847,15.5932661" id="Path-708" stroke="#D5A65E" stroke-width="0.972" sketch:type="MSShapeGroup"></path>
                                    <path d="M90.8971985,97.0365497 C100.993584,98.5728061 100.200835,101.737251 103.055725,107.433565 C104.289744,109.895782 107.813835,109.418386 108.8455,111.476848 C110.010826,113.802005 108.266522,117.763329 108.266522,119.563415" id="Path-709" stroke="#D5A65E" stroke-width="0.972" sketch:type="MSShapeGroup"></path>
                                    <path d="M67.7381004,110.321624 C61.1046181,115.757775 49.834491,117.208381 45.1579797,121.873863 C43.6664421,123.361883 43.6649082,125.430575 42.8420699,127.072371" id="Path-710" stroke="#D5A65E" stroke-width="0.972" sketch:type="MSShapeGroup"></path>
                                </g>
                            </g>
                        </g>
                    </g>
                </g>
                <g id="Group-+-Oval-94-+-Group-+-Group" transform="translate(252.042812, 516.578881)">
                    <g id="Group" sketch:type="MSShapeGroup">
                        <ellipse id="Oval-93" fill="#C99D59" transform="translate(64.355381, 64.259328) scale(-1, 1) translate(-64.355381, -64.259328) " cx="64.3553812" cy="64.2593284" rx="64.3553812" ry="64.2593284"></ellipse>
                        <path id="Path-324" stroke="#979797" stroke-width="0.5" d=""></path>
                    </g>
                    <ellipse id="Oval-94" fill="#E2B26A" sketch:type="MSShapeGroup" transform="translate(65.078475, 61.609780) scale(-1, 1) translate(-65.078475, -61.609780) " cx="65.0784753" cy="61.6097799" rx="58.8094955" ry="58.7217202"></ellipse>
                    <g id="Group-+-Group">
                        <mask id="mask-5" sketch:name="Mask" fill="white">
                            <use xlink:href="#path-4"></use>
                        </mask>
                        <use id="Mask" sketch:type="MSShapeGroup" transform="translate(64.324808, 64.228801) scale(-1, 1) translate(-64.324808, -64.228801) " xlink:href="#path-4"></use>
                        <g mask="url(#mask-5)" id="Group">
                            <g transform="translate(-6.363229, -2.310448)">
                                <g transform="translate(27.821498, 6.417910)">
                                    <path d="M24.8084853,99.4698639 C41.9330206,106.043357 59.2905488,102.318631 63.5776096,91.1504563 C67.8646704,79.982281 57.4578411,65.5998171 40.3333058,59.0263238 C23.2087704,52.4528306 5.85124223,56.1775563 1.56418143,67.3457315 C-2.72287937,78.5139067 7.68394994,92.8963707 24.8084853,99.4698639 L24.8084853,99.4698639 Z" id="Oval-1499" opacity="0.649545243" fill="#E3BD83" sketch:type="MSShapeGroup"></path>
                                    <path d="M46.7299472,24.6149646 C54.1378913,30.4026849 63.6564188,30.5978653 67.9901735,25.0509123 C72.3239281,19.5039593 69.8318051,10.3153912 62.423861,4.52767094 C55.0159169,-1.26004932 45.4973894,-1.45522975 41.1636348,4.09172324 C36.8298801,9.63867622 39.3220031,18.8272444 46.7299472,24.6149646 L46.7299472,24.6149646 Z" id="Oval-1499" opacity="0.649545243" fill="#E3BD83" sketch:type="MSShapeGroup"></path>
                                    <path d="M14.0521891,23.7067395 C16.595387,25.6937034 19.6350913,26.0526282 20.8415587,24.5084203 C22.0480261,22.9642124 20.964392,20.1016321 18.4211941,18.1146681 C15.8779962,16.1277042 12.8382919,15.7687795 11.6318245,17.3129873 C10.4253571,18.8571952 11.5089912,21.7197755 14.0521891,23.7067395 L14.0521891,23.7067395 Z" id="Oval-1499" fill="#BF924E" sketch:type="MSShapeGroup"></path>
                                    <path d="M4.90569629,26.1733668 C4.35817404,27.7634869 4.96031842,29.4127002 6.2506234,29.8569878 C7.54092839,30.3012754 9.03078172,29.3723947 9.57830397,27.7822747 C10.1258262,26.1921546 9.52368184,24.5429413 8.23337685,24.0986537 C6.94307187,23.654366 5.45321853,24.5832467 4.90569629,26.1733668 L4.90569629,26.1733668 Z" id="Oval-1499" fill="#BF924E" sketch:type="MSShapeGroup"></path>
                                    <path d="M42.8456122,109.758817 C43.4160813,111.887837 46.8088946,112.828561 50.4236728,111.859984 C54.038451,110.891408 56.5063511,108.380309 55.935882,106.25129 C55.3654129,104.12227 51.9725996,103.181545 48.3578214,104.150122 C44.7430433,105.118699 42.2751431,107.629797 42.8456122,109.758817 L42.8456122,109.758817 Z" id="Oval-1499" fill="#BF924E" sketch:type="MSShapeGroup"></path>
                                    <path d="M82.1259809,68.3031896 C81.7054143,70.466817 84.3424681,72.7996462 88.0160054,73.5137095 C91.6895426,74.2277728 95.0084695,73.052669 95.4290361,70.8890416 C95.8496027,68.7254142 93.2125489,66.392585 89.5390116,65.6785217 C85.8654743,64.9644584 82.5465474,66.1395623 82.1259809,68.3031896 L82.1259809,68.3031896 Z" id="Oval-1499" fill="#BF924E" sketch:type="MSShapeGroup"></path>
                                </g>
                                <g transform="translate(0.000000, 0.468243)">
                                    <path d="M17.367062,101.657445 C20.6178413,88.7867652 27.1433817,80.95538 39.9471826,79.1305795 C42.6931425,78.7392247 46.6506486,79.2524232 49.2108219,77.9753556 C55.4671712,74.8545588 52.462037,64.3347936 56.7375288,60.0693855 C58.3351397,58.4755426 60.7028004,58.2734457 62.5273033,57.1813258 C64.9867015,55.7091672 67.4598023,54.0794527 70.6329877,54.870878 C72.4908878,55.3342576 81.0336736,57.1604669 82.2125367,58.3365497 C84.6543032,60.7725573 87.8420491,65.7655628 91.476176,67.5783407 C93.2989111,68.4875589 97.7586543,68.6474944 99.0028829,69.8887885 C101.510163,72.3901554 99.9613453,75.9868842 105.371635,75.0872959 C127.157499,71.4648822 124.80444,57.7589377 136.05744,57.7589377" id="Path-705" stroke="#D5A65E" stroke-width="0.972" sketch:type="MSShapeGroup"></path>
                                    <path d="M92.0551534,68.7335646 C83.0294363,79.337422 92.9610538,85.0087753 90.8971985,95.3037139 C90.2218851,98.6723174 86.6922898,100.440977 85.107424,102.812669 C81.789516,107.777793 68.2237735,112.538988 64.8432131,109.1664 C64.5626253,108.886474 63.927494,106.76167 63.6852582,106.278341 C61.071114,101.062383 51.5953907,97.636994 46.3159346,95.8813258 C43.5289692,94.9545283 42.6480113,89.3339935 41.1051375,87.7947586 C38.6034201,85.2989414 33.4345474,83.6079311 31.2625208,81.4410273 C29.2673731,79.450585 31.0661501,74.8913884 29.5255885,73.3544601 C27.6104108,71.4437994 24.9235825,70.5556303 23.7358139,67.0007288 C22.1478219,62.2479883 20.6490008,55.8346287 17.367062,52.5604303 C17.2276623,52.4213594 2.34709089,50.5554704 0.576715822,49.6723706" id="Path-706" stroke="#D5A65E" stroke-width="0.972" sketch:type="MSShapeGroup"></path>
                                    <path d="M92.0551534,69.3111765 C92.0551534,67.0007288 91.9011014,64.6851637 92.0551534,62.3798333 C92.2073086,60.102889 95.3720143,58.8064503 96.1079956,56.6037139 C98.9255598,48.1709567 99.183357,41.2257064 103.634702,32.3440124 C103.846856,31.9207062 104.831247,30.0720628 104.21368,29.4559527 C100.943219,26.1932055 86.3893128,25.4744899 81.6335593,23.1022213 C78.8309368,21.7042151 75.3694535,16.8528894 73.5278749,15.0156542 C72.9769738,14.4660524 86.3514136,1.55891593 86.8443563,0.575355644" id="Path-707" stroke="#D5A65E" stroke-width="0.972" sketch:type="MSShapeGroup"></path>
                                    <path d="M18.5250169,54.2932661 C24.9743922,45.443992 36.4448286,42.7694494 43.4210474,35.809684 C45.3267315,33.9084944 46.143937,31.3603804 48.052867,29.4559527 C55.6688133,21.8579685 69.4262123,28.3981393 75.8437847,15.5932661" id="Path-708" stroke="#D5A65E" stroke-width="0.972" sketch:type="MSShapeGroup"></path>
                                    <path d="M90.8971985,97.0365497 C100.993584,98.5728061 100.200835,101.737251 103.055725,107.433565 C104.289744,109.895782 107.813835,109.418386 108.8455,111.476848 C110.010826,113.802005 108.266522,117.763329 108.266522,119.563415" id="Path-709" stroke="#D5A65E" stroke-width="0.972" sketch:type="MSShapeGroup"></path>
                                    <path d="M67.7381004,110.321624 C61.1046181,115.757775 49.834491,117.208381 45.1579797,121.873863 C43.6664421,123.361883 43.6649082,125.430575 42.8420699,127.072371" id="Path-710" stroke="#D5A65E" stroke-width="0.972" sketch:type="MSShapeGroup"></path>
                                </g>
                            </g>
                        </g>
                    </g>
                </g>
                <g id="Group-+-Oval-94-+-Group-+-Group" transform="translate(1262.000000, 901.000001)">
                    <g id="Group" sketch:type="MSShapeGroup">
                        <ellipse id="Oval-93" fill="#C99D59" transform="translate(64.355381, 64.259328) scale(-1, 1) translate(-64.355381, -64.259328) " cx="64.3553812" cy="64.2593284" rx="64.3553812" ry="64.2593284"></ellipse>
                        <path id="Path-324" stroke="#979797" stroke-width="0.5" d=""></path>
                    </g>
                    <ellipse id="Oval-94" fill="#E2B26A" sketch:type="MSShapeGroup" transform="translate(65.078475, 61.609780) scale(-1, 1) translate(-65.078475, -61.609780) " cx="65.0784753" cy="61.6097799" rx="58.8094955" ry="58.7217202"></ellipse>
                    <g id="Group-+-Group">
                        <mask id="mask-7" sketch:name="Mask" fill="white">
                            <use xlink:href="#path-6"></use>
                        </mask>
                        <use id="Mask" sketch:type="MSShapeGroup" transform="translate(64.324808, 64.228801) scale(-1, 1) translate(-64.324808, -64.228801) " xlink:href="#path-6"></use>
                        <g mask="url(#mask-7)" id="Group">
                            <g transform="translate(-6.363229, -2.310448)">
                                <g transform="translate(27.821498, 6.417910)">
                                    <path d="M24.8084853,99.4698639 C41.9330206,106.043357 59.2905488,102.318631 63.5776096,91.1504563 C67.8646704,79.982281 57.4578411,65.5998171 40.3333058,59.0263238 C23.2087704,52.4528306 5.85124223,56.1775563 1.56418143,67.3457315 C-2.72287937,78.5139067 7.68394994,92.8963707 24.8084853,99.4698639 L24.8084853,99.4698639 Z" id="Oval-1499" opacity="0.649545243" fill="#E3BD83" sketch:type="MSShapeGroup"></path>
                                    <path d="M46.7299472,24.6149646 C54.1378913,30.4026849 63.6564188,30.5978653 67.9901735,25.0509123 C72.3239281,19.5039593 69.8318051,10.3153912 62.423861,4.52767094 C55.0159169,-1.26004932 45.4973894,-1.45522975 41.1636348,4.09172324 C36.8298801,9.63867622 39.3220031,18.8272444 46.7299472,24.6149646 L46.7299472,24.6149646 Z" id="Oval-1499" opacity="0.649545243" fill="#E3BD83" sketch:type="MSShapeGroup"></path>
                                    <path d="M14.0521891,23.7067395 C16.595387,25.6937034 19.6350913,26.0526282 20.8415587,24.5084203 C22.0480261,22.9642124 20.964392,20.1016321 18.4211941,18.1146681 C15.8779962,16.1277042 12.8382919,15.7687795 11.6318245,17.3129873 C10.4253571,18.8571952 11.5089912,21.7197755 14.0521891,23.7067395 L14.0521891,23.7067395 Z" id="Oval-1499" fill="#BF924E" sketch:type="MSShapeGroup"></path>
                                    <path d="M4.90569629,26.1733668 C4.35817404,27.7634869 4.96031842,29.4127002 6.2506234,29.8569878 C7.54092839,30.3012754 9.03078172,29.3723947 9.57830397,27.7822747 C10.1258262,26.1921546 9.52368184,24.5429413 8.23337685,24.0986537 C6.94307187,23.654366 5.45321853,24.5832467 4.90569629,26.1733668 L4.90569629,26.1733668 Z" id="Oval-1499" fill="#BF924E" sketch:type="MSShapeGroup"></path>
                                    <path d="M42.8456122,109.758817 C43.4160813,111.887837 46.8088946,112.828561 50.4236728,111.859984 C54.038451,110.891408 56.5063511,108.380309 55.935882,106.25129 C55.3654129,104.12227 51.9725996,103.181545 48.3578214,104.150122 C44.7430433,105.118699 42.2751431,107.629797 42.8456122,109.758817 L42.8456122,109.758817 Z" id="Oval-1499" fill="#BF924E" sketch:type="MSShapeGroup"></path>
                                    <path d="M82.1259809,68.3031896 C81.7054143,70.466817 84.3424681,72.7996462 88.0160054,73.5137095 C91.6895426,74.2277728 95.0084695,73.052669 95.4290361,70.8890416 C95.8496027,68.7254142 93.2125489,66.392585 89.5390116,65.6785217 C85.8654743,64.9644584 82.5465474,66.1395623 82.1259809,68.3031896 L82.1259809,68.3031896 Z" id="Oval-1499" fill="#BF924E" sketch:type="MSShapeGroup"></path>
                                </g>
                                <g transform="translate(0.000000, 0.468243)">
                                    <path d="M17.367062,101.657445 C20.6178413,88.7867652 27.1433817,80.95538 39.9471826,79.1305795 C42.6931425,78.7392247 46.6506486,79.2524232 49.2108219,77.9753556 C55.4671712,74.8545588 52.462037,64.3347936 56.7375288,60.0693855 C58.3351397,58.4755426 60.7028004,58.2734457 62.5273033,57.1813258 C64.9867015,55.7091672 67.4598023,54.0794527 70.6329877,54.870878 C72.4908878,55.3342576 81.0336736,57.1604669 82.2125367,58.3365497 C84.6543032,60.7725573 87.8420491,65.7655628 91.476176,67.5783407 C93.2989111,68.4875589 97.7586543,68.6474944 99.0028829,69.8887885 C101.510163,72.3901554 99.9613453,75.9868842 105.371635,75.0872959 C127.157499,71.4648822 124.80444,57.7589377 136.05744,57.7589377" id="Path-705" stroke="#D5A65E" stroke-width="0.972" sketch:type="MSShapeGroup"></path>
                                    <path d="M92.0551534,68.7335646 C83.0294363,79.337422 92.9610538,85.0087753 90.8971985,95.3037139 C90.2218851,98.6723174 86.6922898,100.440977 85.107424,102.812669 C81.789516,107.777793 68.2237735,112.538988 64.8432131,109.1664 C64.5626253,108.886474 63.927494,106.76167 63.6852582,106.278341 C61.071114,101.062383 51.5953907,97.636994 46.3159346,95.8813258 C43.5289692,94.9545283 42.6480113,89.3339935 41.1051375,87.7947586 C38.6034201,85.2989414 33.4345474,83.6079311 31.2625208,81.4410273 C29.2673731,79.450585 31.0661501,74.8913884 29.5255885,73.3544601 C27.6104108,71.4437994 24.9235825,70.5556303 23.7358139,67.0007288 C22.1478219,62.2479883 20.6490008,55.8346287 17.367062,52.5604303 C17.2276623,52.4213594 2.34709089,50.5554704 0.576715822,49.6723706" id="Path-706" stroke="#D5A65E" stroke-width="0.972" sketch:type="MSShapeGroup"></path>
                                    <path d="M92.0551534,69.3111765 C92.0551534,67.0007288 91.9011014,64.6851637 92.0551534,62.3798333 C92.2073086,60.102889 95.3720143,58.8064503 96.1079956,56.6037139 C98.9255598,48.1709567 99.183357,41.2257064 103.634702,32.3440124 C103.846856,31.9207062 104.831247,30.0720628 104.21368,29.4559527 C100.943219,26.1932055 86.3893128,25.4744899 81.6335593,23.1022213 C78.8309368,21.7042151 75.3694535,16.8528894 73.5278749,15.0156542 C72.9769738,14.4660524 86.3514136,1.55891593 86.8443563,0.575355644" id="Path-707" stroke="#D5A65E" stroke-width="0.972" sketch:type="MSShapeGroup"></path>
                                    <path d="M18.5250169,54.2932661 C24.9743922,45.443992 36.4448286,42.7694494 43.4210474,35.809684 C45.3267315,33.9084944 46.143937,31.3603804 48.052867,29.4559527 C55.6688133,21.8579685 69.4262123,28.3981393 75.8437847,15.5932661" id="Path-708" stroke="#D5A65E" stroke-width="0.972" sketch:type="MSShapeGroup"></path>
                                    <path d="M90.8971985,97.0365497 C100.993584,98.5728061 100.200835,101.737251 103.055725,107.433565 C104.289744,109.895782 107.813835,109.418386 108.8455,111.476848 C110.010826,113.802005 108.266522,117.763329 108.266522,119.563415" id="Path-709" stroke="#D5A65E" stroke-width="0.972" sketch:type="MSShapeGroup"></path>
                                    <path d="M67.7381004,110.321624 C61.1046181,115.757775 49.834491,117.208381 45.1579797,121.873863 C43.6664421,123.361883 43.6649082,125.430575 42.8420699,127.072371" id="Path-710" stroke="#D5A65E" stroke-width="0.972" sketch:type="MSShapeGroup"></path>
                                </g>
                            </g>
                        </g>
                    </g>
                </g>
                <g id="Path-399">
                    <use stroke="#FFFFFF" stroke-width="3" stroke-dasharray="10,10" sketch:type="MSShapeGroup" xlink:href="#path-8"></use>
                    <use stroke="none" xlink:href="#path-8"></use>
                </g>
                <path d="M894.21875,801.403076 C1201,801.403076 1323.57812,924.067141 1323.57812,924.067141" id="Path-553" stroke="#FFFFFF" stroke-width="3" stroke-dasharray="10,10" opacity="0.25" sketch:type="MSShapeGroup"></path>
                <g id="Path-131-+-Oval-54-+-Group-2" transform="translate(603.000000, 252.823990) rotate(-40.000000) translate(-603.000000, -252.823990) translate(564.085451, 233.490647)" sketch:type="MSShapeGroup">
                    <g id="Path-131-+-Oval-54" transform="translate(30.831108, 0.341994)" fill="#256FB7">
                        <g id="Path-131">
                            <path d="M1.42624169e-10,4.38317912 C1.42624169e-10,4.38317912 3.40126958,5.01200888 7.55774485,5.01200888 C11.7142201,5.01200888 15.3070681,4.38317902 15.3070681,4.38317902 C15.3070681,4.38317902 15.3039031,-0.00105908092 7.55774485,-0.00105908092 C-0.188413394,-0.00105908092 1.42624169e-10,4.38317912 1.42624169e-10,4.38317912 Z"></path>
                        </g>
                    </g>
                    <g id="Group" transform="translate(-0.191829, 2.971072)">
                        <path d="M18.2028497,13.9524902 C18.2028497,13.9524902 23.8201869,13.9524902 38.2647684,13.9524902 C52.7093499,13.9524902 59.4730825,13.9524902 59.4730825,13.9524902 C59.4730825,13.9524902 57.1802917,-0.656498999 38.2647684,0.0229888716 C19.349245,0.702476742 18.2028497,13.9524902 18.2028497,13.9524902 Z" id="Path-136" fill="#E1E1E1"></path>
                        <path d="M19.6227853,12.2805629 C19.6227853,12.2805629 24.5850799,12.2805629 37.3452661,12.2805629 C50.1054523,12.2805629 56.0804601,12.2805629 56.0804601,12.2805629 C56.0804601,12.2805629 54.0550337,1.13978934 37.3452661,1.65796486 C20.6354985,2.17614037 19.6227853,12.2805629 19.6227853,12.2805629 Z" id="Path-140" opacity="0.63176306" fill="#FFFFFF"></path>
                        <path d="M-0.0480553326,19.9202554 C-0.0480553326,19.9202554 10.5446378,19.9202554 37.7829914,19.9202554 C65.021345,19.9202554 77.7758122,19.9202554 77.7758122,19.9202554 C77.7758122,19.9202554 73.452264,9.74381458 37.7829914,10.2171374 C2.11371877,10.6904602 -0.0480553326,19.9202554 -0.0480553326,19.9202554 Z" id="Path-135" fill="#3E8FDF"></path>
                        <path d="M-0.0480553326,19.9801582 C-0.0480553326,19.9801582 9.49473067,19.9801582 34.0333233,19.9801582 C58.5719158,19.9801582 70.0622092,19.9801582 70.0622092,19.9801582 C70.0622092,19.9801582 66.1671945,12.9333436 34.0333233,13.2611024 C1.89945202,13.5888612 -0.0480553326,19.9801582 -0.0480553326,19.9801582 Z" id="Path-139" fill="#256FB8"></path>
                        <path d="M-0.0480553326,19.9202554 C-0.0480553326,19.9202554 11.6255248,18.7369483 38.8638784,18.7369483 C66.1022321,18.7369483 77.7758122,19.9202554 77.7758122,19.9202554 C77.7758122,19.9202554 75.0244634,31.9111006 38.8638784,31.9111004 C2.70329352,31.9111002 -0.0480553326,19.9202554 -0.0480553326,19.9202554 Z" id="Path-130" fill="#144A80"></path>
                        <path d="M18.8016276,29.9427015 C18.8016276,29.9427015 24.660942,28.6969737 38.3979969,28.6969737 C52.0044093,28.6969737 57.8637237,29.9427015 57.8637237,29.9427015 C57.8637237,29.9427015 56.4827405,35.4918525 38.3979969,35.4918524 C20.1826108,35.4918523 18.8016276,29.9427015 18.8016276,29.9427015 Z" id="Path-130" fill="#062E55"></path>
                        <path d="M19.4548399,29.9221398 C19.4548399,29.9221398 24.0214697,28.6969737 35.0341381,28.6969737 C45.9420735,28.6969737 50.4171034,29.1613544 50.4171034,29.1613544 C50.4171034,29.1613544 49.5322445,34.2575135 35.0341381,34.2575135 C20.4312987,34.2575134 19.4548399,29.9221398 19.4548399,29.9221398 Z" id="Path-141" fill="#0B3966"></path>
                    </g>
                </g>
                <g id="Group" transform="translate(1047.000000, 100.168700)" sketch:type="MSShapeGroup">
                    <g transform="translate(0.148941, 2.000000)">
                        <ellipse id="Oval-93" fill="#8B293F" transform="translate(111.250000, 111.250000) scale(-1, 1) translate(-111.250000, -111.250000) " cx="111.25" cy="111.25" rx="111.25" ry="111.25"></ellipse>
                        <ellipse id="Oval-94" fill="#AC3852" transform="translate(115.601441, 105.792857) scale(-1, 1) translate(-115.601441, -105.792857) " cx="115.601441" cy="105.792857" rx="101.662926" ry="101.662926"></ellipse>
                        <path id="Path-324" stroke="#979797" stroke-width="0.6" d=""></path>
                    </g>
                    <ellipse id="Oval-1490" opacity="0.32083722" fill="#E4D4BA" cx="141.148941" cy="65.5" rx="41" ry="29.5"></ellipse>
                    <path d="M63.6882976,103.064241 C82.6369944,92.5608066 92.2654775,73.7044399 85.1941165,60.9473669 C78.1227555,48.1902939 57.0293309,46.3633587 38.0806341,56.8667929 C19.1319372,67.370227 9.50345414,86.2265938 16.5748152,98.9836667 C23.6461762,111.74074 44.7396008,113.567675 63.6882976,103.064241 L63.6882976,103.064241 Z" id="Oval-1493" opacity="0.32083722" fill="#D47D87"></path>
                    <ellipse id="Oval-1490" opacity="0.32083722" fill="#D47D87" cx="112.648941" cy="177" rx="30.5" ry="19"></ellipse>
                    <ellipse id="Oval-1491" opacity="0.32083722" fill="#FEDEA6" cx="179.691462" cy="131" rx="15.0765085" ry="37.4020255"></ellipse>
                    <path d="M92.2518378,137.937337 C101.931448,133.216276 107.717535,125.16386 105.175425,119.951763 C102.633315,114.739665 92.7256535,114.341601 83.0460437,119.062663 C73.366434,123.783724 67.580347,131.83614 70.1224569,137.048237 C72.6645667,142.260335 82.5722281,142.658399 92.2518378,137.937337 L92.2518378,137.937337 Z" id="Oval-1492" opacity="0.32083722" fill="#FEDEA6"></path>
                    <path d="M98.0676284,33.9890363 C103.307143,33.7144449 107.367156,29.9150313 107.135921,25.5028084 C106.904687,21.0905855 102.469768,17.7363724 97.2302531,18.0109637 C91.9907384,18.2855551 87.9307254,22.0849687 88.1619602,26.4971916 C88.393195,30.9094145 92.8281137,34.2636276 98.0676284,33.9890363 L98.0676284,33.9890363 Z" id="Oval-1492" opacity="0.32083722" fill="#FEDEA6"></path>
                    <path d="M142.067628,138.989036 C147.307143,138.714445 151.367156,134.915031 151.135921,130.502808 C150.904687,126.090586 146.469768,122.736372 141.230253,123.010964 C135.990738,123.285555 131.930725,127.084969 132.16196,131.497192 C132.393195,135.909414 136.828114,139.263628 142.067628,138.989036 L142.067628,138.989036 Z" id="Oval-1492" opacity="0.32083722" fill="#FEDEA6"></path>
                    <path id="Path-703" stroke="#979797" fill="#D8D8D8" d=""></path>
                </g>
                <g id="Group" sketch:type="MSShapeGroup">
                    <circle id="Oval-93" fill="#153F90" transform="translate(134.500000, 134.500000) scale(-1, 1) translate(-134.500000, -134.500000) " cx="134.5" cy="134.5" r="134.5"></circle>
                    <circle id="Oval-94" fill="#08569E" transform="translate(139.812388, 134.017056) scale(-1, 1) translate(-139.812388, -134.017056) " cx="139.812388" cy="134.017056" r="129.187612"></circle>
                    <path d="M137.57482,216.359064 C147.233707,206.700177 164.619702,215.393178 159.790258,186.899461 C154.960815,158.405745 137.57482,140.05386 127.915933,145.849192 C118.257046,151.644524 114.178933,151.201611 105.217549,155.025135 C96.2561643,158.848659 104.251659,161.786355 88.7974395,164.684022 C73.3432205,167.581688 52.5766137,173.859964 60.3037232,190.763016 C68.0308327,207.666068 73.8261627,227.949728 84.4509402,239.057448 C95.0757176,250.165168 132.745373,267.551167 137.574818,262.238779 C142.404263,256.926391 127.915933,226.017951 137.57482,216.359064 Z" id="Path-323" fill="#86B34D"></path>
                    <path id="Path-324" stroke="#979797" stroke-width="0.6" d=""></path>
                    <path d="M198.490126,188.831239 C198.490126,188.831239 206.217235,173.859964 215.393178,167.581688 C224.56912,161.303411 245.818671,153.093357 245.818671,139.087971 C245.818671,125.082585 255.960503,74.3734291 235.67684,54.572711 C215.393178,34.7719928 203.802513,12.556553 186.899461,12.556553 C169.996409,12.556553 176.274686,30.4254937 168.547576,33.8061041 C160.820467,37.1867145 131.843806,71.475763 131.843806,61.8168761 C131.843806,52.1579892 124.116697,38.1526032 112.043088,52.6409336 C99.9694794,67.1292639 85.9640934,86.4470377 99.0035907,86.4470377 C112.043088,86.4470377 112.043089,96.1059246 128.463196,104.798923 C144.883302,113.491921 179.655298,123.150808 176.75763,132.809695 C173.859963,142.468582 171.928188,155.991023 165.64991,160.820467 C168.064632,160.820467 181.104131,139.087971 186.416517,139.087971 C191.728903,139.087971 216.359068,140.536804 213.944345,148.746858 C211.529621,156.956912 196.075405,169.513465 196.075404,175.308797 C196.075402,181.104129 180.51933,173.859964 175.791741,176.274686 C171.064153,178.689408 181.587075,198.490126 177.723519,203.802513 C173.859963,209.114901 197.041293,193.660682 197.041293,193.660682" id="Path-325" fill="#86B34D"></path>
                    <path d="M37.2790442,52.5381021 C37.2790442,52.5381021 50.3185415,84.6370953 47.9038198,94.4357353 C45.489098,104.234375 47.4208754,127.548381 47.4208754,127.548381 C47.4208754,127.548381 45.489098,144.780472 30.5178234,144.780472 C15.5465487,144.780472 -1.44883303,106.730702 17.868941,69.0610408 C37.186715,31.3913797 37.2790442,52.5381021 37.2790442,52.5381021 Z" id="Path-326" fill="#86B34E"></path>
                </g>
                <g id="Planet-mindspace" transform="translate(538.000000, 544.000000)">
                    <path d="M279.349164,237.090512 C417.311125,194.911308 516.682897,119.935695 501.302228,69.6277946 C485.921559,19.3198939 361.612797,12.7302835 223.650836,54.9094879 C85.6888747,97.0886922 -13.6828967,172.064305 1.69777205,222.372205 C17.0784408,272.680106 141.387203,279.269716 279.349164,237.090512 Z M275.606874,223.65372 C376.252416,190.952001 448.14858,134.609518 436.191452,97.8092617 C424.234324,61.0090056 332.951825,57.6864847 232.306283,90.3882036 C131.660741,123.089923 59.7645756,179.432406 71.7217037,216.232662 C83.6788317,253.032918 174.961332,256.355439 275.606874,223.65372 Z" id="Oval-1486" fill="#D0EBB5" sketch:type="MSShapeGroup"></path>
                    <g id="Group" transform="translate(96.000000, 0.000000)" sketch:type="MSShapeGroup">
                        <ellipse id="Oval-93" fill="#759653" transform="translate(160.639013, 160.399254) scale(-1, 1) translate(-160.639013, -160.399254) " cx="160.639013" cy="160.399254" rx="160.639013" ry="160.399254"></ellipse>
                        <path id="Path-324" stroke="#979797" stroke-width="0.5" d=""></path>
                    </g>
                    <ellipse id="Oval-94" fill="#91B170" sketch:type="MSShapeGroup" transform="translate(258.443946, 153.785652) scale(-1, 1) translate(-258.443946, -153.785652) " cx="258.443946" cy="153.785652" rx="146.795795" ry="146.576697"></ellipse>
                    <g id="Group-+-Group" transform="translate(96.000000, 0.000000)">
                        <mask id="mask-10" sketch:name="Mask" fill="white">
                            <use xlink:href="#path-9"></use>
                        </mask>
                        <use id="Mask" sketch:type="MSShapeGroup" transform="translate(160.562700, 160.323054) scale(-1, 1) translate(-160.562700, -160.323054) " xlink:href="#path-9"></use>
                        <g mask="url(#mask-10)" id="Group">
                            <g transform="translate(-14.883408, -3.767164)">
                                <g transform="translate(69.445909, 14.019900)">
                                    <path d="M60.9250563,248.289118 C103.67002,264.697372 146.996564,255.399995 157.697599,227.522844 C168.398635,199.645694 142.421898,163.74528 99.6769338,147.337025 C56.9319696,130.928771 13.6054264,140.226148 2.90439086,168.103299 C-7.79664463,195.980449 18.1800921,231.880863 60.9250563,248.289118 L60.9250563,248.289118 Z" id="Oval-1499" opacity="0.649545243" fill="#ADC297" sketch:type="MSShapeGroup"></path>
                                    <path d="M115.643744,61.4420047 C134.134891,75.8888723 157.894317,76.3760669 168.711906,62.5301843 C179.529495,48.6843016 173.308847,25.7484958 154.8177,11.3016282 C136.326552,-3.14523938 112.567127,-3.63243394 101.749538,10.2134487 C90.9319488,24.0593314 97.1525968,46.9951371 115.643744,61.4420047 L115.643744,61.4420047 Z" id="Oval-1499" opacity="0.649545243" fill="#ADC297" sketch:type="MSShapeGroup"></path>
                                    <path d="M34.076007,59.1749621 C40.4241443,64.1346706 48.0116233,65.0305912 51.0231156,61.1760569 C54.0346079,57.3215225 51.3297226,50.1761669 44.9815852,45.2164585 C38.6334479,40.25675 31.0459689,39.3608293 28.0344766,43.2153637 C25.0229843,47.069898 27.7278696,54.2152536 34.076007,59.1749621 L34.076007,59.1749621 Z" id="Oval-1499" fill="#759653" sketch:type="MSShapeGroup"></path>
                                    <path d="M11.2452264,65.3319698 C9.87854295,69.3011068 11.38157,73.4177477 14.6023313,74.5267447 C17.8230926,75.6357418 21.5419513,73.3171403 22.9086347,69.3480034 C24.2753182,65.3788665 22.7722911,61.2622256 19.5515298,60.1532285 C16.3307685,59.0442315 12.6119098,61.3628329 11.2452264,65.3319698 L11.2452264,65.3319698 Z" id="Oval-1499" fill="#759653" sketch:type="MSShapeGroup"></path>
                                    <path d="M105.947962,273.971621 C107.371924,279.285918 115.840807,281.634083 124.863741,279.216395 C133.886676,276.798707 140.046861,270.530695 138.622899,265.216398 C137.198938,259.902101 128.730055,257.553935 119.70712,259.971623 C110.684186,262.389311 104.524001,268.657324 105.947962,273.971621 L105.947962,273.971621 Z" id="Oval-1499" fill="#759653" sketch:type="MSShapeGroup"></path>
                                    <path d="M203.996634,170.493233 C202.946848,175.893915 209.529261,181.716946 218.698866,183.499337 C227.868471,185.281728 236.152924,182.348523 237.20271,176.94784 C238.252497,171.547158 231.670083,165.724127 222.500479,163.941736 C213.330874,162.159346 205.046421,165.092551 203.996634,170.493233 L203.996634,170.493233 Z" id="Oval-1499" fill="#759653" sketch:type="MSShapeGroup"></path>
                                </g>
                                <g transform="translate(0.000000, 0.168793)">
                                    <path d="M42.3503407,252.749592 C50.4646891,220.622778 66.7532473,201.074669 98.7131226,196.519741 C105.567379,195.542871 115.445805,196.823878 121.836315,193.636159 C137.452939,185.846263 129.951751,159.587624 140.623909,148.940637 C144.611744,144.962207 150.521719,144.457748 155.075904,141.731681 C161.214867,138.056991 167.388034,133.989021 175.308698,135.964517 C179.946247,137.12117 201.2701,141.679615 204.212689,144.615264 C210.307641,150.695841 218.26465,163.159002 227.335881,167.68392 C231.885654,169.953441 243.017726,170.35266 246.123475,173.451084 C252.381958,179.694806 248.515916,188.672688 262.02067,186.427204 C316.400889,177.38521 310.527363,143.173472 338.616245,143.173472" id="Path-705" stroke="#B3CC99" stroke-width="2.43" sketch:type="MSShapeGroup"></path>
                                    <path d="M228.781081,170.567502 C206.251771,197.036046 231.04232,211.192447 225.890682,236.88989 C224.205016,245.298343 215.394708,249.713137 211.438686,255.633174 C203.156776,268.026739 169.295001,279.911272 160.856703,271.492875 C160.15632,270.794145 158.570954,265.490369 157.966303,264.28392 C151.441075,251.264243 127.788495,242.714047 114.610317,238.331681 C107.653706,236.01828 105.454726,221.988728 101.603522,218.146607 C95.3589245,211.916737 82.4567772,207.695766 77.0351295,202.286905 C72.0549932,197.318515 76.5449639,185.938194 72.6995309,182.101831 C67.9190099,177.332584 61.2123532,175.115604 58.2475356,166.242129 C54.2837104,154.3787 50.5424671,138.370158 42.3503407,130.197353 C42.0023818,129.850215 4.85862998,125.192725 0.439554224,122.988398" id="Path-706" stroke="#B3CC99" stroke-width="2.43" sketch:type="MSShapeGroup"></path>
                                    <path d="M228.781081,172.009293 C228.781081,166.242129 228.396548,160.462192 228.781081,154.707801 C229.160879,149.024266 237.060377,145.788194 238.897477,140.28989 C245.930467,119.240683 246.573961,101.904476 257.685071,79.7346665 C258.214633,78.6780419 260.671794,74.0635985 259.130271,72.5257113 C250.966796,64.3814898 214.63844,62.5874864 202.767489,56.6660098 C195.771796,53.1764128 187.131504,41.0669023 182.534696,36.4809352 C181.159578,35.1090609 214.543839,2.89124751 215.774285,0.436159049" id="Path-707" stroke="#B3CC99" stroke-width="2.43" sketch:type="MSShapeGroup"></path>
                                    <path d="M45.2407398,134.522726 C61.3391805,112.43384 89.9708126,105.75785 107.38432,88.3854128 C112.141144,83.6398078 114.18099,77.2793991 118.945916,72.5257113 C137.956263,53.5602003 172.296437,69.8852779 188.315494,37.9227262" id="Path-708" stroke="#B3CC99" stroke-width="2.43" sketch:type="MSShapeGroup"></path>
                                    <path d="M225.890682,241.215264 C251.092511,245.04995 249.113712,252.948797 256.239872,267.167502 C259.320137,273.313502 268.116705,272.121863 270.691867,277.26004 C273.600667,283.063919 269.246668,292.951876 269.246668,297.445114" id="Path-709" stroke="#B3CC99" stroke-width="2.43" sketch:type="MSShapeGroup"></path>
                                    <path d="M168.0827,274.376458 C151.524706,287.945764 123.393071,291.566657 111.719918,303.212278 C107.996855,306.926561 107.993027,312.090273 105.93912,316.188398" id="Path-710" stroke="#B3CC99" stroke-width="2.43" sketch:type="MSShapeGroup"></path>
                                </g>
                            </g>
                        </g>
                    </g>
                    <path d="M79.5022384,227.659885 C35.4076327,234.316197 5.08819514,233.73928 1.49028195,221.971036 C-13.8316327,171.855311 85.6594679,97.0135674 223.709875,54.8073224 C361.760282,12.6010774 486.093114,19.0129776 501.415029,69.1287024 C505.169934,81.4104442 477.980082,99.8617552 434.561564,119.983475 C437.970039,111.907164 438.732374,104.24178 436.47109,97.2822622 C424.559638,60.6225829 333.26186,57.4310173 232.551795,90.153701 C131.841731,122.876385 59.8562318,179.121903 71.7676837,215.781582 C73.2152639,220.236776 75.8353136,224.197674 79.5022384,227.659885 Z" id="Oval-1487" opacity="0.768598414" fill="#D0EBB5" sketch:type="MSShapeGroup"></path>
                    <path d="M55.9999993,250.500001 C55.9999993,250.500001 -33,231.5 64,148.5 C161,65.5 357.999992,22.5 425.999992,44.5000009 C518,76.5 449.000011,144.643944 449.000011,144.643944 C449.000011,144.643944 510,79.5 422.999992,53.5000002 C360.999992,40.5 207.999996,53.5000006 71,154.5 C-16,227.5 55.9999993,250.500001 55.9999993,250.500001 Z" id="Path-1672" fill-opacity="0.479999989" fill="#FFFFFF" sketch:type="MSShapeGroup"></path>
                </g>
                <text id="Planet-Beta" opacity="0.25495569" sketch:type="MSTextLayer" font-family="Proxima Nova" font-size="24" font-weight="526" line-spacing="38" fill="#FFFFFF">
                    <tspan x="902" y="229.82399">Planet Beta</tspan>
                </text>
                <ellipse id="Oval-2143" stroke="#FFFFFF" stroke-width="3" sketch:type="MSShapeGroup" cx="780.5" cy="186.5" rx="26.5" ry="26.5"></ellipse>
                <ellipse id="Oval-2143" stroke="#FFFFFF" stroke-width="3" sketch:type="MSShapeGroup" cx="1101" cy="472.5" rx="26.5" ry="26.5"></ellipse>
                <text id="Planet-Mindspace" opacity="0.25" sketch:type="MSTextLayer" font-family="Proxima Nova" font-size="24" font-weight="526" line-spacing="38" fill="#FFFFFF">
                    <tspan x="1031" y="742">Planet Mindspace</tspan>
                </text>
                <text id="iPhone-app" opacity="0.25" sketch:type="MSTextLayer" font-family="Proxima Nova" font-size="24" font-weight="526" line-spacing="38" fill="#FFFFFF">
                    <tspan x="100.957188" y="594.952">iPhone app</tspan>
                </text>
                <text id="Connecting" opacity="0.25" sketch:type="MSTextLayer" font-family="Proxima Nova" font-size="24" font-weight="526" fill="#FFFFFF">
                    <tspan x="241.170414" y="924.818272">Connecting</tspan>
                    <tspan x="241.170414" y="953.818272">other software</tspan>
                </text>
                <text id="Planet-Earth" opacity="0.25495569" sketch:type="MSTextLayer" font-family="Proxima Nova" font-size="24" font-weight="526" sketch:alignment="middle" line-spacing="38" fill="#FFFFFF">
                    <tspan x="272.756" y="71">Planet Earth</tspan>
                </text>
                <text id="Android-app" opacity="0.25" sketch:type="MSTextLayer" font-family="Proxima Nova" font-size="24" font-weight="526" line-spacing="38" fill="#FFFFFF">
                    <tspan x="1118" y="991.000001">Android app</tspan>
                </text>
                <text id="1" sketch:type="MSTextLayer" font-family="Proxima Nova" font-size="34" font-weight="526" sketch:alignment="middle" line-spacing="43" fill="#FFFFFF">
                    <tspan x="773.04" y="197">1</tspan>
                </text>
                <text id="2" sketch:type="MSTextLayer" font-family="Proxima Nova" font-size="34" font-weight="526" sketch:alignment="middle" line-spacing="43" fill="#FFFFFF">
                    <tspan x="1091.885" y="483">2</tspan>
                </text>
                <g id="Oval-2143-+-3" transform="translate(617.500000, 472.000000)">
                    <ellipse id="Oval-2143" stroke="#FFFFFF" stroke-width="3" sketch:type="MSShapeGroup" cx="27.5" cy="26.5" rx="26.5" ry="26.5"></ellipse>
                    <text id="3" sketch:type="MSTextLayer" font-family="Proxima Nova" font-size="34" font-weight="526" sketch:alignment="middle" line-spacing="43" fill="#FFFFFF">
                        <tspan x="18.742" y="37">3</tspan>
                    </text>
                </g>
                <g id="Line-+-Oval-2529" transform="translate(1218.000000, 1003.000001) rotate(-270.000000) translate(-1218.000000, -1003.000001) translate(1210.500000, 904.000001)" sketch:type="MSShapeGroup" opacity="0.5">
                    <path d="M7,16.5 L7,198" id="Line" stroke="#FFFFFF" stroke-width="2" stroke-linecap="square"></path>
                    <circle id="Oval-2529" fill="#FFFFFF" cx="7.5" cy="8.5" r="7.5"></circle>
                </g>
                <g id="Line-+-Oval-2529" transform="translate(1002.000000, 242.823990) rotate(-270.000000) translate(-1002.000000, -242.823990) translate(994.500000, 143.823990)" sketch:type="MSShapeGroup" opacity="0.5">
                    <path d="M7,16.5 L7,198" id="Line" stroke="#FFFFFF" stroke-width="2" stroke-linecap="square"></path>
                    <ellipse id="Oval-2529" fill="#FFFFFF" cx="7.5" cy="8.5" rx="7.5" ry="7.5"></ellipse>
                </g>
                <g id="Line-+-Oval-2529" transform="translate(200.957188, 605.500000) rotate(-270.000000) translate(-200.957188, -605.500000) translate(193.457188, 506.500000)" sketch:type="MSShapeGroup" opacity="0.5">
                    <path d="M7,16.5 L7,198" id="Line" stroke="#FFFFFF" stroke-width="2" stroke-linecap="square"></path>
                    <circle id="Oval-2529" fill="#FFFFFF" cx="7.5" cy="8.5" r="7.5"></circle>
                </g>
                <g id="Line-+-Oval-2529" transform="translate(1061.500000, 752.373119) scale(-1, 1) rotate(-270.000000) translate(-1061.500000, -752.373119) translate(1054.000000, 593.373119)" sketch:type="MSShapeGroup" opacity="0.5">
                    <path d="M7,16.5 L7,317.5" id="Line" stroke="#FFFFFF" stroke-width="2" stroke-linecap="square"></path>
                    <circle id="Oval-2529" fill="#FFFFFF" cx="7.5" cy="8.5" r="7.5"></circle>
                </g>
                <g id="Line-+-Oval-2529" transform="translate(280.670414, 965.681728) scale(-1, 1) rotate(-270.000000) translate(-280.670414, -965.681728) translate(273.170414, 850.181728)" sketch:type="MSShapeGroup" opacity="0.5">
                    <path d="M7,15.5 L7,229" id="Line" stroke="#FFFFFF" stroke-width="2" stroke-linecap="square"></path>
                    <ellipse id="Oval-2529" fill="#FFFFFF" cx="7.5" cy="7.5" rx="7.5" ry="7.5"></ellipse>
                </g>
                <g id="Line-+-Oval-2529" transform="translate(311.000000, 84.500000) scale(-1, 1) rotate(-270.000000) translate(-311.000000, -84.500000) translate(303.500000, -6.500000)" sketch:type="MSShapeGroup" opacity="0.5">
                    <path d="M7,15.5 L7,182" id="Line" stroke="#FFFFFF" stroke-width="2" stroke-linecap="square"></path>
                    <circle id="Oval-2529" fill="#FFFFFF" cx="7.5" cy="7.5" r="7.5"></circle>
                </g>
            </g>
        </g>
    </g>
</svg>