<?xml version="1.0" encoding="UTF-8" standalone="no"?>
<svg width="558px" height="366px" viewBox="0 0 558 366" version="1.1" xmlns="http://www.w3.org/2000/svg" xmlns:xlink="http://www.w3.org/1999/xlink" xmlns:sketch="http://www.bohemiancoding.com/sketch/ns">
    <!-- Generator: Sketch 3.2.2 (9983) - http://www.bohemiancoding.com/sketch -->
    <title>B004_earth_xs</title>
    <desc>Created with Sketch.</desc>
    <defs></defs>
    <g id="Page-3" stroke="none" stroke-width="1" fill="none" fill-rule="evenodd" sketch:type="MSPage">
        <g id="Caroussel-planeten2" sketch:type="MSArtboardGroup" transform="translate(-124.000000, -407.000000)">
            <g id="B004_earth_xs" sketch:type="MSLayerGroup" transform="translate(124.000000, 407.000000)">
                <g id="Group" transform="translate(0.000000, 0.546720)" sketch:type="MSShapeGroup">
                    <circle id="Oval-93" fill="#153F90" transform="translate(182.500000, 182.500000) scale(-1, 1) translate(-182.500000, -182.500000) " cx="182.5" cy="182.5" r="182.5"></circle>
                    <circle id="Oval-94" fill="#08569E" transform="translate(189.708259, 181.844704) scale(-1, 1) translate(-189.708259, -181.844704) " cx="189.708259" cy="181.844704" r="175.291741"></circle>
                    <path d="M186.672153,293.572708 C199.778078,280.466783 223.36874,292.262118 216.815778,253.599641 C210.262816,214.937163 186.672153,190.035907 173.566229,197.899461 C160.460304,205.763016 154.926806,205.162037 142.767306,210.35009 C130.607807,215.538143 141.456711,219.524237 120.487232,223.456014 C99.5177527,227.387792 71.3400148,235.906643 81.8247545,258.842011 C92.3094942,281.777379 100.173046,309.299817 114.589566,324.371631 C129.006085,339.443444 180.119187,363.034111 186.672151,355.825853 C193.225116,348.617594 173.566229,306.678632 186.672153,293.572708 Z" id="Path-323" fill="#86B34D"></path>
                    <path id="Path-324" stroke="#979797" stroke-width="0.525" d=""></path>
                    <path d="M269.32675,256.220826 C269.32675,256.220826 279.81149,235.906643 292.262118,227.387792 C304.712747,218.868941 333.545781,207.728905 333.545781,188.725314 C333.545781,169.721724 347.307002,100.915619 319.78456,74.048474 C292.262118,47.1813285 276.535009,17.037702 253.599641,17.037702 C230.664273,17.037702 239.183124,41.2836625 228.698384,45.8707361 C218.213645,50.4578097 178.895871,96.983842 178.895871,83.8779174 C178.895871,70.7719928 168.411131,51.7684022 152.028725,71.427289 C135.64632,91.0861759 116.642729,117.298025 134.335727,117.298025 C152.028725,117.298025 152.028727,130.40395 174.308797,142.199282 C196.588867,153.994614 243.7702,167.100539 239.83842,180.206463 C235.906641,193.312388 233.28546,211.660682 224.766607,218.213645 C228.043088,218.213645 245.736088,188.725314 252.944345,188.725314 C260.152601,188.725314 293.572713,190.691203 290.29623,201.831239 C287.019747,212.971275 266.050271,230.008977 266.050269,237.872531 C266.050267,245.736086 244.942585,235.906643 238.527828,239.183124 C232.11307,242.459605 246.391384,269.32675 241.149013,276.535009 C235.906641,283.743268 267.360862,262.773788 267.360862,262.773788" id="Path-325" fill="#86B34D"></path>
                    <path d="M50.5830897,71.2877594 C50.5830897,71.2877594 68.2760879,114.842155 64.9996067,128.137708 C61.7231256,141.43326 64.3443105,173.067506 64.3443105,173.067506 C64.3443105,173.067506 61.7231256,196.449339 41.4089425,196.449339 C21.0947593,196.449339 -1.96588868,144.820469 24.2459608,93.7073602 C50.4578103,42.5942512 50.5830897,71.2877594 50.5830897,71.2877594 Z" id="Path-326" fill="#86B34E"></path>
                </g>
                <text id="Planet-Earth" opacity="0.25495569" sketch:type="MSTextLayer" font-family="Proxima Nova" font-size="24" font-weight="526" sketch:alignment="middle" line-spacing="38" fill="#FFFFFF">
                    <tspan x="428.756" y="264.927838">Planet Earth</tspan>
                </text>
                <g id="Line-+-Oval-2529" transform="translate(421.500000, 274.927838) scale(-1, 1) rotate(-270.000000) translate(-421.500000, -274.927838) translate(414.000000, 139.427838)" sketch:type="MSShapeGroup" opacity="0.5">
                    <path d="M7,15 L7,271" id="Line" stroke="#FFFFFF" stroke-width="2" stroke-linecap="square"></path>
                    <circle id="Oval-2529" fill="#FFFFFF" cx="7.5" cy="7.5" r="7.5"></circle>
                </g>
            </g>
        </g>
    </g>
</svg>