<?xml version="1.0" encoding="UTF-8" standalone="no"?>
<svg width="503px" height="484px" viewBox="0 0 503 484" version="1.1" xmlns="http://www.w3.org/2000/svg" xmlns:xlink="http://www.w3.org/1999/xlink" xmlns:sketch="http://www.bohemiancoding.com/sketch/ns">
    <!-- Generator: Sketch 3.2.2 (9983) - http://www.bohemiancoding.com/sketch -->
    <title>B006_mindspace_xs</title>
    <desc>Created with Sketch.</desc>
    <defs>
        <ellipse id="path-1" cx="54.3519698" cy="54.2708474" rx="54.159241" ry="54.0784063"></ellipse>
        <ellipse id="path-3" cx="54.3519698" cy="54.2708474" rx="54.159241" ry="54.0784063"></ellipse>
        <ellipse id="path-5" cx="36.6501814" cy="36.5954797" rx="36.5202221" ry="36.4657144"></ellipse>
        <ellipse id="path-7" cx="36.6501814" cy="36.5954797" rx="36.5202221" ry="36.4657144"></ellipse>
        <ellipse id="path-9" cx="36.6501814" cy="36.5954797" rx="36.5202221" ry="36.4657144"></ellipse>
        <ellipse id="path-11" cx="160.5627" cy="160.323054" rx="159.993354" ry="159.754558"></ellipse>
        <ellipse id="path-13" cx="59.6445551" cy="59.5555334" rx="59.4330592" ry="59.3443532"></ellipse>
    </defs>
    <g id="Page-3" stroke="none" stroke-width="1" fill="none" fill-rule="evenodd" sketch:type="MSPage">
        <g id="Caroussel-planeten2" sketch:type="MSArtboardGroup" transform="translate(-1788.000000, -135.000000)">
            <g id="B006_mindspace_xs" sketch:type="MSLayerGroup" transform="translate(1788.000000, 135.000000)">
                <g id="Group-+-Oval-94-+-Group-+-Group" transform="translate(0.000000, 1.000000)">
                    <g id="Group" sketch:type="MSShapeGroup">
                        <ellipse id="Oval-93" fill="#C99D59" transform="translate(54.377803, 54.296642) scale(-1, 1) translate(-54.377803, -54.296642) " cx="54.3778027" cy="54.2966418" rx="54.3778027" ry="54.2966418"></ellipse>
                        <path id="Path-324" stroke="#979797" stroke-width="0.5" d=""></path>
                    </g>
                    <ellipse id="Oval-94" fill="#E2B26A" sketch:type="MSShapeGroup" transform="translate(54.988789, 52.057876) scale(-1, 1) translate(-54.988789, -52.057876) " cx="54.9887892" cy="52.057876" rx="49.6917443" ry="49.6175775"></ellipse>
                    <g id="Group-+-Group">
                        <mask id="mask-2" sketch:name="Mask" fill="white">
                            <use xlink:href="#path-1"></use>
                        </mask>
                        <use id="Mask" sketch:type="MSShapeGroup" transform="translate(54.351970, 54.270847) scale(-1, 1) translate(-54.351970, -54.270847) " xlink:href="#path-1"></use>
                        <g mask="url(#mask-2)" id="Group">
                            <g transform="translate(-5.376682, -1.952239)">
                                <g transform="translate(23.508087, 5.422886)">
                                    <path d="M20.9622085,84.0481796 C35.4317771,89.6025266 50.0982157,86.4552778 53.7206159,77.0186026 C57.3430161,67.5819274 48.5496487,55.4293028 34.0800801,49.8749558 C19.6105115,44.3206088 4.9440729,47.4678576 1.32167268,56.9045328 C-2.30072753,66.341208 6.49263987,78.4938326 20.9622085,84.0481796 L20.9622085,84.0481796 Z" id="Oval-1499" opacity="0.649545243" fill="#E3BD83" sketch:type="MSShapeGroup"></path>
                                    <path d="M39.4849941,20.798691 C45.7444198,25.6890903 53.7872066,25.8540102 57.4490613,21.16705 C61.110916,16.4800897 59.0051687,8.71610573 52.745743,3.82570645 C46.4863174,-1.06469283 38.4435306,-1.22961273 34.7816759,3.45734754 C31.1198212,8.14430782 33.2255685,15.9082918 39.4849941,20.798691 L39.4849941,20.798691 Z" id="Oval-1499" opacity="0.649545243" fill="#E3BD83" sketch:type="MSShapeGroup"></path>
                                    <path d="M11.8735552,20.031276 C14.0224588,21.7101835 16.5908911,22.013461 17.6103093,20.7086652 C18.6297275,19.4038694 17.7140986,16.9851 15.565195,15.3061925 C13.4162914,13.6272849 10.847859,13.3240074 9.82844084,14.6288032 C8.80902264,15.933599 9.72465151,18.3523685 11.8735552,20.031276 L11.8735552,20.031276 Z" id="Oval-1499" fill="#BF924E" sketch:type="MSShapeGroup"></path>
                                    <path d="M4.14512322,22.1154805 C3.68248814,23.4590703 4.1912768,24.8525916 5.2815345,25.2279974 C6.3717922,25.6034033 7.63066053,24.8185351 8.0932956,23.4749452 C8.55593068,22.1313554 8.04714202,20.7378341 6.95688432,20.3624283 C5.86662662,19.9870225 4.60775829,20.7718907 4.14512322,22.1154805 L4.14512322,22.1154805 Z" id="Oval-1499" fill="#BF924E" sketch:type="MSShapeGroup"></path>
                                    <path d="M36.2028817,92.7419461 C36.6849059,94.5408852 39.5517016,95.3357611 42.6060491,94.5173512 C45.6603965,93.6989413 47.7456765,91.5771607 47.2636522,89.7782216 C46.7816279,87.9792825 43.9148322,87.1844066 40.8604848,88.0028165 C37.8061373,88.8212264 35.7208574,90.943007 36.2028817,92.7419461 L36.2028817,92.7419461 Z" id="Oval-1499" fill="#BF924E" sketch:type="MSShapeGroup"></path>
                                    <path d="M69.3932707,57.7135478 C69.0379082,59.5417291 71.2661165,61.5128794 74.3701131,62.1162352 C77.4741097,62.719591 80.2784743,61.7266738 80.6338367,59.8984925 C80.9891991,58.0703113 78.7609909,56.099161 75.6569943,55.4958052 C72.5529977,54.8924493 69.7486331,55.8853666 69.3932707,57.7135478 L69.3932707,57.7135478 Z" id="Oval-1499" fill="#BF924E" sketch:type="MSShapeGroup"></path>
                                </g>
                                <g transform="translate(0.000000, 0.395647)">
                                    <path d="M14.6744942,85.896601 C17.4212767,75.0213753 22.9351055,68.4041583 33.753821,66.8622726 C36.0740506,66.531593 39.4179899,66.9652258 41.5812371,65.8861532 C46.8676098,63.2492008 44.3283878,54.360407 47.9410127,50.7563025 C49.290932,49.409567 51.2915135,49.238803 52.8331478,48.316004 C54.9112439,47.072087 57.0009182,45.6950414 59.6821369,46.3637652 C61.2519905,46.7553029 68.4703134,48.298379 69.466407,49.2921234 C71.529605,51.3504554 74.2231267,55.5693515 77.2938231,57.1010786 C78.8339637,57.8693327 82.6022738,58.004472 83.6535987,59.0533174 C85.7721534,61.1668755 84.4634623,64.2059719 89.0349473,63.4458547 C107.443158,60.3850555 105.454915,48.8040637 114.963263,48.8040637" id="Path-705" stroke="#D5A65E" stroke-width="0.972" sketch:type="MSShapeGroup"></path>
                                    <path d="M77.7830366,58.077198 C70.1566555,67.0370465 78.5484873,71.8291202 76.8046096,80.5279443 C76.2339959,83.3742837 73.2516247,84.8687327 71.9124745,86.8727204 C69.1089709,91.0680578 57.6464443,95.0910827 54.7900018,92.2413771 C54.5529159,92.0048504 54.0162546,90.2094729 53.8115748,89.8010786 C51.6027242,85.3937965 43.5961053,82.4994755 39.1351696,81.016004 C36.7802918,80.232896 36.0359165,75.483762 34.732248,74.1831681 C32.6183937,72.0742993 28.2508966,70.6454612 26.4156184,68.8145114 C24.7297958,67.1326649 26.2496928,63.2803204 24.9479779,61.9816756 C23.3297269,60.3672413 21.0594612,59.6167729 20.0558428,56.6130189 C18.714051,52.5971374 17.4476053,47.1780971 14.6744942,44.4115264 C14.5567069,44.2940168 1.98320083,42.717413 0.487302517,41.9712278" id="Path-706" stroke="#D5A65E" stroke-width="0.972" sketch:type="MSShapeGroup"></path>
                                    <path d="M77.7830366,58.5652577 C77.7830366,56.6130189 77.6528686,54.6564562 77.7830366,52.7085413 C77.9116018,50.7846117 80.5856555,49.6891712 81.2075312,47.8279443 C83.5882637,40.7025914 83.8060924,34.834124 87.5673068,27.3294368 C87.7465682,26.9717595 88.5783401,25.4097275 88.0565203,24.8891383 C85.2931079,22.1322434 72.9956209,21.5249566 68.9771935,19.5204816 C66.6090861,18.3392205 63.6842669,14.2400384 62.1282044,12.6876458 C61.6627143,12.2232535 72.9635975,1.31722354 73.380115,0.486153218" id="Path-707" stroke="#D5A65E" stroke-width="0.972" sketch:type="MSShapeGroup"></path>
                                    <path d="M15.6529212,45.8757055 C21.1023934,38.3984118 30.7944676,36.138527 36.689102,30.257795 C38.2993312,28.6513635 38.9898383,26.4983059 40.6028101,24.8891383 C47.0379896,18.4691361 58.6624585,23.995327 64.0850584,13.1757055" id="Path-708" stroke="#D5A65E" stroke-width="0.972" sketch:type="MSShapeGroup"></path>
                                    <path d="M76.8046096,81.9921234 C85.3356637,83.2902005 84.6658218,85.9640337 87.0780932,90.777198 C88.1207916,92.8576762 91.098512,92.4542952 91.9702283,94.1936159 C92.9548843,96.1582832 91.4810148,99.5054486 91.4810148,101.026452" id="Path-709" stroke="#D5A65E" stroke-width="0.972" sketch:type="MSShapeGroup"></path>
                                    <path d="M57.2360693,93.2174965 C51.6310339,97.8108333 42.1082133,99.0365392 38.1567426,102.978691 C36.8964511,104.23601 36.895155,105.983974 36.1998885,107.371228" id="Path-710" stroke="#D5A65E" stroke-width="0.972" sketch:type="MSShapeGroup"></path>
                                </g>
                            </g>
                        </g>
                    </g>
                </g>
                <g id="Group-+-Oval-94-+-Group-+-Group-4" transform="translate(0.000000, 0.886000)">
                    <g id="Group" sketch:type="MSShapeGroup">
                        <ellipse id="Oval-93" fill="#C99D59" transform="translate(54.377803, 54.296642) scale(-1, 1) translate(-54.377803, -54.296642) " cx="54.3778027" cy="54.2966418" rx="54.3778027" ry="54.2966418"></ellipse>
                        <path id="Path-324" stroke="#979797" stroke-width="0.5" d=""></path>
                    </g>
                    <ellipse id="Oval-94" fill="#E2B26A" sketch:type="MSShapeGroup" transform="translate(54.988789, 52.057876) scale(-1, 1) translate(-54.988789, -52.057876) " cx="54.9887892" cy="52.057876" rx="49.6917443" ry="49.6175775"></ellipse>
                    <g id="Group-+-Group">
                        <mask id="mask-4" sketch:name="Mask" fill="white">
                            <use xlink:href="#path-3"></use>
                        </mask>
                        <use id="Mask" sketch:type="MSShapeGroup" transform="translate(54.351970, 54.270847) scale(-1, 1) translate(-54.351970, -54.270847) " xlink:href="#path-3"></use>
                        <g mask="url(#mask-4)" id="Group">
                            <g transform="translate(-5.376682, -1.952239)">
                                <g transform="translate(23.508087, 5.422886)">
                                    <path d="M20.9622085,84.0481796 C35.4317771,89.6025266 50.0982157,86.4552778 53.7206159,77.0186026 C57.3430161,67.5819274 48.5496487,55.4293028 34.0800801,49.8749558 C19.6105115,44.3206088 4.9440729,47.4678576 1.32167268,56.9045328 C-2.30072753,66.341208 6.49263987,78.4938326 20.9622085,84.0481796 L20.9622085,84.0481796 Z" id="Oval-1499" opacity="0.649545243" fill="#E3BD83" sketch:type="MSShapeGroup"></path>
                                    <path d="M39.4849941,20.798691 C45.7444198,25.6890903 53.7872066,25.8540102 57.4490613,21.16705 C61.110916,16.4800897 59.0051687,8.71610573 52.745743,3.82570645 C46.4863174,-1.06469283 38.4435306,-1.22961273 34.7816759,3.45734754 C31.1198212,8.14430782 33.2255685,15.9082918 39.4849941,20.798691 L39.4849941,20.798691 Z" id="Oval-1499" opacity="0.649545243" fill="#E3BD83" sketch:type="MSShapeGroup"></path>
                                    <path d="M11.8735552,20.031276 C14.0224588,21.7101835 16.5908911,22.013461 17.6103093,20.7086652 C18.6297275,19.4038694 17.7140986,16.9851 15.565195,15.3061925 C13.4162914,13.6272849 10.847859,13.3240074 9.82844084,14.6288032 C8.80902264,15.933599 9.72465151,18.3523685 11.8735552,20.031276 L11.8735552,20.031276 Z" id="Oval-1499" fill="#BF924E" sketch:type="MSShapeGroup"></path>
                                    <path d="M4.14512322,22.1154805 C3.68248814,23.4590703 4.1912768,24.8525916 5.2815345,25.2279974 C6.3717922,25.6034033 7.63066053,24.8185351 8.0932956,23.4749452 C8.55593068,22.1313554 8.04714202,20.7378341 6.95688432,20.3624283 C5.86662662,19.9870225 4.60775829,20.7718907 4.14512322,22.1154805 L4.14512322,22.1154805 Z" id="Oval-1499" fill="#BF924E" sketch:type="MSShapeGroup"></path>
                                    <path d="M36.2028817,92.7419461 C36.6849059,94.5408852 39.5517016,95.3357611 42.6060491,94.5173512 C45.6603965,93.6989413 47.7456765,91.5771607 47.2636522,89.7782216 C46.7816279,87.9792825 43.9148322,87.1844066 40.8604848,88.0028165 C37.8061373,88.8212264 35.7208574,90.943007 36.2028817,92.7419461 L36.2028817,92.7419461 Z" id="Oval-1499" fill="#BF924E" sketch:type="MSShapeGroup"></path>
                                    <path d="M69.3932707,57.7135478 C69.0379082,59.5417291 71.2661165,61.5128794 74.3701131,62.1162352 C77.4741097,62.719591 80.2784743,61.7266738 80.6338367,59.8984925 C80.9891991,58.0703113 78.7609909,56.099161 75.6569943,55.4958052 C72.5529977,54.8924493 69.7486331,55.8853666 69.3932707,57.7135478 L69.3932707,57.7135478 Z" id="Oval-1499" fill="#BF924E" sketch:type="MSShapeGroup"></path>
                                </g>
                                <g transform="translate(0.000000, 0.395647)">
                                    <path d="M14.6744942,85.896601 C17.4212767,75.0213753 22.9351055,68.4041583 33.753821,66.8622726 C36.0740506,66.531593 39.4179899,66.9652258 41.5812371,65.8861532 C46.8676098,63.2492008 44.3283878,54.360407 47.9410127,50.7563025 C49.290932,49.409567 51.2915135,49.238803 52.8331478,48.316004 C54.9112439,47.072087 57.0009182,45.6950414 59.6821369,46.3637652 C61.2519905,46.7553029 68.4703134,48.298379 69.466407,49.2921234 C71.529605,51.3504554 74.2231267,55.5693515 77.2938231,57.1010786 C78.8339637,57.8693327 82.6022738,58.004472 83.6535987,59.0533174 C85.7721534,61.1668755 84.4634623,64.2059719 89.0349473,63.4458547 C107.443158,60.3850555 105.454915,48.8040637 114.963263,48.8040637" id="Path-705" stroke="#D5A65E" stroke-width="0.972" sketch:type="MSShapeGroup"></path>
                                    <path d="M77.7830366,58.077198 C70.1566555,67.0370465 78.5484873,71.8291202 76.8046096,80.5279443 C76.2339959,83.3742837 73.2516247,84.8687327 71.9124745,86.8727204 C69.1089709,91.0680578 57.6464443,95.0910827 54.7900018,92.2413771 C54.5529159,92.0048504 54.0162546,90.2094729 53.8115748,89.8010786 C51.6027242,85.3937965 43.5961053,82.4994755 39.1351696,81.016004 C36.7802918,80.232896 36.0359165,75.483762 34.732248,74.1831681 C32.6183937,72.0742993 28.2508966,70.6454612 26.4156184,68.8145114 C24.7297958,67.1326649 26.2496928,63.2803204 24.9479779,61.9816756 C23.3297269,60.3672413 21.0594612,59.6167729 20.0558428,56.6130189 C18.714051,52.5971374 17.4476053,47.1780971 14.6744942,44.4115264 C14.5567069,44.2940168 1.98320083,42.717413 0.487302517,41.9712278" id="Path-706" stroke="#D5A65E" stroke-width="0.972" sketch:type="MSShapeGroup"></path>
                                    <path d="M77.7830366,58.5652577 C77.7830366,56.6130189 77.6528686,54.6564562 77.7830366,52.7085413 C77.9116018,50.7846117 80.5856555,49.6891712 81.2075312,47.8279443 C83.5882637,40.7025914 83.8060924,34.834124 87.5673068,27.3294368 C87.7465682,26.9717595 88.5783401,25.4097275 88.0565203,24.8891383 C85.2931079,22.1322434 72.9956209,21.5249566 68.9771935,19.5204816 C66.6090861,18.3392205 63.6842669,14.2400384 62.1282044,12.6876458 C61.6627143,12.2232535 72.9635975,1.31722354 73.380115,0.486153218" id="Path-707" stroke="#D5A65E" stroke-width="0.972" sketch:type="MSShapeGroup"></path>
                                    <path d="M15.6529212,45.8757055 C21.1023934,38.3984118 30.7944676,36.138527 36.689102,30.257795 C38.2993312,28.6513635 38.9898383,26.4983059 40.6028101,24.8891383 C47.0379896,18.4691361 58.6624585,23.995327 64.0850584,13.1757055" id="Path-708" stroke="#D5A65E" stroke-width="0.972" sketch:type="MSShapeGroup"></path>
                                    <path d="M76.8046096,81.9921234 C85.3356637,83.2902005 84.6658218,85.9640337 87.0780932,90.777198 C88.1207916,92.8576762 91.098512,92.4542952 91.9702283,94.1936159 C92.9548843,96.1582832 91.4810148,99.5054486 91.4810148,101.026452" id="Path-709" stroke="#D5A65E" stroke-width="0.972" sketch:type="MSShapeGroup"></path>
                                    <path d="M57.2360693,93.2174965 C51.6310339,97.8108333 42.1082133,99.0365392 38.1567426,102.978691 C36.8964511,104.23601 36.895155,105.983974 36.1998885,107.371228" id="Path-710" stroke="#D5A65E" stroke-width="0.972" sketch:type="MSShapeGroup"></path>
                                </g>
                            </g>
                        </g>
                    </g>
                </g>
                <circle id="Oval-2529" opacity="0.5" fill="#FFFFFF" sketch:type="MSShapeGroup" transform="translate(205.250000, 234.004881) scale(-1, 1) translate(-205.250000, -234.004881) " cx="205.25" cy="234.004881" r="6.5"></circle>
                <g id="Group-+-Oval-94-+-Group-+-Group" transform="translate(24.750000, 350.652998)">
                    <g id="Group" sketch:type="MSShapeGroup">
                        <ellipse id="Oval-93" fill="#C99D59" transform="translate(36.667601, 36.612873) scale(-1, 1) translate(-36.667601, -36.612873) " cx="36.6676009" cy="36.6128731" rx="36.6676009" ry="36.6128731"></ellipse>
                        <path id="Path-324" stroke="#979797" stroke-width="0.5" d=""></path>
                    </g>
                    <ellipse id="Oval-94" fill="#E2B26A" sketch:type="MSShapeGroup" transform="translate(37.079596, 35.103247) scale(-1, 1) translate(-37.079596, -35.103247) " cx="37.0795964" cy="35.1032467" rx="33.5077358" ry="33.4577243"></ellipse>
                    <g id="Group-+-Group">
                        <mask id="mask-6" sketch:name="Mask" fill="white">
                            <use xlink:href="#path-5"></use>
                        </mask>
                        <use id="Mask" sketch:type="MSShapeGroup" transform="translate(36.650181, 36.595480) scale(-1, 1) translate(-36.650181, -36.595480) " xlink:href="#path-5"></use>
                        <g mask="url(#mask-6)" id="Group">
                            <g transform="translate(-3.625561, -1.316418)">
                                <g transform="translate(15.851784, 3.656716)">
                                    <path d="M14.1350672,56.6746899 C23.8920699,60.4200523 33.7818243,58.2978249 36.224452,51.9345623 C38.6670797,45.5712997 32.7376071,37.3766399 22.9806045,33.6312775 C13.2236018,29.8859151 3.33384732,32.0081425 0.891219653,38.3714052 C-1.55140801,44.7346678 4.3780645,52.9293275 14.1350672,56.6746899 L14.1350672,56.6746899 Z" id="Oval-1499" opacity="0.649545243" fill="#E3BD83" sketch:type="MSShapeGroup"></path>
                                    <path d="M26.6252025,14.0248054 C30.8460078,17.32246 36.2693549,17.4336674 38.7385872,14.2731942 C41.2078195,11.112721 39.787889,5.87737405 35.5670836,2.57971949 C31.3462782,-0.717935075 25.9229312,-0.829142531 23.4536989,2.33133068 C20.9844666,5.4918039 22.4043971,10.7271509 26.6252025,14.0248054 L26.6252025,14.0248054 Z" id="Oval-1499" opacity="0.649545243" fill="#E3BD83" sketch:type="MSShapeGroup"></path>
                                    <path d="M8.00647985,13.5073283 C9.45551121,14.6394357 11.1874358,14.8439393 11.8748416,13.9640999 C12.5622475,13.0842606 11.944828,11.4532555 10.4957966,10.3211481 C9.04676528,9.18904076 7.31484073,8.98453713 6.62743488,9.86437649 C5.94002903,10.7442159 6.5574485,12.3752209 8.00647985,13.5073283 L8.00647985,13.5073283 Z" id="Oval-1499" fill="#BF924E" sketch:type="MSShapeGroup"></path>
                                    <path d="M2.79510602,14.9127322 C2.48314567,15.8187309 2.82622794,16.7583989 3.56140171,17.0115396 C4.29657548,17.2646802 5.1454454,16.7354342 5.45740575,15.8294356 C5.7693661,14.9234369 5.42628384,13.9837689 4.69111007,13.7306282 C3.9559363,13.4774876 3.10706637,14.0067336 2.79510602,14.9127322 L2.79510602,14.9127322 Z" id="Oval-1499" fill="#BF924E" sketch:type="MSShapeGroup"></path>
                                    <path d="M24.4120349,62.5370004 C24.7370696,63.7500464 26.6701841,64.2860408 28.729767,63.7341772 C30.78935,63.1823136 32.1954791,61.7515716 31.8704444,60.5385256 C31.5454097,59.3254795 29.6122951,58.7894852 27.5527122,59.3413487 C25.4931293,59.8932123 24.0870002,61.3239543 24.4120349,62.5370004 L24.4120349,62.5370004 Z" id="Oval-1499" fill="#BF924E" sketch:type="MSShapeGroup"></path>
                                    <path d="M46.79271,38.9169336 C46.5530849,40.1496981 48.0555923,41.4788682 50.1486542,41.8857182 C52.2417162,42.2925682 54.1327326,41.6230323 54.3723578,40.3902679 C54.6119829,39.1575035 53.1094755,37.8283333 51.0164136,37.4214833 C48.9233517,37.0146333 47.0323352,37.6841692 46.79271,38.9169336 L46.79271,38.9169336 Z" id="Oval-1499" fill="#BF924E" sketch:type="MSShapeGroup"></path>
                                </g>
                                <g transform="translate(0.000000, 0.266790)">
                                    <path d="M9.89518647,57.9211025 C11.7473747,50.5878081 15.4654151,46.1257398 22.7606041,45.0860279 C24.3251626,44.8630466 26.5800207,45.1554504 28.0387241,44.4278189 C31.6033882,42.6496905 29.8911606,36.6558708 32.3271966,34.2255801 C33.2374633,33.3174603 34.5864793,33.2023121 35.6260217,32.5800577 C37.0273067,31.7412697 38.436399,30.8127114 40.2443767,31.2636398 C41.3029477,31.5276584 46.1703489,32.568173 46.8420267,33.2382667 C48.2332658,34.6262245 50.0495396,37.4710765 52.1201468,38.5039383 C53.1586819,39.0219812 55.6996984,39.1131073 56.4086193,39.8203562 C57.837186,41.2455537 56.95472,43.2948526 60.0373268,42.7822965 C72.4502029,40.7183631 71.1095067,32.9091622 77.5210995,32.9091622" id="Path-705" stroke="#D5A65E" stroke-width="0.972" sketch:type="MSShapeGroup"></path>
                                    <path d="M52.4500293,39.1621473 C47.3074695,45.20388 52.9661818,48.4352324 51.7902643,54.3009532 C51.4054927,56.2202738 49.3944442,57.2279986 48.4914392,58.5793115 C46.6010033,61.4082775 38.8716849,64.1210512 36.9455517,62.1994607 C36.7856818,62.0399679 36.4238047,60.8293234 36.2857867,60.5539383 C34.7963324,57.5820555 29.3973738,55.6303803 26.3893116,54.6300577 C24.8013894,54.1019987 24.2994483,50.899601 23.4203691,50.022595 C21.9949719,48.6005596 19.0499165,47.637077 17.8123665,46.4024458 C16.6755963,45.2683566 17.7004809,42.6706748 16.822719,41.7949831 C15.7315131,40.7063508 14.2006458,40.200301 13.523894,38.1748338 C12.6191078,35.4668771 11.7651283,31.8127535 9.89518647,29.9472219 C9.81576107,29.8679838 1.33729597,28.804861 0.328593899,28.3016995" id="Path-706" stroke="#D5A65E" stroke-width="0.972" sketch:type="MSShapeGroup"></path>
                                    <path d="M52.4500293,39.4912517 C52.4500293,38.1748338 52.3622554,36.8555003 52.4500293,35.541998 C52.5367223,34.2446693 54.3398686,33.5060008 54.7592068,32.2509532 C56.3645632,27.4462428 56.5114476,23.4890653 59.0476793,18.4285652 C59.1685574,18.1873791 59.7294312,17.1340823 59.3775618,16.7830428 C57.5141599,14.9240357 49.2218178,14.5145349 46.5121442,13.1628935 C44.9153012,12.3663551 42.9430607,9.6022277 41.8937892,8.55543085 C41.5799037,8.24228565 49.200224,0.88821954 49.4810868,0.327818913" id="Path-707" stroke="#D5A65E" stroke-width="0.972" sketch:type="MSShapeGroup"></path>
                                    <path d="M10.5549515,30.9345353 C14.2295956,25.8925071 20.7650768,24.3686398 24.7398991,20.403192 C25.8256958,19.3199561 26.291313,17.8681237 27.3789591,16.7830428 C31.7182774,12.4539588 39.5567954,16.1803352 43.2133192,8.88453533" id="Path-708" stroke="#D5A65E" stroke-width="0.972" sketch:type="MSShapeGroup"></path>
                                    <path d="M51.7902643,55.2882667 C57.5428558,56.1635756 57.0911734,57.9665732 58.7177968,61.2121473 C59.4209007,62.6150386 61.4288132,62.343034 62.0166218,63.5158786 C62.6805871,64.8406772 61.6867393,67.0977107 61.6867393,68.1233413" id="Path-709" stroke="#D5A65E" stroke-width="0.972" sketch:type="MSShapeGroup"></path>
                                    <path d="M38.5949642,62.8576697 C34.815422,65.9550114 28.3940705,66.7815196 25.7295466,69.4397592 C24.879717,70.2875845 24.8788431,71.466258 24.4100166,72.4016995" id="Path-710" stroke="#D5A65E" stroke-width="0.972" sketch:type="MSShapeGroup"></path>
                                </g>
                            </g>
                        </g>
                    </g>
                </g>
                <g id="Group-+-Oval-94-+-Group-+-Group-2" transform="translate(24.750000, 350.652998)">
                    <g id="Group" sketch:type="MSShapeGroup">
                        <ellipse id="Oval-93" fill="#C99D59" transform="translate(36.667601, 36.612873) scale(-1, 1) translate(-36.667601, -36.612873) " cx="36.6676009" cy="36.6128731" rx="36.6676009" ry="36.6128731"></ellipse>
                        <path id="Path-324" stroke="#979797" stroke-width="0.5" d=""></path>
                    </g>
                    <ellipse id="Oval-94" fill="#E2B26A" sketch:type="MSShapeGroup" transform="translate(37.079596, 35.103247) scale(-1, 1) translate(-37.079596, -35.103247) " cx="37.0795964" cy="35.1032467" rx="33.5077358" ry="33.4577243"></ellipse>
                    <g id="Group-+-Group">
                        <mask id="mask-8" sketch:name="Mask" fill="white">
                            <use xlink:href="#path-7"></use>
                        </mask>
                        <use id="Mask" sketch:type="MSShapeGroup" transform="translate(36.650181, 36.595480) scale(-1, 1) translate(-36.650181, -36.595480) " xlink:href="#path-7"></use>
                        <g mask="url(#mask-8)" id="Group">
                            <g transform="translate(-3.625561, -1.316418)">
                                <g transform="translate(15.851784, 3.656716)">
                                    <path d="M14.1350672,56.6746899 C23.8920699,60.4200523 33.7818243,58.2978249 36.224452,51.9345623 C38.6670797,45.5712997 32.7376071,37.3766399 22.9806045,33.6312775 C13.2236018,29.8859151 3.33384732,32.0081425 0.891219653,38.3714052 C-1.55140801,44.7346678 4.3780645,52.9293275 14.1350672,56.6746899 L14.1350672,56.6746899 Z" id="Oval-1499" opacity="0.649545243" fill="#E3BD83" sketch:type="MSShapeGroup"></path>
                                    <path d="M26.6252025,14.0248054 C30.8460078,17.32246 36.2693549,17.4336674 38.7385872,14.2731942 C41.2078195,11.112721 39.787889,5.87737405 35.5670836,2.57971949 C31.3462782,-0.717935075 25.9229312,-0.829142531 23.4536989,2.33133068 C20.9844666,5.4918039 22.4043971,10.7271509 26.6252025,14.0248054 L26.6252025,14.0248054 Z" id="Oval-1499" opacity="0.649545243" fill="#E3BD83" sketch:type="MSShapeGroup"></path>
                                    <path d="M8.00647985,13.5073283 C9.45551121,14.6394357 11.1874358,14.8439393 11.8748416,13.9640999 C12.5622475,13.0842606 11.944828,11.4532555 10.4957966,10.3211481 C9.04676528,9.18904076 7.31484073,8.98453713 6.62743488,9.86437649 C5.94002903,10.7442159 6.5574485,12.3752209 8.00647985,13.5073283 L8.00647985,13.5073283 Z" id="Oval-1499" fill="#BF924E" sketch:type="MSShapeGroup"></path>
                                    <path d="M2.79510602,14.9127322 C2.48314567,15.8187309 2.82622794,16.7583989 3.56140171,17.0115396 C4.29657548,17.2646802 5.1454454,16.7354342 5.45740575,15.8294356 C5.7693661,14.9234369 5.42628384,13.9837689 4.69111007,13.7306282 C3.9559363,13.4774876 3.10706637,14.0067336 2.79510602,14.9127322 L2.79510602,14.9127322 Z" id="Oval-1499" fill="#BF924E" sketch:type="MSShapeGroup"></path>
                                    <path d="M24.4120349,62.5370004 C24.7370696,63.7500464 26.6701841,64.2860408 28.729767,63.7341772 C30.78935,63.1823136 32.1954791,61.7515716 31.8704444,60.5385256 C31.5454097,59.3254795 29.6122951,58.7894852 27.5527122,59.3413487 C25.4931293,59.8932123 24.0870002,61.3239543 24.4120349,62.5370004 L24.4120349,62.5370004 Z" id="Oval-1499" fill="#BF924E" sketch:type="MSShapeGroup"></path>
                                    <path d="M46.79271,38.9169336 C46.5530849,40.1496981 48.0555923,41.4788682 50.1486542,41.8857182 C52.2417162,42.2925682 54.1327326,41.6230323 54.3723578,40.3902679 C54.6119829,39.1575035 53.1094755,37.8283333 51.0164136,37.4214833 C48.9233517,37.0146333 47.0323352,37.6841692 46.79271,38.9169336 L46.79271,38.9169336 Z" id="Oval-1499" fill="#BF924E" sketch:type="MSShapeGroup"></path>
                                </g>
                                <g transform="translate(0.000000, 0.266790)">
                                    <path d="M9.89518647,57.9211025 C11.7473747,50.5878081 15.4654151,46.1257398 22.7606041,45.0860279 C24.3251626,44.8630466 26.5800207,45.1554504 28.0387241,44.4278189 C31.6033882,42.6496905 29.8911606,36.6558708 32.3271966,34.2255801 C33.2374633,33.3174603 34.5864793,33.2023121 35.6260217,32.5800577 C37.0273067,31.7412697 38.436399,30.8127114 40.2443767,31.2636398 C41.3029477,31.5276584 46.1703489,32.568173 46.8420267,33.2382667 C48.2332658,34.6262245 50.0495396,37.4710765 52.1201468,38.5039383 C53.1586819,39.0219812 55.6996984,39.1131073 56.4086193,39.8203562 C57.837186,41.2455537 56.95472,43.2948526 60.0373268,42.7822965 C72.4502029,40.7183631 71.1095067,32.9091622 77.5210995,32.9091622" id="Path-705" stroke="#D5A65E" stroke-width="0.972" sketch:type="MSShapeGroup"></path>
                                    <path d="M52.4500293,39.1621473 C47.3074695,45.20388 52.9661818,48.4352324 51.7902643,54.3009532 C51.4054927,56.2202738 49.3944442,57.2279986 48.4914392,58.5793115 C46.6010033,61.4082775 38.8716849,64.1210512 36.9455517,62.1994607 C36.7856818,62.0399679 36.4238047,60.8293234 36.2857867,60.5539383 C34.7963324,57.5820555 29.3973738,55.6303803 26.3893116,54.6300577 C24.8013894,54.1019987 24.2994483,50.899601 23.4203691,50.022595 C21.9949719,48.6005596 19.0499165,47.637077 17.8123665,46.4024458 C16.6755963,45.2683566 17.7004809,42.6706748 16.822719,41.7949831 C15.7315131,40.7063508 14.2006458,40.200301 13.523894,38.1748338 C12.6191078,35.4668771 11.7651283,31.8127535 9.89518647,29.9472219 C9.81576107,29.8679838 1.33729597,28.804861 0.328593899,28.3016995" id="Path-706" stroke="#D5A65E" stroke-width="0.972" sketch:type="MSShapeGroup"></path>
                                    <path d="M52.4500293,39.4912517 C52.4500293,38.1748338 52.3622554,36.8555003 52.4500293,35.541998 C52.5367223,34.2446693 54.3398686,33.5060008 54.7592068,32.2509532 C56.3645632,27.4462428 56.5114476,23.4890653 59.0476793,18.4285652 C59.1685574,18.1873791 59.7294312,17.1340823 59.3775618,16.7830428 C57.5141599,14.9240357 49.2218178,14.5145349 46.5121442,13.1628935 C44.9153012,12.3663551 42.9430607,9.6022277 41.8937892,8.55543085 C41.5799037,8.24228565 49.200224,0.88821954 49.4810868,0.327818913" id="Path-707" stroke="#D5A65E" stroke-width="0.972" sketch:type="MSShapeGroup"></path>
                                    <path d="M10.5549515,30.9345353 C14.2295956,25.8925071 20.7650768,24.3686398 24.7398991,20.403192 C25.8256958,19.3199561 26.291313,17.8681237 27.3789591,16.7830428 C31.7182774,12.4539588 39.5567954,16.1803352 43.2133192,8.88453533" id="Path-708" stroke="#D5A65E" stroke-width="0.972" sketch:type="MSShapeGroup"></path>
                                    <path d="M51.7902643,55.2882667 C57.5428558,56.1635756 57.0911734,57.9665732 58.7177968,61.2121473 C59.4209007,62.6150386 61.4288132,62.343034 62.0166218,63.5158786 C62.6805871,64.8406772 61.6867393,67.0977107 61.6867393,68.1233413" id="Path-709" stroke="#D5A65E" stroke-width="0.972" sketch:type="MSShapeGroup"></path>
                                    <path d="M38.5949642,62.8576697 C34.815422,65.9550114 28.3940705,66.7815196 25.7295466,69.4397592 C24.879717,70.2875845 24.8788431,71.466258 24.4100166,72.4016995" id="Path-710" stroke="#D5A65E" stroke-width="0.972" sketch:type="MSShapeGroup"></path>
                                </g>
                            </g>
                        </g>
                    </g>
                </g>
                <g id="Group-+-Oval-94-+-Group-+-Group-3" transform="translate(24.750000, 350.652998)">
                    <g id="Group" sketch:type="MSShapeGroup">
                        <ellipse id="Oval-93" fill="#C99D59" transform="translate(36.667601, 36.612873) scale(-1, 1) translate(-36.667601, -36.612873) " cx="36.6676009" cy="36.6128731" rx="36.6676009" ry="36.6128731"></ellipse>
                        <path id="Path-324" stroke="#979797" stroke-width="0.5" d=""></path>
                    </g>
                    <ellipse id="Oval-94" fill="#E2B26A" sketch:type="MSShapeGroup" transform="translate(37.079596, 35.103247) scale(-1, 1) translate(-37.079596, -35.103247) " cx="37.0795964" cy="35.1032467" rx="33.5077358" ry="33.4577243"></ellipse>
                    <g id="Group-+-Group">
                        <mask id="mask-10" sketch:name="Mask" fill="white">
                            <use xlink:href="#path-9"></use>
                        </mask>
                        <use id="Mask" sketch:type="MSShapeGroup" transform="translate(36.650181, 36.595480) scale(-1, 1) translate(-36.650181, -36.595480) " xlink:href="#path-9"></use>
                        <g mask="url(#mask-10)" id="Group">
                            <g transform="translate(-3.625561, -1.316418)">
                                <g transform="translate(15.851784, 3.656716)">
                                    <path d="M14.1350672,56.6746899 C23.8920699,60.4200523 33.7818243,58.2978249 36.224452,51.9345623 C38.6670797,45.5712997 32.7376071,37.3766399 22.9806045,33.6312775 C13.2236018,29.8859151 3.33384732,32.0081425 0.891219653,38.3714052 C-1.55140801,44.7346678 4.3780645,52.9293275 14.1350672,56.6746899 L14.1350672,56.6746899 Z" id="Oval-1499" opacity="0.649545243" fill="#E3BD83" sketch:type="MSShapeGroup"></path>
                                    <path d="M26.6252025,14.0248054 C30.8460078,17.32246 36.2693549,17.4336674 38.7385872,14.2731942 C41.2078195,11.112721 39.787889,5.87737405 35.5670836,2.57971949 C31.3462782,-0.717935075 25.9229312,-0.829142531 23.4536989,2.33133068 C20.9844666,5.4918039 22.4043971,10.7271509 26.6252025,14.0248054 L26.6252025,14.0248054 Z" id="Oval-1499" opacity="0.649545243" fill="#E3BD83" sketch:type="MSShapeGroup"></path>
                                    <path d="M8.00647985,13.5073283 C9.45551121,14.6394357 11.1874358,14.8439393 11.8748416,13.9640999 C12.5622475,13.0842606 11.944828,11.4532555 10.4957966,10.3211481 C9.04676528,9.18904076 7.31484073,8.98453713 6.62743488,9.86437649 C5.94002903,10.7442159 6.5574485,12.3752209 8.00647985,13.5073283 L8.00647985,13.5073283 Z" id="Oval-1499" fill="#BF924E" sketch:type="MSShapeGroup"></path>
                                    <path d="M2.79510602,14.9127322 C2.48314567,15.8187309 2.82622794,16.7583989 3.56140171,17.0115396 C4.29657548,17.2646802 5.1454454,16.7354342 5.45740575,15.8294356 C5.7693661,14.9234369 5.42628384,13.9837689 4.69111007,13.7306282 C3.9559363,13.4774876 3.10706637,14.0067336 2.79510602,14.9127322 L2.79510602,14.9127322 Z" id="Oval-1499" fill="#BF924E" sketch:type="MSShapeGroup"></path>
                                    <path d="M24.4120349,62.5370004 C24.7370696,63.7500464 26.6701841,64.2860408 28.729767,63.7341772 C30.78935,63.1823136 32.1954791,61.7515716 31.8704444,60.5385256 C31.5454097,59.3254795 29.6122951,58.7894852 27.5527122,59.3413487 C25.4931293,59.8932123 24.0870002,61.3239543 24.4120349,62.5370004 L24.4120349,62.5370004 Z" id="Oval-1499" fill="#BF924E" sketch:type="MSShapeGroup"></path>
                                    <path d="M46.79271,38.9169336 C46.5530849,40.1496981 48.0555923,41.4788682 50.1486542,41.8857182 C52.2417162,42.2925682 54.1327326,41.6230323 54.3723578,40.3902679 C54.6119829,39.1575035 53.1094755,37.8283333 51.0164136,37.4214833 C48.9233517,37.0146333 47.0323352,37.6841692 46.79271,38.9169336 L46.79271,38.9169336 Z" id="Oval-1499" fill="#BF924E" sketch:type="MSShapeGroup"></path>
                                </g>
                                <g transform="translate(0.000000, 0.266790)">
                                    <path d="M9.89518647,57.9211025 C11.7473747,50.5878081 15.4654151,46.1257398 22.7606041,45.0860279 C24.3251626,44.8630466 26.5800207,45.1554504 28.0387241,44.4278189 C31.6033882,42.6496905 29.8911606,36.6558708 32.3271966,34.2255801 C33.2374633,33.3174603 34.5864793,33.2023121 35.6260217,32.5800577 C37.0273067,31.7412697 38.436399,30.8127114 40.2443767,31.2636398 C41.3029477,31.5276584 46.1703489,32.568173 46.8420267,33.2382667 C48.2332658,34.6262245 50.0495396,37.4710765 52.1201468,38.5039383 C53.1586819,39.0219812 55.6996984,39.1131073 56.4086193,39.8203562 C57.837186,41.2455537 56.95472,43.2948526 60.0373268,42.7822965 C72.4502029,40.7183631 71.1095067,32.9091622 77.5210995,32.9091622" id="Path-705" stroke="#D5A65E" stroke-width="0.972" sketch:type="MSShapeGroup"></path>
                                    <path d="M52.4500293,39.1621473 C47.3074695,45.20388 52.9661818,48.4352324 51.7902643,54.3009532 C51.4054927,56.2202738 49.3944442,57.2279986 48.4914392,58.5793115 C46.6010033,61.4082775 38.8716849,64.1210512 36.9455517,62.1994607 C36.7856818,62.0399679 36.4238047,60.8293234 36.2857867,60.5539383 C34.7963324,57.5820555 29.3973738,55.6303803 26.3893116,54.6300577 C24.8013894,54.1019987 24.2994483,50.899601 23.4203691,50.022595 C21.9949719,48.6005596 19.0499165,47.637077 17.8123665,46.4024458 C16.6755963,45.2683566 17.7004809,42.6706748 16.822719,41.7949831 C15.7315131,40.7063508 14.2006458,40.200301 13.523894,38.1748338 C12.6191078,35.4668771 11.7651283,31.8127535 9.89518647,29.9472219 C9.81576107,29.8679838 1.33729597,28.804861 0.328593899,28.3016995" id="Path-706" stroke="#D5A65E" stroke-width="0.972" sketch:type="MSShapeGroup"></path>
                                    <path d="M52.4500293,39.4912517 C52.4500293,38.1748338 52.3622554,36.8555003 52.4500293,35.541998 C52.5367223,34.2446693 54.3398686,33.5060008 54.7592068,32.2509532 C56.3645632,27.4462428 56.5114476,23.4890653 59.0476793,18.4285652 C59.1685574,18.1873791 59.7294312,17.1340823 59.3775618,16.7830428 C57.5141599,14.9240357 49.2218178,14.5145349 46.5121442,13.1628935 C44.9153012,12.3663551 42.9430607,9.6022277 41.8937892,8.55543085 C41.5799037,8.24228565 49.200224,0.88821954 49.4810868,0.327818913" id="Path-707" stroke="#D5A65E" stroke-width="0.972" sketch:type="MSShapeGroup"></path>
                                    <path d="M10.5549515,30.9345353 C14.2295956,25.8925071 20.7650768,24.3686398 24.7398991,20.403192 C25.8256958,19.3199561 26.291313,17.8681237 27.3789591,16.7830428 C31.7182774,12.4539588 39.5567954,16.1803352 43.2133192,8.88453533" id="Path-708" stroke="#D5A65E" stroke-width="0.972" sketch:type="MSShapeGroup"></path>
                                    <path d="M51.7902643,55.2882667 C57.5428558,56.1635756 57.0911734,57.9665732 58.7177968,61.2121473 C59.4209007,62.6150386 61.4288132,62.343034 62.0166218,63.5158786 C62.6805871,64.8406772 61.6867393,67.0977107 61.6867393,68.1233413" id="Path-709" stroke="#D5A65E" stroke-width="0.972" sketch:type="MSShapeGroup"></path>
                                    <path d="M38.5949642,62.8576697 C34.815422,65.9550114 28.3940705,66.7815196 25.7295466,69.4397592 C24.879717,70.2875845 24.8788431,71.466258 24.4100166,72.4016995" id="Path-710" stroke="#D5A65E" stroke-width="0.972" sketch:type="MSShapeGroup"></path>
                                </g>
                            </g>
                        </g>
                    </g>
                </g>
                <g id="Planet-mindspace" transform="translate(0.000000, 114.886000)">
                    <path d="M279.349164,237.090512 C417.311125,194.911308 516.682897,119.935695 501.302228,69.6277946 C485.921559,19.3198939 361.612797,12.7302835 223.650836,54.9094879 C85.6888747,97.0886922 -13.6828967,172.064305 1.69777205,222.372205 C17.0784408,272.680106 141.387203,279.269716 279.349164,237.090512 Z M275.606874,223.65372 C376.252416,190.952001 448.14858,134.609518 436.191452,97.8092617 C424.234324,61.0090056 332.951825,57.6864847 232.306283,90.3882036 C131.660741,123.089923 59.7645756,179.432406 71.7217037,216.232662 C83.6788317,253.032918 174.961332,256.355439 275.606874,223.65372 Z" id="Oval-1486" fill="#D0EBB5" sketch:type="MSShapeGroup"></path>
                    <g id="Group" transform="translate(96.000000, 0.000000)" sketch:type="MSShapeGroup">
                        <ellipse id="Oval-93" fill="#759653" transform="translate(160.639013, 160.399254) scale(-1, 1) translate(-160.639013, -160.399254) " cx="160.639013" cy="160.399254" rx="160.639013" ry="160.399254"></ellipse>
                        <path id="Path-324" stroke="#979797" stroke-width="0.5" d=""></path>
                    </g>
                    <ellipse id="Oval-94" fill="#91B170" sketch:type="MSShapeGroup" transform="translate(258.443946, 153.785652) scale(-1, 1) translate(-258.443946, -153.785652) " cx="258.443946" cy="153.785652" rx="146.795795" ry="146.576697"></ellipse>
                    <g id="Group-+-Group" transform="translate(96.000000, 0.000000)">
                        <mask id="mask-12" sketch:name="Mask" fill="white">
                            <use xlink:href="#path-11"></use>
                        </mask>
                        <use id="Mask" sketch:type="MSShapeGroup" transform="translate(160.562700, 160.323054) scale(-1, 1) translate(-160.562700, -160.323054) " xlink:href="#path-11"></use>
                        <g mask="url(#mask-12)" id="Group">
                            <g transform="translate(-14.883408, -3.767164)">
                                <g transform="translate(69.445909, 14.019900)">
                                    <path d="M60.9250563,248.289118 C103.67002,264.697372 146.996564,255.399995 157.697599,227.522844 C168.398635,199.645694 142.421898,163.74528 99.6769338,147.337025 C56.9319696,130.928771 13.6054264,140.226148 2.90439086,168.103299 C-7.79664463,195.980449 18.1800921,231.880863 60.9250563,248.289118 L60.9250563,248.289118 Z" id="Oval-1499" opacity="0.649545243" fill="#ADC297" sketch:type="MSShapeGroup"></path>
                                    <path d="M115.643744,61.4420047 C134.134891,75.8888723 157.894317,76.3760669 168.711906,62.5301843 C179.529495,48.6843016 173.308847,25.7484958 154.8177,11.3016282 C136.326552,-3.14523938 112.567127,-3.63243394 101.749538,10.2134487 C90.9319488,24.0593314 97.1525968,46.9951371 115.643744,61.4420047 L115.643744,61.4420047 Z" id="Oval-1499" opacity="0.649545243" fill="#ADC297" sketch:type="MSShapeGroup"></path>
                                    <path d="M34.076007,59.1749621 C40.4241443,64.1346706 48.0116233,65.0305912 51.0231156,61.1760569 C54.0346079,57.3215225 51.3297226,50.1761669 44.9815852,45.2164585 C38.6334479,40.25675 31.0459689,39.3608293 28.0344766,43.2153637 C25.0229843,47.069898 27.7278696,54.2152536 34.076007,59.1749621 L34.076007,59.1749621 Z" id="Oval-1499" fill="#759653" sketch:type="MSShapeGroup"></path>
                                    <path d="M11.2452264,65.3319698 C9.87854295,69.3011068 11.38157,73.4177477 14.6023313,74.5267447 C17.8230926,75.6357418 21.5419513,73.3171403 22.9086347,69.3480034 C24.2753182,65.3788665 22.7722911,61.2622256 19.5515298,60.1532285 C16.3307685,59.0442315 12.6119098,61.3628329 11.2452264,65.3319698 L11.2452264,65.3319698 Z" id="Oval-1499" fill="#759653" sketch:type="MSShapeGroup"></path>
                                    <path d="M105.947962,273.971621 C107.371924,279.285918 115.840807,281.634083 124.863741,279.216395 C133.886676,276.798707 140.046861,270.530695 138.622899,265.216398 C137.198938,259.902101 128.730055,257.553935 119.70712,259.971623 C110.684186,262.389311 104.524001,268.657324 105.947962,273.971621 L105.947962,273.971621 Z" id="Oval-1499" fill="#759653" sketch:type="MSShapeGroup"></path>
                                    <path d="M203.996634,170.493233 C202.946848,175.893915 209.529261,181.716946 218.698866,183.499337 C227.868471,185.281728 236.152924,182.348523 237.20271,176.94784 C238.252497,171.547158 231.670083,165.724127 222.500479,163.941736 C213.330874,162.159346 205.046421,165.092551 203.996634,170.493233 L203.996634,170.493233 Z" id="Oval-1499" fill="#759653" sketch:type="MSShapeGroup"></path>
                                </g>
                                <g transform="translate(0.000000, 0.168793)">
                                    <path d="M42.3503407,252.749592 C50.4646891,220.622778 66.7532473,201.074669 98.7131226,196.519741 C105.567379,195.542871 115.445805,196.823878 121.836315,193.636159 C137.452939,185.846263 129.951751,159.587624 140.623909,148.940637 C144.611744,144.962207 150.521719,144.457748 155.075904,141.731681 C161.214867,138.056991 167.388034,133.989021 175.308698,135.964517 C179.946247,137.12117 201.2701,141.679615 204.212689,144.615264 C210.307641,150.695841 218.26465,163.159002 227.335881,167.68392 C231.885654,169.953441 243.017726,170.35266 246.123475,173.451084 C252.381958,179.694806 248.515916,188.672688 262.02067,186.427204 C316.400889,177.38521 310.527363,143.173472 338.616245,143.173472" id="Path-705" stroke="#B3CC99" stroke-width="2.43" sketch:type="MSShapeGroup"></path>
                                    <path d="M228.781081,170.567502 C206.251771,197.036046 231.04232,211.192447 225.890682,236.88989 C224.205016,245.298343 215.394708,249.713137 211.438686,255.633174 C203.156776,268.026739 169.295001,279.911272 160.856703,271.492875 C160.15632,270.794145 158.570954,265.490369 157.966303,264.28392 C151.441075,251.264243 127.788495,242.714047 114.610317,238.331681 C107.653706,236.01828 105.454726,221.988728 101.603522,218.146607 C95.3589245,211.916737 82.4567772,207.695766 77.0351295,202.286905 C72.0549932,197.318515 76.5449639,185.938194 72.6995309,182.101831 C67.9190099,177.332584 61.2123532,175.115604 58.2475356,166.242129 C54.2837104,154.3787 50.5424671,138.370158 42.3503407,130.197353 C42.0023818,129.850215 4.85862998,125.192725 0.439554224,122.988398" id="Path-706" stroke="#B3CC99" stroke-width="2.43" sketch:type="MSShapeGroup"></path>
                                    <path d="M228.781081,172.009293 C228.781081,166.242129 228.396548,160.462192 228.781081,154.707801 C229.160879,149.024266 237.060377,145.788194 238.897477,140.28989 C245.930467,119.240683 246.573961,101.904476 257.685071,79.7346665 C258.214633,78.6780419 260.671794,74.0635985 259.130271,72.5257113 C250.966796,64.3814898 214.63844,62.5874864 202.767489,56.6660098 C195.771796,53.1764128 187.131504,41.0669023 182.534696,36.4809352 C181.159578,35.1090609 214.543839,2.89124751 215.774285,0.436159049" id="Path-707" stroke="#B3CC99" stroke-width="2.43" sketch:type="MSShapeGroup"></path>
                                    <path d="M45.2407398,134.522726 C61.3391805,112.43384 89.9708126,105.75785 107.38432,88.3854128 C112.141144,83.6398078 114.18099,77.2793991 118.945916,72.5257113 C137.956263,53.5602003 172.296437,69.8852779 188.315494,37.9227262" id="Path-708" stroke="#B3CC99" stroke-width="2.43" sketch:type="MSShapeGroup"></path>
                                    <path d="M225.890682,241.215264 C251.092511,245.04995 249.113712,252.948797 256.239872,267.167502 C259.320137,273.313502 268.116705,272.121863 270.691867,277.26004 C273.600667,283.063919 269.246668,292.951876 269.246668,297.445114" id="Path-709" stroke="#B3CC99" stroke-width="2.43" sketch:type="MSShapeGroup"></path>
                                    <path d="M168.0827,274.376458 C151.524706,287.945764 123.393071,291.566657 111.719918,303.212278 C107.996855,306.926561 107.993027,312.090273 105.93912,316.188398" id="Path-710" stroke="#B3CC99" stroke-width="2.43" sketch:type="MSShapeGroup"></path>
                                </g>
                            </g>
                        </g>
                    </g>
                    <path d="M79.5022384,227.659885 C35.4076327,234.316197 5.08819514,233.73928 1.49028195,221.971036 C-13.8316327,171.855311 85.6594679,97.0135674 223.709875,54.8073224 C361.760282,12.6010774 486.093114,19.0129776 501.415029,69.1287024 C505.169934,81.4104442 477.980082,99.8617552 434.561564,119.983475 C437.970039,111.907164 438.732374,104.24178 436.47109,97.2822622 C424.559638,60.6225829 333.26186,57.4310173 232.551795,90.153701 C131.841731,122.876385 59.8562318,179.121903 71.7676837,215.781582 C73.2152639,220.236776 75.8353136,224.197674 79.5022384,227.659885 Z" id="Oval-1487" opacity="0.768598414" fill="#D0EBB5" sketch:type="MSShapeGroup"></path>
                    <path d="M55.9999993,250.500001 C55.9999993,250.500001 -33,231.5 64,148.5 C161,65.5 357.999992,22.5 425.999992,44.5000009 C518,76.5 449.000011,144.643944 449.000011,144.643944 C449.000011,144.643944 510,79.5 422.999992,53.5000002 C360.999992,40.5 207.999996,53.5000006 71,154.5 C-16,227.5 55.9999993,250.500001 55.9999993,250.500001 Z" id="Path-1672" fill-opacity="0.479999989" fill="#FFFFFF" sketch:type="MSShapeGroup"></path>
                </g>
                <text id="Planet-Mindspace" opacity="0.25" sketch:type="MSTextLayer" font-family="Proxima Nova" font-size="24" font-weight="526" line-spacing="38" fill="#FFFFFF">
                    <tspan x="203" y="44.886">Planet Mindspace</tspan>
                </text>
                <path d="M203,54.9638656 L203,237.886 L392.027344,237.886" id="Path-856" stroke="#FFFFFF" stroke-width="2" opacity="0.5" sketch:type="MSShapeGroup" transform="translate(297.513672, 146.424933) scale(-1, 1) rotate(-180.000000) translate(-297.513672, -146.424933) "></path>
                <g id="Line-+-Oval-2529" transform="translate(203.000000, 244.844984) scale(-1, 1) translate(-203.000000, -244.844984) translate(195.500000, 237.344984)" fill="#FFFFFF" sketch:type="MSShapeGroup" opacity="0.5">
                    <circle id="Oval-2529" cx="7.5" cy="7.5" r="7.5"></circle>
                </g>
                <g id="Group-+-Oval-94-+-Group-+-Group" transform="translate(332.220344, 363.886000)">
                    <g id="Group" sketch:type="MSShapeGroup">
                        <ellipse id="Oval-93" fill="#C99D59" transform="translate(59.672904, 59.583840) scale(-1, 1) translate(-59.672904, -59.583840) " cx="59.6729036" cy="59.5838396" rx="59.6729036" ry="59.5838396"></ellipse>
                        <path id="Path-324" stroke="#979797" stroke-width="0.5" d=""></path>
                    </g>
                    <ellipse id="Oval-94" fill="#E2B26A" sketch:type="MSShapeGroup" transform="translate(60.343386, 57.127071) scale(-1, 1) translate(-60.343386, -57.127071) " cx="60.3433857" cy="57.1270714" rx="54.5305349" ry="54.449146"></ellipse>
                    <g id="Group-+-Group">
                        <mask id="mask-14" sketch:name="Mask" fill="white">
                            <use xlink:href="#path-13"></use>
                        </mask>
                        <use id="Mask" sketch:type="MSShapeGroup" transform="translate(59.644555, 59.555533) scale(-1, 1) translate(-59.644555, -59.555533) " xlink:href="#path-13"></use>
                        <g mask="url(#mask-14)" id="Group">
                            <g transform="translate(-5.900242, -2.142340)">
                                <g transform="translate(25.797214, 5.950945)">
                                    <path d="M23.0034276,92.2324675 C38.881987,98.3276754 54.9765869,94.8739596 58.9517225,84.5183773 C62.926858,74.1627951 53.2772264,60.8267947 37.398667,54.7315868 C21.5201075,48.6363789 5.42550766,52.0900947 1.45037208,62.445677 C-2.52476351,72.8012592 7.12486812,86.1372596 23.0034276,92.2324675 L23.0034276,92.2324675 Z" id="Oval-1499" opacity="0.649545243" fill="#E3BD83" sketch:type="MSShapeGroup"></path>
                                    <path d="M43.3298907,22.8239874 C50.1988351,28.190595 59.0247975,28.3715741 63.0432295,23.2282157 C67.0616615,18.0848573 64.7508646,9.56484652 57.8819203,4.198239 C51.0129759,-1.16836852 42.1870135,-1.34934768 38.1685815,3.79401072 C34.1501495,8.93736913 36.4609463,17.4573799 43.3298907,22.8239874 L43.3298907,22.8239874 Z" id="Oval-1499" opacity="0.649545243" fill="#E3BD83" sketch:type="MSShapeGroup"></path>
                                    <path d="M13.0297562,21.9818445 C15.3879118,23.8242375 18.2064482,24.157047 19.3251334,22.7251952 C20.4438186,21.2933435 19.4390293,18.6390436 17.0808737,16.7966505 C14.7227181,14.9542574 11.9041817,14.6214479 10.7854965,16.0532997 C9.66681133,17.4851515 10.6716006,20.1394514 13.0297562,21.9818445 L13.0297562,21.9818445 Z" id="Oval-1499" fill="#BF924E" sketch:type="MSShapeGroup"></path>
                                    <path d="M4.54875934,24.2690007 C4.04107465,25.7434242 4.59940719,27.2726412 5.79582998,27.6846026 C6.99225278,28.096564 8.37370485,27.2352684 8.88138954,25.760845 C9.38907424,24.2864215 8.8307417,22.7572045 7.63431891,22.3452431 C6.43789611,21.9332817 5.05644404,22.7945773 4.54875934,24.2690007 L4.54875934,24.2690007 Z" id="Oval-1499" fill="#BF924E" sketch:type="MSShapeGroup"></path>
                                    <path d="M39.7281788,101.772799 C40.2571407,103.746912 43.4030939,104.61919 46.754862,103.721087 C50.10663,102.822983 52.3949665,100.494592 51.8660046,98.5204789 C51.3370426,96.546366 48.1910894,95.6740881 44.8393213,96.5721917 C41.4875533,97.4702952 39.1992168,99.7986866 39.7281788,101.772799 L39.7281788,101.772799 Z" id="Oval-1499" fill="#BF924E" sketch:type="MSShapeGroup"></path>
                                    <path d="M76.15052,63.3334707 C75.7605537,65.3396732 78.2057363,67.5027665 81.6119881,68.1648748 C85.0182399,68.8269831 88.0956828,67.7373794 88.485649,65.7311769 C88.8756153,63.7249744 86.4304327,61.5618811 83.0241809,60.8997728 C79.617929,60.2376646 76.5404862,61.3272682 76.15052,63.3334707 L76.15052,63.3334707 Z" id="Oval-1499" fill="#BF924E" sketch:type="MSShapeGroup"></path>
                                </g>
                                <g transform="translate(0.000000, 0.434174)">
                                    <path d="M16.1034399,94.260881 C19.1176935,82.3266677 25.1684377,75.0650917 37.040638,73.3730631 C39.5868027,73.0101832 43.2563618,73.4860415 45.6302577,72.3018929 C51.431397,69.4081643 48.6449154,59.653814 52.6093238,55.6987556 C54.090693,54.2208802 56.2860834,54.0334879 57.9778361,53.0208303 C60.2582892,51.6557854 62.551448,50.1446485 65.4937534,50.87849 C67.2164733,51.3081542 75.1376887,53.0014891 76.230778,54.0920004 C78.4948823,56.3507648 81.4506888,60.9804808 84.8203978,62.6613616 C86.5105113,63.5044253 90.6457649,63.652724 91.7994638,64.8037019 C94.1243152,67.1230701 92.6881889,70.458102 97.7048274,69.6239676 C117.905559,66.2651196 115.723708,53.5564153 126.157943,53.5564153" id="Path-705" stroke="#D5A65E" stroke-width="0.972" sketch:type="MSShapeGroup"></path>
                                    <path d="M85.357249,63.7325318 C76.9882403,73.5648557 86.1972364,78.8235632 84.2835465,88.3694452 C83.6573687,91.4929501 80.3845857,93.1329228 78.9150342,95.3320512 C75.8385362,99.9359143 63.2598329,104.350686 60.125241,101.223487 C59.8650687,100.963928 59.2761494,98.9937237 59.0515386,98.5455616 C56.6275986,93.7091154 47.8413261,90.5329566 42.9460016,88.9050303 C40.3618149,88.0456663 39.5449552,82.8340799 38.1143405,81.4068392 C35.7946472,79.0926169 31.0018601,77.524644 28.9878695,75.5154034 C27.1378881,73.6697851 28.8057867,69.4423142 27.3773158,68.0172123 C25.6014859,66.2455707 23.1101503,65.4220246 22.0088035,62.1257765 C20.5363532,57.718844 19.1465859,51.7721184 16.1034399,48.7361497 C15.9741829,48.6071975 2.17631729,46.87707 0.534754158,46.0582243" id="Path-706" stroke="#D5A65E" stroke-width="0.972" sketch:type="MSShapeGroup"></path>
                                    <path d="M85.357249,64.2681168 C85.357249,62.1257765 85.2144058,59.9786913 85.357249,57.8410959 C85.4983334,55.7298215 88.4327761,54.5277112 89.1152076,52.4852452 C91.7277668,44.6660529 91.9668067,38.2261368 96.0942737,29.990672 C96.2909909,29.5981655 97.2037576,27.8840288 96.6311249,27.3127467 C93.5986221,24.287396 80.1036532,23.6209739 75.6939268,21.4213109 C73.0952223,20.1250231 69.8855955,15.6266784 68.1780095,13.9231198 C67.6671918,13.4135069 80.0685115,1.44548969 80.5255879,0.533492945" id="Path-707" stroke="#D5A65E" stroke-width="0.972" sketch:type="MSShapeGroup"></path>
                                    <path d="M17.1771424,50.3429049 C23.1572632,42.1375012 33.7931142,39.6575575 40.2617454,33.2041825 C42.0287725,31.4413229 42.7865185,29.0786088 44.5565553,27.3127467 C51.6183677,20.2675894 64.3747827,26.3318995 70.3254145,14.4587049" id="Path-708" stroke="#D5A65E" stroke-width="0.972" sketch:type="MSShapeGroup"></path>
                                    <path d="M84.2835465,89.9762004 C93.6453219,91.4006793 92.9102533,94.3348801 95.5574224,99.6167318 C96.7016547,101.899799 99.9693341,101.457138 100.925935,103.365827 C102.006473,105.521806 100.389084,109.194906 100.389084,110.864018" id="Path-709" stroke="#D5A65E" stroke-width="0.972" sketch:type="MSShapeGroup"></path>
                                    <path d="M62.8094972,102.294657 C56.6586651,107.335275 46.2085489,108.680336 41.8722991,113.006359 C40.4892853,114.386111 40.4878631,116.304285 39.7248942,117.826624" id="Path-710" stroke="#D5A65E" stroke-width="0.972" sketch:type="MSShapeGroup"></path>
                                </g>
                            </g>
                        </g>
                    </g>
                </g>
            </g>
        </g>
    </g>
</svg>