<?xml version="1.0" encoding="UTF-8" standalone="no"?>
<svg width="99px" height="52px" viewBox="0 0 99 52" version="1.1" xmlns="http://www.w3.org/2000/svg" xmlns:xlink="http://www.w3.org/1999/xlink" xmlns:sketch="http://www.bohemiancoding.com/sketch/ns">
    <!-- Generator: Sketch 3.2.2 (9983) - http://www.bohemiancoding.com/sketch -->
    <title>B007_ufo_xs</title>
    <desc>Created with Sketch.</desc>
    <defs></defs>
    <g id="Page-3" stroke="none" stroke-width="1" fill="none" fill-rule="evenodd" sketch:type="MSPage">
        <g id="Caroussel-planeten2" sketch:type="MSArtboardGroup" transform="translate(-577.000000, -168.000000)">
            <g id="B007_ufo_xs" sketch:type="MSLayerGroup" transform="translate(628.153643, 193.106839) rotate(17.000000) translate(-628.153643, -193.106839) translate(577.324595, 167.854191)">
                <g id="Path-131-+-Oval-54" transform="translate(40.270693, 0.446702)" fill="#256FB7" sketch:type="MSShapeGroup">
                    <g id="Path-131">
                        <path d="M1.86292648e-10,5.72518065 C1.86292648e-10,5.72518065 4.44263906,6.54653973 9.87170575,6.54653973 C15.3007724,6.54653973 19.9936456,5.72518051 19.9936456,5.72518051 C19.9936456,5.72518051 19.9895116,-0.0013833406 9.87170575,-0.00138334059 C-0.246100077,-0.00138334059 1.86292648e-10,5.72518065 1.86292648e-10,5.72518065 Z"></path>
                    </g>
                </g>
                <g id="Group" transform="translate(-0.250561, 3.880728)" sketch:type="MSShapeGroup">
                    <path d="M23.776031,18.2243355 C23.776031,18.2243355 31.113233,18.2243355 49.9803237,18.2243355 C68.8474145,18.2243355 77.6820046,18.2243355 77.6820046,18.2243355 C77.6820046,18.2243355 74.6872283,-0.857499833 49.9803237,0.0300273932 C25.2734192,0.917554619 23.776031,18.2243355 23.776031,18.2243355 Z" id="Path-136" fill="#E1E1E1"></path>
                    <path d="M25.6307095,16.0405129 C25.6307095,16.0405129 32.1123139,16.0405129 48.7792967,16.0405129 C65.4462794,16.0405129 73.2506603,16.0405129 73.2506603,16.0405129 C73.2506603,16.0405129 70.6051075,1.48875957 48.7792967,2.16558531 C26.9534859,2.84241105 25.6307095,16.0405129 25.6307095,16.0405129 Z" id="Path-140" opacity="0.63176306" fill="#FFFFFF"></path>
                    <path d="M-0.062768473,26.0192562 C-0.062768473,26.0192562 13.7730981,26.0192562 49.3510407,26.0192562 C84.9289833,26.0192562 101.588496,26.0192562 101.588496,26.0192562 C101.588496,26.0192562 95.9412036,12.7270862 49.3510407,13.3453267 C2.76087776,13.9635672 -0.062768473,26.0192562 -0.062768473,26.0192562 Z" id="Path-135" fill="#3E8FDF"></path>
                    <path d="M-0.062768473,26.0974996 C-0.062768473,26.0974996 12.4017401,26.0974996 44.4533336,26.0974996 C76.5049271,26.0974996 91.5132129,26.0974996 91.5132129,26.0974996 C91.5132129,26.0974996 86.4256584,16.893156 44.4533336,17.321265 C2.48100879,17.749374 -0.062768473,26.0974996 -0.062768473,26.0974996 Z" id="Path-139" fill="#256FB8"></path>
                    <path d="M-0.062768473,26.0192562 C-0.062768473,26.0192562 15.1849212,24.4736551 50.7628638,24.4736551 C86.3408064,24.4736551 101.588496,26.0192562 101.588496,26.0192562 C101.588496,26.0192562 97.9947645,41.6813483 50.7628638,41.681348 C3.5309631,41.6813478 -0.062768473,26.0192562 -0.062768473,26.0192562 Z" id="Path-130" fill="#144A80"></path>
                    <path d="M24.5581373,39.1102828 C24.5581373,39.1102828 32.2114028,37.4831496 50.1543429,37.4831496 C67.9266417,37.4831496 75.5799072,39.1102828 75.5799072,39.1102828 C75.5799072,39.1102828 73.7761072,46.3584219 50.1543429,46.3584218 C26.3619372,46.3584217 24.5581373,39.1102828 24.5581373,39.1102828 Z" id="Path-130" fill="#062E55"></path>
                    <path d="M25.4113441,39.0834258 C25.4113441,39.0834258 31.3761427,37.4831496 45.7605687,37.4831496 C60.0081956,37.4831496 65.853349,38.0897101 65.853349,38.0897101 C65.853349,38.0897101 64.6975722,44.7461644 45.7605687,44.7461643 C26.686766,44.7461642 25.4113441,39.0834258 25.4113441,39.0834258 Z" id="Path-141" fill="#0B3966"></path>
                </g>
            </g>
        </g>
    </g>
</svg>