<?xml version="1.0" encoding="UTF-8" standalone="no"?>
<svg width="146px" height="78px" viewBox="0 0 146 78" version="1.1" xmlns="http://www.w3.org/2000/svg" xmlns:xlink="http://www.w3.org/1999/xlink" xmlns:sketch="http://www.bohemiancoding.com/sketch/ns">
    <!-- Generator: Sketch 3.2.2 (9983) - http://www.bohemiancoding.com/sketch -->
    <title>B011_ufo</title>
    <desc>Created with Sketch.</desc>
    <defs></defs>
    <g id="Page-3" stroke="none" stroke-width="1" fill="none" fill-rule="evenodd" sketch:type="MSPage">
        <g id="L" sketch:type="MSArtboardGroup" transform="translate(-1328.000000, -7018.000000)">
            <g id="Quote" sketch:type="MSLayerGroup" transform="translate(487.000000, 6996.000000)">
                <g id="B011_ufo" transform="translate(915.764883, 58.918440) rotate(17.000000) translate(-915.764883, -58.918440) translate(838.764883, 21.418440)" sketch:type="MSShapeGroup">
                    <g id="Path-131-+-Oval-54" transform="translate(61.897054, 0.664408)" fill="#256FB7">
                        <g id="Path-131">
                            <path d="M2.7708348e-10,8.51540973 C2.7708348e-10,8.51540973 6.60780755,9.7370671 14.682789,9.7370671 C22.7577704,9.7370671 29.7377663,8.51540953 29.7377663,8.51540953 C29.7377663,8.51540953 29.7316175,-0.00205752669 14.682789,-0.00205752668 C-0.366039627,-0.00205752667 2.7708348e-10,8.51540973 2.7708348e-10,8.51540973 Z"></path>
                        </g>
                    </g>
                    <g id="Group" transform="translate(0.627326, 4.772042)">
                        <path d="M36.3635384,28.1061637 C36.3635384,28.1061637 47.2766056,28.1061637 75.3387783,28.1061637 C103.400951,28.1061637 116.541175,28.1061637 116.541175,28.1061637 C116.541175,28.1061637 112.086862,-0.275411706 75.3387783,1.04466157 C38.590695,2.36473485 36.3635384,28.1061637 36.3635384,28.1061637 Z" id="Path-136" fill="#E1E1E1"></path>
                        <path d="M39.1221146,24.8580314 C39.1221146,24.8580314 48.7625994,24.8580314 73.5524176,24.8580314 C98.3422358,24.8580314 109.950167,24.8580314 109.950167,24.8580314 C109.950167,24.8580314 106.015275,3.21432275 73.5524176,4.22100687 C41.0895605,5.227691 39.1221146,24.8580314 39.1221146,24.8580314 Z" id="Path-140" opacity="0.63176306" fill="#FFFFFF"></path>
                        <path d="M0.906640629,39.7000239 C0.906640629,39.7000239 21.4855673,39.7000239 74.4028073,39.7000239 C127.320047,39.7000239 152.098755,39.7000239 152.098755,39.7000239 C152.098755,39.7000239 143.699193,19.9297702 74.4028073,20.8493169 C5.10642158,21.7688636 0.906640629,39.7000239 0.906640629,39.7000239 Z" id="Path-135" fill="#3E8FDF"></path>
                        <path d="M0.906640629,39.8163999 C0.906640629,39.8163999 19.4458631,39.8163999 67.1181494,39.8163999 C114.790436,39.8163999 137.113173,39.8163999 137.113173,39.8163999 C137.113173,39.8163999 129.546143,26.1262193 67.1181494,26.7629719 C4.69015541,27.3997245 0.906640629,39.8163999 0.906640629,39.8163999 Z" id="Path-139" fill="#256FB8"></path>
                        <path d="M0.906640629,39.7000239 C0.906640629,39.7000239 23.5854578,37.4011572 76.5026978,37.4011572 C129.419938,37.4011572 152.098755,39.7000239 152.098755,39.7000239 C152.098755,39.7000239 146.753579,62.9952068 76.5026978,62.9952065 C6.25181639,62.9952061 0.906640629,39.7000239 0.906640629,39.7000239 Z" id="Path-130" fill="#144A80"></path>
                        <path d="M37.5268127,59.1711047 C37.5268127,59.1711047 48.9099804,56.7509703 75.5976076,56.7509703 C102.03143,56.7509703 113.414597,59.1711047 113.414597,59.1711047 C113.414597,59.1711047 110.731696,69.9517033 75.5976076,69.9517031 C40.2097142,69.9517029 37.5268127,59.1711047 37.5268127,59.1711047 Z" id="Path-130" fill="#062E55"></path>
                        <path d="M38.7958392,59.1311586 C38.7958392,59.1311586 47.6676472,56.7509703 69.0624797,56.7509703 C90.2538426,56.7509703 98.9476952,57.6531448 98.9476952,57.6531448 C98.9476952,57.6531448 97.228638,67.5536945 69.0624797,67.5536943 C40.6928518,67.5536942 38.7958392,59.1311586 38.7958392,59.1311586 Z" id="Path-141" fill="#0B3966"></path>
                    </g>
                </g>
            </g>
        </g>
    </g>
</svg>