<?xml version="1.0" encoding="UTF-8" standalone="no"?>
<svg width="359px" height="235px" viewBox="0 0 359 235" version="1.1" xmlns="http://www.w3.org/2000/svg" xmlns:xlink="http://www.w3.org/1999/xlink" xmlns:sketch="http://www.bohemiancoding.com/sketch/ns">
    <!-- Generator: Sketch 3.2.2 (9983) - http://www.bohemiancoding.com/sketch -->
    <title>C001_ufo</title>
    <desc>Created with Sketch.</desc>
    <defs></defs>
    <g id="Page-3" stroke="none" stroke-width="1" fill="none" fill-rule="evenodd" sketch:type="MSPage">
        <g id="L" sketch:type="MSArtboardGroup" transform="translate(-783.000000, -7575.000000)">
            <g id="We-need-you-as-a-beta-tester!" sketch:type="MSLayerGroup" transform="translate(249.000000, 7473.000000)">
                <g id="C001_ufo" transform="translate(502.000000, 0.000000)" sketch:type="MSShapeGroup">
                    <ellipse id="Oval-730" fill="#D8D8D8" cx="210.587884" cy="311.822086" rx="171.34878" ry="25.1779141"></ellipse>
                    <g id="Line-+-Rectangle-68" transform="translate(202.178128, 262.515337) scale(-1, 1) translate(-202.178128, -262.515337) translate(173.795201, 223.699387)">
                        <path d="M55.7521777,1.04907975 L23.314547,27.2760736 L23.314547,68.190184" id="Line" stroke="#062E55" stroke-width="12.6" stroke-linecap="round" stroke-linejoin="round"></path>
                        <rect id="Rectangle-68" fill="#001D39" x="0" y="62.4212699" width="44.6017422" height="14.9856828" rx="21"></rect>
                    </g>
                    <g id="Line-+-Rectangle-68" transform="translate(32.931787, 236.288344)">
                        <path d="M57.8170732,1.04907975 L24.1780488,27.2760736 L24.1780488,68.190184" id="Line" stroke="#062E55" stroke-width="12.6" stroke-linecap="round" stroke-linejoin="round"></path>
                        <rect id="Rectangle-68" fill="#001D39" x="0" y="61.0715749" width="46.2536585" height="14.9856828" rx="21"></rect>
                    </g>
                    <g id="Line-+-Rectangle-68" transform="translate(360.912274, 275.104294) scale(-1, 1) translate(-360.912274, -275.104294) translate(331.478128, 236.288344)">
                        <path d="M57.8170732,1.04907975 L24.1780488,27.2760736 L24.1780488,68.190184" id="Line" stroke="#062E55" stroke-width="12.6" stroke-linecap="round" stroke-linejoin="round"></path>
                        <rect id="Rectangle-68" fill="#001D39" x="0" y="61.0715749" width="46.2536585" height="14.9856828" rx="21"></rect>
                    </g>
                    <g id="Path-131-+-Oval-54-+-Group-2" transform="translate(211.110107, 166.275978) rotate(9.000000) translate(-211.110107, -166.275978) translate(19.110107, 29.275978)">
                        <g id="Group" transform="translate(192.046750, 136.896514) rotate(-9.000000) translate(-192.046750, -136.896514) translate(15.441872, 26.743140)">
                            <path d="M83.8574136,123.384285 C83.8574136,123.384285 109.08672,123.384285 173.962078,123.384285 C238.837436,123.384285 269.21558,123.384285 269.21558,123.384285 C269.21558,123.384285 258.917904,57.904075 173.962078,60.9496662 C89.0062515,63.9952574 83.8574136,123.384285 83.8574136,123.384285 Z" id="Path-136" fill="#E1E1E1"></path>
                            <path d="M90.2348107,115.890396 C90.2348107,115.890396 112.522105,115.890396 169.832291,115.890396 C227.142477,115.890396 253.978199,115.890396 253.978199,115.890396 C253.978199,115.890396 244.881344,65.9553739 169.832291,68.277933 C94.7832381,70.6004922 90.2348107,115.890396 90.2348107,115.890396 Z" id="Path-140" opacity="0.63176306" fill="#FFFFFF"></path>
                            <path d="M1.88660675,150.13292 C1.88660675,150.13292 49.4618694,150.13292 171.798259,150.13292 C294.134649,150.13292 351.419148,150.13292 351.419148,150.13292 C351.419148,150.13292 332.000674,104.520217 171.798259,106.641738 C11.595844,108.76326 1.88660675,150.13292 1.88660675,150.13292 Z" id="Path-135" fill="#3E8FDF"></path>
                            <path d="M1.88660675,150.401416 C1.88660675,150.401416 44.7463919,150.401416 154.957268,150.401416 C265.168144,150.401416 316.774825,150.401416 316.774825,150.401416 C316.774825,150.401416 299.281035,118.81628 154.957268,120.285357 C10.6335017,121.754433 1.88660675,150.401416 1.88660675,150.401416 Z" id="Path-139" fill="#256FB8"></path>
                            <path d="M1.88660675,150.13292 C1.88660675,150.13292 54.316488,144.829118 176.652878,144.829118 C298.989267,144.829118 351.419148,150.13292 351.419148,150.13292 C351.419148,150.13292 339.061937,203.878122 176.652878,203.878121 C14.2438178,203.87812 1.88660675,150.13292 1.88660675,150.13292 Z" id="Path-130" fill="#144A80"></path>
                            <path d="M86.5467219,195.05539 C86.5467219,195.05539 112.862827,189.471806 174.560451,189.471806 C235.671316,189.471806 261.987421,195.05539 261.987421,195.05539 C261.987421,195.05539 255.784972,219.927719 174.560451,219.927718 C92.7491709,219.927718 86.5467219,195.05539 86.5467219,195.05539 Z" id="Path-130" fill="#062E55"></path>
                            <path d="M89.4805129,194.963229 C89.4805129,194.963229 109.990747,189.471806 159.452256,189.471806 C208.443376,189.471806 228.542204,191.553247 228.542204,191.553247 C228.542204,191.553247 224.568013,214.395181 159.452256,214.395181 C93.8661097,214.395181 89.4805129,194.963229 89.4805129,194.963229 Z" id="Path-141" fill="#0B3966"></path>
                        </g>
                    </g>
                </g>
            </g>
        </g>
    </g>
</svg>