<svg width="1920" height="355" viewBox="0 0 1920 355" xmlns="http://www.w3.org/2000/svg"><title>C008_landscape</title><desc>Created with Sketch.</desc><g fill="none" fill-rule="evenodd"><path d="M976.36 131.747S1350.17 3 1373.03 3c22.863 0 78.408 78.067 108.13 97 29.72 18.933 228.152 21.65 237.297 45 9.146 23.35 47.645 62.547 95.645 80.547 48 18-920 44-920 44l82.26-137.8zM109.938 227.625c88.078-36 240.755-194.198 261.602-223.247 20.848-29.05 191.876 127.826 245.424 104.715 53.547-23.11 95.93-51.732 128.04-52.854 32.11-1.123 288.817 78.726 288.817 78.726l-891.53 158.27s-120.43-29.612-32.35-65.612z" fill="#9E7955"/><path d="M92.078 223.547c98 0 275.853-168.547 296.627-192.547 20.775-24 178.09 114 229.742 96 51.65-18 92.874-41 123.425-41C772.422 86 1090 148.594 1090 148.594s230.564 181.565 82.164 200.804c-161.176 20.896-1042.312-33.85-1042.312-33.85s-135.774-92-37.774-92z" fill="#C3A17F"/><path fill="#C3A27F" d="M-133 223h2166v131H-133z"/><path d="M960 147.5S1327.408 34 1348.527 34c21.12 0 85.532 74 112.986 89 27.455 15 203.798 6 212.245 24.5 8.448 18.5 122.406 77.727 122.406 77.727L960 341.227V147.5z" fill="#C3A17F"/></g></svg>