<?xml version="1.0" encoding="UTF-8" standalone="no"?>
<svg width="1920px" height="355px" viewBox="0 0 1920 355" version="1.1" xmlns="http://www.w3.org/2000/svg" xmlns:xlink="http://www.w3.org/1999/xlink" xmlns:sketch="http://www.bohemiancoding.com/sketch/ns">
    <!-- Generator: Sketch 3.2.2 (9983) - http://www.bohemiancoding.com/sketch -->
    <title>C008_landscape</title>
    <desc>Created with Sketch.</desc>
    <defs></defs>
    <g id="Page-3" stroke="none" stroke-width="1" fill="none" fill-rule="evenodd" sketch:type="MSPage">
        <g id="L" sketch:type="MSArtboardGroup" transform="translate(0.000000, -9446.000000)">
            <g id="Become-a-co-pilot!-2" sketch:type="MSLayerGroup" transform="translate(-133.000000, 8941.000000)">
                <g id="C008_landscape" transform="translate(0.000000, 505.000000)" sketch:type="MSShapeGroup">
                    <path d="M1109.36098,131.746667 C1109.36098,131.746667 1483.16764,2.99999983 1506.03043,3 C1528.89322,3.00000017 1584.4375,81.0666667 1614.15913,100 C1643.88076,118.933333 1842.31229,121.648889 1851.45741,145 C1860.60252,168.351111 1899.10157,207.546875 1947.10157,225.546875 C1995.10157,243.546875 1027.10157,269.546875 1027.10157,269.546875 L1109.36098,131.746667 Z" id="Path-1632" fill="#9E7955"></path>
                    <path d="M242.937501,227.625001 C331.015623,191.625006 483.69257,33.4269938 504.540041,4.37755248 C525.387512,-24.6718888 696.415855,132.203905 749.963674,109.0929 C803.511493,85.9818943 845.892693,57.3605382 878.003388,56.239208 C910.114083,55.1178778 1166.82066,134.966628 1166.82066,134.966628 L275.290557,293.237327 C275.290557,293.237327 154.859378,263.624996 242.937501,227.625001 Z" id="Path-1633" fill="#9E7955"></path>
                    <path d="M225.078125,223.546872 C323.078126,223.546872 500.930717,55.0000001 521.705206,31.000001 C542.479694,7.00000188 699.795349,145 751.446611,127 C803.097873,109 844.320796,86.0000008 874.871515,86.0000008 C905.422234,86.0000008 1222.99997,148.593755 1222.99997,148.593755 C1222.99997,148.593755 1453.56365,330.158949 1305.16403,349.39845 C1143.98804,370.294364 262.851561,315.546887 262.851561,315.546887 C262.851561,315.546887 127.078123,223.546872 225.078125,223.546872 Z" id="Path-1630" fill="#C3A17F"></path>
                    <rect id="Rectangle-171" fill="#C3A27F" x="0" y="223" width="2166" height="131"></rect>
                    <path d="M1093,147.5 C1093,147.5 1460.40799,33.9999999 1481.52691,34 C1502.64583,34.0000001 1567.05854,108 1594.51313,123 C1621.96773,138 1798.3107,129 1806.75827,147.5 C1815.20584,166 1929.16406,225.226563 1929.16406,225.226563 L1093,341.226563 L1093,147.5 Z" id="Path-1631" fill="#C3A17F"></path>
                </g>
            </g>
        </g>
    </g>
</svg>