<svg width="69" height="69" viewBox="0 0 69 69" xmlns="http://www.w3.org/2000/svg"><title>C009_Linkedin</title><desc>Created with Sketch.</desc><g fill="none" fill-rule="evenodd"><path d="M34.114 68.278c18.788 0 34.014-15.232 34.014-34.018C68.128 15.476 52.902.246 34.114.246 15.326.246.098 15.476.098 34.26c0 18.786 15.228 34.018 34.016 34.018" fill="#247CB4"/><path d="M17.962 27.27h6.632v21.218h-6.632V27.27zm3.146-2.654h-.048c-2.398 0-3.954-1.622-3.954-3.678 0-2.096 1.602-3.684 4.05-3.684 2.444 0 3.95 1.584 3.998 3.678 0 2.056-1.554 3.684-4.046 3.684zM51.12 48.488h-7.518v-10.98c0-2.874-1.174-4.836-3.762-4.836-1.978 0-3.076 1.324-3.588 2.6-.192.458-.164 1.096-.164 1.734v11.482H28.64s.098-19.45 0-21.218h7.448v3.33c.442-1.456 2.82-3.534 6.62-3.534 4.712 0 8.412 3.052 8.412 9.624v11.798z" fill="#fff"/></g></svg>